<?xml version="1.0" standalone="no"?>
<!DOCTYPE svg PUBLIC "-//W3C//DTD SVG 1.1//EN" "http://www.w3.org/Graphics/SVG/1.1/DTD/svg11.dtd" >
<svg xmlns="http://www.w3.org/2000/svg" xmlns:xlink="http://www.w3.org/1999/xlink" version="1.1">
<metadata>
Created by FontForge 20170731 at Fri May  5 14:18:33 2017
 By Aleksey,,,
Copyright 2015 The Arima Project Authors (info@ndiscovered.com)
</metadata>
<defs>
<font id="ArimaMadurai-Light" horiz-adv-x="0" >
  <font-face 
    font-family="Arima Madurai Light"
    font-weight="300"
    font-stretch="normal"
    units-per-em="1000"
    panose-1="0 0 4 0 0 0 0 0 0 0"
    ascent="800"
    descent="-200"
    x-height="508"
    cap-height="699"
    bbox="-457 -400 2429 990"
    underline-thickness="50"
    underline-position="-150"
    unicode-range="U+0020-FB02"
  />
<missing-glyph horiz-adv-x="600" 
d="M492 -400h-380v1200h380v-1200zM202 720v-40h78v-44h-80v-40h200v40h-80v44h80v40h-198zM200 565v-125h200v41h-80v84h-120zM280 481h-40v43h40v-43zM200 408v-40h80v-44h-80v-40h120v84h80v40h-200zM360 336v-80h-160v-40h200v120h-40zM280 189v-67h40v28h40v-57h-120
v96h-40v-135h200v135h-120zM200 -18v-136h200v136h-200zM360 -114h-120v56h120v-56zM200 -182v-39h84l-84 -57v-39h200v39h-123l84 57h39v39h-200z" />
    <glyph glyph-name="fi" unicode="fi" horiz-adv-x="576" 
d="M410 590q20 22 20 52q0 35 -34.5 51t-85.5 16q-60 0 -91.5 -22.5t-42 -61.5t-10.5 -100v-21h80q13 0 31.5 1t31.5 2l-1 -19q-1 -9 -5.5 -14t-12.5 -5h-124v-366q0 -68 9 -99q-14 -14 -34 -14q-15 0 -24 9.5t-9 25.5l-1 444h-18q-41 0 -60 -3l1 19q1 9 6 14t12 5h59v30
q0 88 42.5 147.5t159.5 59.5q78 0 127 -24.5t49 -70.5q0 -27 -17 -45t-37 -18q-14 0 -21 7zM496 4q-16 -14 -35 -14q-15 0 -24 9.5t-9 25.5l-1 380q0 65 -10 98q14 14 34 14q15 0 24 -9t9 -26l2 -379q0 -69 10 -99z" />
    <glyph glyph-name="fl" unicode="fl" horiz-adv-x="607" 
d="M580 34q0 -20 -19 -32t-45 -12q-39 0 -61.5 26t-22.5 73v492q0 69 -35.5 98.5t-99.5 29.5q-55 0 -83.5 -19.5t-38 -52t-9.5 -81.5v-52h80l60 3l-1 -19q-1 -9 -5.5 -14t-11.5 -5h-122v-366q0 -68 9 -99q-14 -14 -34 -14q-15 0 -24 9.5t-9 25.5l-1 444h-18q-41 0 -60 -3
l1 19q1 9 6 14t12 5h59v61q0 77 41.5 126.5t145.5 49.5q96 0 146.5 -40.5t50.5 -111.5v-498q0 -53 39 -53q12 0 23 6t17 17q10 -11 10 -27z" />
    <glyph glyph-name=".notdef" horiz-adv-x="600" 
d="M492 -400h-380v1200h380v-1200zM202 720v-40h78v-44h-80v-40h200v40h-80v44h80v40h-198zM200 565v-125h200v41h-80v84h-120zM280 481h-40v43h40v-43zM200 408v-40h80v-44h-80v-40h120v84h80v40h-200zM360 336v-80h-160v-40h200v120h-40zM280 189v-67h40v28h40v-57h-120
v96h-40v-135h200v135h-120zM200 -18v-136h200v136h-200zM360 -114h-120v56h120v-56zM200 -182v-39h84l-84 -57v-39h200v39h-123l84 57h39v39h-200z" />
    <glyph glyph-name=".null" 
 />
    <glyph glyph-name="nonmarkingreturn" horiz-adv-x="333" 
 />
    <glyph glyph-name="space" unicode=" " horiz-adv-x="222" 
 />
    <glyph glyph-name="exclam" unicode="!" horiz-adv-x="285" 
d="M120 174h47l11 544q-14 5 -35 5t-36 -5zM110 0.5q-13 13.5 -13 32.5t13 32.5t32 13.5t32.5 -13.5t13.5 -32.5t-13.5 -32.5t-32.5 -13.5t-32 13.5z" />
    <glyph glyph-name="quotedbl" unicode="&#x22;" horiz-adv-x="252" 
d="M166 589h32l14 137q-13 5 -29 5q-14 0 -29 -5zM52 589h32l14 137q-13 5 -29 5q-14 0 -29 -5z" />
    <glyph glyph-name="numbersign" unicode="#" horiz-adv-x="662" 
d="M466 424l-29 -160h172l-6 -40h-173l-41 -224h-47l41 224h-153l-41 -224h-47l41 224h-163l6 40h164l29 160h-167l6 40h169l41 227h47l-41 -227h153l41 227h47l-41 -227h167l-6 -40h-169zM419 424h-153l-29 -160h153z" />
    <glyph glyph-name="dollar" unicode="$" horiz-adv-x="550" 
d="M451 44q-47 -50 -151 -56q2 -49 6 -70q-8 -8 -18 -8q-17 0 -17 22v55q-106 1 -160 43.5t-54 107.5q0 26 10.5 39.5t36.5 13.5l12 -1q-4 -16 -4 -39q2 -61 44.5 -94.5t114.5 -35.5l-1 312q0 1 -0.5 1h-0.5q-67 37 -104.5 64t-60 62.5t-22.5 84.5q0 75 52 114.5t135 43.5
q-2 47 -6 66q8 8 18 8q17 0 17 -22v-52q82 -3 131 -36.5t49 -89.5q0 -17 -6.5 -26.5t-22.5 -13.5q-8 -2 -13 -2q-3 0 -15 2q3 11 3 21q0 9 -1 14q-2 43 -36 68t-89 29l1 -279l4 -2q65 -35 106 -65.5t65 -69.5t24 -90q0 -69 -47 -119zM172.5 476q32.5 -34 97.5 -70l-1 264
q-56 -3 -92.5 -28.5t-36.5 -79.5q0 -52 32.5 -86zM401 59.5q37 32.5 37 90.5q0 54 -32.5 89.5t-106.5 77.5l1 -295q64 5 101 37.5z" />
    <glyph glyph-name="percent" unicode="%" horiz-adv-x="997" 
d="M697 704q10 0 17.5 -5t10.5 -14l-418 -698q-24 -1 -35 17l417 699q3 1 8 1zM89 363.5q-42 48.5 -42 146.5q0 96 42.5 144.5t122.5 48.5q81 0 123 -48t42 -145q0 -195 -165 -195q-81 0 -123 48.5zM324 510q0 168 -111 168q-112 0 -112 -168q0 -170 112 -170q111 0 111 170
zM662 39.5q-42 48.5 -42 146.5q0 97 42 145.5t123 48.5t123 -48.5t42 -145.5q0 -195 -165 -195q-81 0 -123 48.5zM897 186q0 168 -111 168q-56 0 -84 -41t-28 -127t28 -127.5t84 -41.5q111 0 111 169z" />
    <glyph glyph-name="ampersand" unicode="&#x26;" horiz-adv-x="824" 
d="M779 605q11 -8 11 -22q0 -12 -12 -29q-40 -60 -95 -116q18 -61 18 -122q0 -96 -43.5 -171.5t-118.5 -117.5t-166 -42q-94 0 -164 41.5t-107 111t-37 150.5q0 68 28 120.5t77 81t109 28.5q74 0 113 -42t39 -101q0 -50 -27 -87t-76 -70q65 34 146 97t153 137
q-35 90 -103 146.5t-153 52.5q0 23 12 34t41 11q75 0 138.5 -57.5t101.5 -146.5q60 71 90 121q14 0 25 -8zM514 56.5q63 35.5 101 102t38 154.5q0 39 -10 86q-91 -83 -200 -146t-198 -90l-6 26q73 46 107 84.5t34 94.5q0 49 -26.5 81.5t-77.5 32.5q-39 0 -72.5 -22
t-53.5 -64.5t-20 -101.5q0 -71 29.5 -133.5t85.5 -101t133 -38.5q73 0 136 35.5z" />
    <glyph glyph-name="quotesingle" unicode="'" horiz-adv-x="138" 
d="M52 589h32l14 137q-13 5 -29 5q-14 0 -29 -5z" />
    <glyph glyph-name="parenleft" unicode="(" horiz-adv-x="417" 
d="M255.5 -121q-56.5 51 -98 154.5t-41.5 253.5t42 254t98 155t97 51q15 0 19.5 -5.5t4.5 -14.5q-58 -26 -103.5 -90t-71 -155t-25.5 -195q0 -103 26 -194.5t71.5 -155.5t102.5 -88q0 -10 -4.5 -15.5t-19.5 -5.5q-41 0 -97.5 51z" />
    <glyph glyph-name="parenright" unicode=")" horiz-adv-x="417" 
d="M44.5 -166.5q-4.5 5.5 -4.5 15.5q57 24 102.5 87.5t71.5 155t26 195.5q0 105 -25.5 196t-70.5 154.5t-104 89.5q0 9 4.5 14.5t19.5 5.5q41 0 97.5 -51t98.5 -155t42 -254t-42 -253.5t-98.5 -154.5t-97.5 -51q-15 0 -19.5 5.5z" />
    <glyph glyph-name="asterisk" unicode="*" horiz-adv-x="509" 
d="M332 477q-14 -29 -20 -54q44 -13 72 -40.5t28 -56.5q0 -22 -17 -37.5t-40 -15.5q-35 0 -56 34.5t-21 77.5q0 13 1 19q-16 2 -25 2l-23 -1v-6q0 -50 -24 -89.5t-63 -39.5q-22 0 -38 14.5t-16 37.5q0 33 31 62t79 41q-5 32 -16 55q-32 -12 -64 -12q-37 0 -61.5 16.5
t-24.5 46.5q0 22 14.5 38.5t42.5 16.5q30 0 57.5 -20t48.5 -52q21 11 42 29q-43 49 -43 101q0 29 15 45t45 16t44.5 -16.5t14.5 -45.5q0 -52 -40 -98q22 -22 45 -34q21 33 47.5 52.5t53.5 19.5q25 0 39 -16t14 -40q0 -30 -22 -46t-58 -16q-32 0 -62 12zM228 645
q0 -40 31 -81q31 39 31 77q0 18 -8.5 28.5t-24.5 10.5q-29 0 -29 -35zM172 502q-16 26 -36 42t-40 16q-14 0 -22 -8.5t-8 -21.5q0 -19 14.5 -28t39.5 -9q26 0 52 9zM381 540.5q-20 -15.5 -36 -41.5q24 -9 50 -9q24 0 38.5 9t14.5 27q0 13 -7.5 21.5t-20.5 8.5
q-19 0 -39 -15.5zM306 489q-25 12 -50 36q-20 -19 -47 -33q15 -33 19 -62q9 1 25 1q12 0 30 -2q8 31 23 60zM186.5 328q15.5 32 15.5 70q-35 -11 -58.5 -31.5t-23.5 -42.5q0 -12 8 -20t19 -8q24 0 39.5 32zM364 366.5q-22 20.5 -56 31.5q-1 -5 -1 -13q0 -31 12.5 -58
t36.5 -27q12 0 21 7.5t9 19.5q0 19 -22 39.5z" />
    <glyph glyph-name="plus" unicode="+" horiz-adv-x="555" 
d="M478 351q0 -12 -4 -21h-176v-176q-9 -3 -19 -3q-13 0 -22 4v175h-176q-4 14 -4 21t4 21h175v176q12 5 21 5t21 -5v-176h176q4 -9 4 -21z" />
    <glyph glyph-name="comma" unicode="," horiz-adv-x="258" 
d="M89 -79q29 32 29 63q0 22 -10.5 32.5t-27.5 16.5q0 16 13 31t35 15q20 0 35 -13.5t15 -46.5q0 -60 -64 -114q-13 2 -25 16z" />
    <glyph glyph-name="hyphen" unicode="-" horiz-adv-x="399" 
d="M345 278v-42h-292v42h292z" />
    <glyph glyph-name="period" unicode="." horiz-adv-x="251" 
d="M93.5 0.5q-13.5 13.5 -13.5 32.5t13.5 32.5t32.5 13.5t32 -13.5t13 -32.5t-13 -32.5t-32 -13.5t-32.5 13.5z" />
    <glyph glyph-name="slash" unicode="/" horiz-adv-x="422" 
d="M6 -142l323 873h61l-324 -873h-60z" />
    <glyph glyph-name="zero" unicode="0" horiz-adv-x="617" 
d="M130.5 76q-61.5 89 -61.5 269t61 269t178 89t178 -89t61 -269t-61.5 -269t-177.5 -89t-177.5 89zM482 345q0 325 -174 325t-174 -325q0 -324 174 -324t174 324z" />
    <glyph glyph-name="one" unicode="1" horiz-adv-x="414" 
d="M291 4q-14 -14 -35 -14q-15 0 -24 9.5t-9 25.5l-1 559q0 32 -3 54q-40 -39 -89.5 -77t-64.5 -38t-21 7.5t-6.5 16.5t-0.5 15q8 2 80 52.5t104 75.5q16 7 25 7q15 0 24 -9.5t9 -25.5l2 -559q0 -69 10 -99z" />
    <glyph glyph-name="two" unicode="2" horiz-adv-x="541" 
d="M48 30q0 7 1 11q18 15 19 16q110 90 178 154t115.5 139.5t47.5 153.5q0 72 -39 119.5t-113 47.5q-50 0 -82 -23.5t-46 -55.5t-16 -60q-24 0 -35.5 11.5t-11.5 29.5q0 28 23.5 58.5t68 51t103.5 20.5q89 0 150 -49.5t61 -147.5q0 -92 -55.5 -176.5t-132 -150.5
t-184.5 -142q145 1 401 21q6 -3 9 -11.5t3 -18.5q0 -11 -3.5 -19t-10.5 -9h-438q-13 7 -13 30z" />
    <glyph glyph-name="three" unicode="3" horiz-adv-x="548" 
d="M126.5 11q-47.5 23 -67 52t-19.5 50q0 16 10.5 26.5t32.5 10.5q21 -130 168 -130q84 0 129.5 42.5t45.5 115.5q0 89 -69 129.5t-177 43.5l1 33q104 2 162.5 46t58.5 113q0 56 -36.5 92t-105.5 36q-76 0 -111 -41t-39 -88q-23 0 -33.5 9.5t-10.5 24.5q0 26 22 55.5
t67.5 50.5t110.5 21q84 0 143 -38t59 -123q0 -67 -43.5 -111t-122.5 -62q89 -17 139.5 -61t50.5 -125q0 -93 -65 -144t-173 -51q-80 0 -127.5 23z" />
    <glyph glyph-name="four" unicode="4" horiz-adv-x="589" 
d="M557 214q0 -16 -9 -24h-96v-87q0 -69 10 -99q-14 -14 -34 -14q-15 0 -24.5 9.5t-9.5 25.5l-1 165h-340q-15 8 -15 25q0 11 6 18l339 450q4 6 13.5 10.5t20.5 4.5q15 0 24 -9.5t9 -25.5l2 -434q48 1 98 9q7 -10 7 -24zM393 229l-1 401l-301 -401h302z" />
    <glyph glyph-name="five" unicode="5" horiz-adv-x="557" 
d="M160.5 9q-44.5 21 -68.5 52.5t-24 63.5q0 17 12.5 27t31.5 9q2 -28 17 -60t48 -55.5t84 -23.5q89 0 131 50.5t42 143.5q0 84 -45 130.5t-121 46.5q-44 0 -78 -10.5t-74 -26.5q-20 0 -20 21l13 286q0 12 8.5 19.5t20.5 7.5q220 0 316 5q3 -6 3 -15q0 -10 -4.5 -21
t-11.5 -18q-190 0 -284 3l-12 -245q41 15 71 22t69 7q98 0 156 -56t58 -151q0 -122 -66 -177.5t-169 -55.5q-59 0 -103.5 21z" />
    <glyph glyph-name="six" unicode="6" horiz-adv-x="575" 
d="M464 374q55 -53 55 -153q0 -106 -58 -169.5t-159 -63.5q-102 0 -167.5 71.5t-65.5 244.5q0 207 64 303t196 96q33 0 66.5 -9.5t55.5 -25t22 -32.5q0 -11 -8.5 -20.5t-15.5 -9.5q-30 35 -59.5 49t-60.5 14q-113 0 -154 -97.5t-43 -246.5q30 44 78 73t111 29q88 0 143 -53z
M417.5 79q37.5 59 37.5 143q0 79 -37.5 124.5t-104.5 45.5q-60 0 -107.5 -35t-72.5 -91q6 -113 47 -179.5t123 -66.5q77 0 114.5 59z" />
    <glyph glyph-name="seven" unicode="7" horiz-adv-x="503" 
d="M210 -4q-17 0 -30 5q2 86 33.5 214.5t81.5 248t105 181.5q-117 -5 -353 -5q-9 8 -9 30q0 16 6 23q65 -2 192 -2h214q5 -2 8 -9t3 -15q0 -13 -8 -24q-60 -76 -109.5 -196.5t-77.5 -243t-28 -203.5q-12 -4 -28 -4z" />
    <glyph glyph-name="eight" unicode="8" horiz-adv-x="589" 
d="M479 275q50 -48 50 -113q0 -44 -23.5 -83.5t-76 -65.5t-136.5 -26t-135.5 26t-73.5 65.5t-22 82.5q0 71 52 126t132 75q-74 34 -116 77t-42 108q0 36 20.5 71.5t66 60t116.5 24.5q68 0 114.5 -21t69.5 -56t23 -77q0 -60 -42 -108t-117 -72q90 -46 140 -94zM168 479
q18 -28 49 -47.5t85 -44.5l7 -3q67 34 97 77t30 89q0 54 -40 88t-103 34q-60 0 -101.5 -32t-41.5 -92q0 -41 18 -69zM379 34q39 17 62.5 48t23.5 73q0 64 -50 107.5t-137 84.5q-61 -25 -106.5 -68.5t-45.5 -113.5q0 -72 49.5 -110t118.5 -38q46 0 85 17z" />
    <glyph glyph-name="nine" unicode="9" horiz-adv-x="579" 
d="M509 387q0 -145 -28 -233t-83.5 -127.5t-142.5 -39.5q-61 0 -105.5 20t-58.5 49q-3 6 -3 13q0 12 8.5 21.5t17.5 9.5q35 -44 70 -61t71 -17q78 0 119.5 48.5t56 122t15.5 172.5q-30 -44 -76 -72.5t-107 -28.5q-86 0 -140 55.5t-54 158.5t56.5 164t156.5 61
q227 0 227 -316zM375 334.5q46 34.5 70 90.5q-9 247 -165 247q-75 0 -112 -57t-37 -137q0 -83 37 -130.5t103 -47.5q58 0 104 34.5z" />
    <glyph glyph-name="colon" unicode=":" horiz-adv-x="243" 
d="M89.5 346.5q-13.5 13.5 -13.5 32.5t13.5 32.5t32.5 13.5t32 -13.5t13 -32.5t-13 -32.5t-32 -13.5t-32.5 13.5zM89.5 0.5q-13.5 13.5 -13.5 32.5t13.5 32.5t32.5 13.5t32 -13.5t13 -32.5t-13 -32.5t-32 -13.5t-32.5 13.5z" />
    <glyph glyph-name="semicolon" unicode=";" horiz-adv-x="250" 
d="M96.5 346.5q-13.5 13.5 -13.5 32.5t13.5 32.5t32.5 13.5t32 -13.5t13 -32.5t-13 -32.5t-32 -13.5t-32.5 13.5zM85 -79q29 32 29 63q0 22 -10.5 32.5t-27.5 16.5q0 16 13 31t35 15q20 0 35 -13.5t15 -46.5q0 -60 -64 -114q-13 2 -25 16z" />
    <glyph glyph-name="less" unicode="&#x3c;" horiz-adv-x="483" 
d="M38 351q0 5 4 11l364 173q8 5 14.5 -2.5t6.5 -20.5q0 -10 -2 -16l-326 -145l326 -145q2 -12 2 -16q0 -13 -6 -20t-15 -3l-364 173q-4 8 -4 11z" />
    <glyph glyph-name="equal" unicode="=" horiz-adv-x="553" 
d="M473 473q4 -9 4 -21q0 -11 -4 -20h-393q-4 9 -4 20q0 12 4 21h393zM473 267q4 -9 4 -21t-4 -21h-393q-4 9 -4 21t4 21h393z" />
    <glyph glyph-name="greater" unicode="&#x3e;" horiz-adv-x="484" 
d="M77 167q-8 -4 -14.5 3t-6.5 21q0 5 2 15l326 145l-326 145q-2 10 -2 14q0 15 6.5 22.5t14.5 2.5l364 -173q4 -4 4 -11q0 -6 -4 -11z" />
    <glyph glyph-name="question" unicode="?" horiz-adv-x="497" 
d="M173 322q47 1 96 23.5t82.5 67t33.5 107.5q0 79 -43.5 128t-127.5 49q-50 0 -82 -22t-46 -52t-16 -57q-47 0 -47 36q0 28 23.5 58t68 50.5t105.5 20.5q96 0 162 -51t66 -157q0 -66 -30.5 -116.5t-82.5 -81t-114 -38.5v-114h-48v149zM149.5 0.5q-13.5 13.5 -13.5 32.5
t13.5 32.5t32.5 13.5t32.5 -13.5t13.5 -32.5t-13.5 -32.5t-32.5 -13.5t-32.5 13.5z" />
    <glyph glyph-name="at" unicode="@" horiz-adv-x="846" 
d="M637.5 586.5q75.5 -55.5 106.5 -137.5t31 -169q0 -80 -21 -134.5t-53.5 -81t-69.5 -26.5t-64 26.5t-27 69.5l1 24q-45 -107 -142 -107q-85 0 -113 57.5t-28 130.5q0 111 45.5 174t131.5 63t121.5 -51.5t35.5 -121.5l-1 -153q0 -34 12 -55t36 -21q40 0 67.5 53.5
t27.5 157.5q0 78 -26.5 150.5t-92 121.5t-174.5 49q-106 0 -177 -47.5t-104.5 -125.5t-33.5 -170q0 -100 36 -174t93.5 -113t117.5 -39q12 0 18 1q5 -8 5 -15q0 -10 -12 -15.5t-35 -5.5q-56 0 -121.5 39.5t-112 120.5t-46.5 197q0 99 39.5 186.5t123 142t207.5 54.5
q123 0 198.5 -55.5zM471 110q32 28 49.5 77.5t17.5 111.5q0 64 -23 104.5t-85 40.5q-67 0 -102 -51t-35 -153q0 -158 105 -158q41 0 73 28z" />
    <glyph glyph-name="A" unicode="A" horiz-adv-x="580" 
d="M568 5q-13 -15 -34 -15q-15 0 -25.5 6.5t-13.5 18.5l-68 211h-277l-58 -183q-6 -16 -6 -28q0 -13 5 -19q-15 -6 -33 -6q-34 0 -34 29q0 7 3.5 19t4.5 18l219 637q25 11 47 11q31 0 39 -25l210 -634q9 -25 21 -40zM414 265l-127 395l-125 -395h252z" />
    <glyph glyph-name="B" unicode="B" horiz-adv-x="571" 
d="M505 184q0 -103 -68.5 -143.5t-209.5 -40.5h-90q-16 0 -25.5 9.5t-10.5 25.5v552q0 19 -2.5 50.5t-7.5 47.5q33 18 126 18q128 0 190.5 -40t62.5 -129q0 -63 -31 -107.5t-91 -63.5q157 -26 157 -179zM161 670v-293h97q65 -1 107 38.5t42 115.5q0 75 -46 108.5t-150 33.5
q-35 0 -50 -3zM389 66.5q52 33.5 52 117.5q0 90 -52.5 125.5t-155.5 35.5h-72v-312h72q104 0 156 33.5z" />
    <glyph glyph-name="C" unicode="C" horiz-adv-x="588" 
d="M131.5 79q-67.5 92 -67.5 266t68 266t193 92q52 0 95 -13t68.5 -34.5t25.5 -45.5q0 -15 -13.5 -25t-34.5 -7q-8 44 -45.5 68t-95.5 24q-95 0 -145.5 -82.5t-50.5 -242.5q0 -159 50.5 -241.5t144.5 -82.5q57 0 103 31t58 85q21 2 35 -5.5t14 -24.5q0 -29 -29.5 -57
t-78.5 -45.5t-104 -17.5q-123 0 -190.5 92z" />
    <glyph glyph-name="D" unicode="D" horiz-adv-x="636" 
d="M110 9q-9 9 -9 26l-2 552q0 82 -8 109q79 6 202 6q136 0 207.5 -88t71.5 -266q0 -180 -70.5 -264t-206.5 -84h-160q-16 0 -25 9zM293 33q106 0 160 74t54 238q0 324 -214 324h-135l1 -636h134z" />
    <glyph glyph-name="E" unicode="E" horiz-adv-x="531" 
d="M464.5 41.5q3.5 -8.5 3.5 -18.5q0 -23 -15 -23h-317q-15 0 -24.5 9.5t-9.5 25.5l-1 547q0 60 -10 93q9 9 19.5 12.5t27.5 3.5h307q12 0 12 -17q0 -11 -5 -21.5t-13 -13.5q-160 14 -280 15l1 -269h257q3 -9 3 -20q0 -10 -3 -19h-257l1 -310q121 1 294 17q6 -3 9.5 -11.5z
" />
    <glyph glyph-name="F" unicode="F" horiz-adv-x="513" 
d="M457 674q0 -11 -5 -21.5t-13 -13.5q-160 14 -280 15l1 -275h256q3 -10 3 -19q0 -11 -3 -20h-256l1 -237q0 -69 10 -99q-14 -14 -35 -14q-15 0 -24.5 9.5t-9.5 25.5l-1 557q0 60 -10 93q9 9 19.5 12.5t27.5 3.5h307q12 0 12 -17z" />
    <glyph glyph-name="G" unicode="G" horiz-adv-x="614" 
d="M132.5 78.5q-68.5 91.5 -68.5 266.5q0 174 69.5 266t197.5 92q49 0 92 -13t68.5 -34.5t25.5 -43.5q0 -17 -13 -27t-35 -7q-8 43 -45 67.5t-91 24.5q-101 0 -152.5 -82t-51.5 -243t51.5 -242.5t153.5 -81.5q93 0 126.5 60.5t33.5 139.5q0 128 -80 137q2 13 13.5 20t28.5 7
q42 0 70 -37t28 -119q0 -60 -20.5 -114.5t-70 -91t-131.5 -36.5q-131 0 -199.5 91.5z" />
    <glyph glyph-name="H" unicode="H" horiz-adv-x="673" 
d="M582 4q-14 -14 -35 -14q-15 0 -24.5 9.5t-9.5 25.5l-1 322h-351v-244q0 -69 10 -99q-14 -14 -35 -14q-15 0 -24.5 9.5t-9.5 25.5l-1 562q0 65 -10 98q14 14 34 14q16 0 26 -9.5t10 -25.5v-278h351v201q0 65 -10 98q14 14 35 14q15 0 25 -9.5t10 -25.5v-561q0 -69 10 -99z
" />
    <glyph glyph-name="I" unicode="I" horiz-adv-x="261" 
d="M111.5 -0.5q-9.5 9.5 -9.5 25.5l-1 562q0 65 -10 98q14 14 34 14q16 0 26 -9.5t10 -25.5v-561q0 -69 10 -99q-14 -14 -35 -14q-15 0 -24.5 9.5z" />
    <glyph glyph-name="J" unicode="J" horiz-adv-x="441" 
d="M84 18q-35 31 -35 76q0 19 10 33t30 14q12 0 18 -8q-6 -18 -6 -33q0 -39 25 -59t57 -20q59 0 80.5 37t21.5 111v453q0 32 3 46q-20 -1 -45.5 0.5t-36.5 1.5q-20 2 -30 2q-21 2 -36 -6t-15 -32q0 -30 28 -46q-9 -8 -28 -8q-20 0 -34.5 16.5t-14.5 43.5t20 45t56 18
q20 0 53 -3l70 -3q26 0 74 5q-4 -27 -4 -70v-461q0 -184 -160 -184q-66 0 -101 31z" />
    <glyph glyph-name="K" unicode="K" horiz-adv-x="572" 
d="M555 31q0 -18 -17 -30t-38 -12q-28 0 -49.5 22.5t-32.5 56.5l-47 151q-14 36 -30 58.5t-52 37t-100 14.5h-29l1 -226q0 -69 10 -99q-14 -14 -35 -14q-15 0 -24.5 9.5t-9.5 25.5l-1 562q0 65 -10 98q14 14 34 14q16 0 25 -9.5t9 -25.5l1 -302q22 0 31 1q70 5 121.5 44.5
t78 96t26.5 110.5q0 47 -18 75q17 12 30 12q19 0 33.5 -20t14.5 -64q0 -81 -47.5 -155t-144.5 -110q59 -9 91.5 -39.5t49.5 -80.5l49 -145q10 -27 20 -37.5t23 -11.5q21 0 31 14q6 -10 6 -21z" />
    <glyph glyph-name="L" unicode="L" horiz-adv-x="470" 
d="M161 38q107 1 267 17q6 -3 9 -11.5t3 -18.5q0 -25 -15 -25h-289q-15 0 -24.5 9.5t-9.5 25.5l-1 552q0 65 -10 98q14 14 34 14q16 0 25 -9.5t9 -25.5z" />
    <glyph glyph-name="M" unicode="M" horiz-adv-x="850" 
d="M760 4q-16 -14 -35 -14q-15 0 -24 9.5t-9 25.5l-2 585l-238 -490q-15 -7 -32 -7q-13 0 -25 6q-97 175 -255 486l1 -502q0 -69 10 -102q-11 -11 -26 -11q-24 0 -24 31l-1 567q0 67 -6 101q10 10 38 10q20 0 30 -13q151 -292 268 -514q75 155 126 266q28 59 58.5 123
t63.5 132q14 6 34 6q15 0 25 -6.5t11 -16.5l2 -573q0 -69 10 -99z" />
    <glyph glyph-name="N" unicode="N" horiz-adv-x="677" 
d="M92 1q10 30 10 102l-1 477q0 77 -7 109q9 8 29 8q16 0 21 -5q76 -111 200 -301t195 -304l-11 518q-1 32 2 55.5t11 32.5q7 3 18 3q7 0 11 -1q8 -22 8 -51l1 -542q0 -78 3 -101q-4 -4 -12 -6.5t-17 -2.5q-10 0 -14 2q-123 156 -397 599l10 -565q1 -17 -8.5 -27.5
t-22.5 -10.5q-16 0 -29 11z" />
    <glyph glyph-name="O" unicode="O" horiz-adv-x="646" 
d="M130.5 76q-66.5 89 -66.5 269t66.5 269t192.5 89t192.5 -89t66.5 -269t-66.5 -269t-192.5 -89t-192.5 89zM517 345q0 325 -194 325t-194 -325q0 -324 194 -324t194 324z" />
    <glyph glyph-name="P" unicode="P" horiz-adv-x="549" 
d="M428 653.5q68 -49.5 68 -152.5q0 -113 -76 -167.5t-230 -54.5h-29v-178q0 -20 2.5 -50.5t7.5 -46.5q-14 -14 -34 -14q-16 0 -25.5 9.5t-10.5 25.5v562q0 19 -2.5 50.5t-7.5 47.5q33 18 124 18q145 0 213 -49.5zM374 356q57 46 57 141q0 90 -52.5 132t-168.5 42
q-40 0 -49 -3v-358h35q121 0 178 46z" />
    <glyph glyph-name="Q" unicode="Q" horiz-adv-x="648" 
d="M370.5 -108q-63.5 35 -145.5 97q-12 10 -18 14q-70 52 -106.5 135t-36.5 207q0 180 67 269t193 89t193 -89t67 -269q0 -177 -68.5 -267.5t-191.5 -90.5q-30 0 -51 6q113 -87 197 -87q48 0 78.5 20.5t29.5 56.5q18 1 29.5 -10.5t11.5 -27.5q0 -40 -32.5 -64t-88.5 -24
q-64 0 -127.5 35zM517 346q0 324 -193 324t-193 -331q0 -158 48.5 -238t143.5 -80q194 0 194 325z" />
    <glyph glyph-name="R" unicode="R" horiz-adv-x="588" 
d="M572 33q0 -20 -17.5 -31.5t-35.5 -11.5q-29 0 -48.5 20t-34.5 60l-53 134q-14 35 -25.5 54t-37 32.5t-70.5 13.5h-89v-203q0 -20 2.5 -50.5t7.5 -46.5q-14 -14 -34 -14q-16 0 -25.5 9.5t-10.5 25.5v562q0 19 -2.5 50.5t-7.5 47.5q33 18 130 18q143 0 208 -44.5t65 -146.5
q0 -71 -40.5 -121t-107.5 -68q33 -10 54 -36.5t40 -70.5l52 -128q11 -27 21 -37.5t23 -11.5q20 0 30 15q6 -10 6 -21zM252 336q49 1 90 21.5t64.5 59t23.5 89.5q0 88 -49 127t-159 39q-45 0 -61 -4v-331q24 -1 91 -1z" />
    <glyph glyph-name="S" unicode="S" horiz-adv-x="550" 
d="M111.5 29.5q-54.5 42.5 -54.5 108.5q0 26 10.5 39.5t36.5 13.5l12 -1q-4 -16 -4 -39q2 -62 47 -96t120 -34q73 0 116 33t43 96q0 40 -18.5 70t-53 55t-97.5 59q-67 37 -104.5 64t-60 62.5t-22.5 84.5q0 79 57 118.5t146 39.5q87 0 140 -34t53 -92q0 -17 -6.5 -26.5
t-22.5 -13.5q-8 -2 -13 -2q-3 0 -15 2q3 11 3 21q0 9 -1 14q-2 47 -42 72.5t-102 25.5q-59 0 -99 -25.5t-40 -82.5q0 -41 21 -70.5t52.5 -50.5t89.5 -53q65 -35 106 -65.5t65 -69.5t24 -90q0 -73 -52.5 -124.5t-170.5 -51.5q-109 0 -163.5 42.5z" />
    <glyph glyph-name="T" unicode="T" horiz-adv-x="518" 
d="M500 674q0 -11 -5 -21.5t-13 -13.5l-42 5q-97 12 -151 14l1 -555q0 -69 10 -99q-16 -14 -35 -14q-16 0 -25 9.5t-9 25.5l-2 633q-55 -2 -152 -14l-40 -5q-8 3 -13 14t-5 22q0 16 11 16h458q12 0 12 -17z" />
    <glyph glyph-name="U" unicode="U" horiz-adv-x="651" 
d="M562 305q0 -157 -60 -237.5t-177 -80.5t-173.5 77.5t-56.5 240.5v282q0 68 -9 98q14 14 34 14q15 0 24.5 -9.5t9.5 -25.5v-361q0 -146 41.5 -214t129.5 -68q89 0 134 71.5t45 210.5v284q0 65 -10 98q14 14 34 14q15 0 24.5 -9.5t9.5 -25.5v-359z" />
    <glyph glyph-name="V" unicode="V" horiz-adv-x="569" 
d="M544 675q0 -11 -8 -37l-214 -637q-21 -11 -41 -11q-34 0 -41 23l-208 636q-7 23 -20 40q14 14 37 14q32 0 38 -24l200 -639l189 611q5 20 5 28q0 12 -4 19q11 5 31 5q37 0 36 -28z" />
    <glyph glyph-name="W" unicode="W" horiz-adv-x="907" 
d="M885 674q0 -7 -3.5 -19t-4.5 -18l-180 -636q-21 -11 -40 -11q-34 0 -40 23l-157 532l-162 -544q-22 -11 -40 -11q-36 0 -42 23l-173 636q-6 21 -21 40q16 14 37 14q15 0 25.5 -6t13.5 -18l166 -635l160 541q3 11 3 19q0 11 -4 19q18 10 40 10q21 0 29 -11l171 -578
l154 606q5 20 5 28q0 12 -4 19q11 5 31 5q37 0 36 -28z" />
    <glyph glyph-name="X" unicode="X" horiz-adv-x="592" 
d="M569.5 64.5q7.5 -9.5 7.5 -22.5q0 -20 -18.5 -35.5t-47.5 -15.5q-32 0 -54 19.5t-41 55.5l-128 240l-194 -294q-13 -19 -32 -19q-29 0 -33 38q14 6 29 22t36 47l171 249l-137 255q-12 20 -22.5 29.5t-23.5 9.5q-15 0 -22.5 -9t-6.5 -21q-12 3 -19.5 12.5t-7.5 22.5
q0 20 17 35t47 15q33 0 55.5 -19.5t40.5 -54.5l120 -225l176 284q12 19 32 19q29 0 33 -38q-30 -17 -66 -70l-155 -233l149 -275q11 -19 22 -29.5t25 -10.5t21.5 9.5t5.5 21.5q13 -3 20.5 -12.5z" />
    <glyph glyph-name="Y" unicode="Y" horiz-adv-x="536" 
d="M499 631l-201 -387l1 -141q0 -69 10 -99q-14 -14 -35 -14q-15 0 -24.5 9.5t-9.5 25.5v219l-6 10l-189 389q-8 16 -29 40q19 19 43 19q15 0 24.5 -7.5t16.5 -23.5l177 -380l168 353q10 21 10 32q0 15 -5 21q11 5 32 5q30 0 32 -32q0 -13 -15 -39z" />
    <glyph glyph-name="Z" unicode="Z" horiz-adv-x="565" 
d="M517 164q18 -30 18 -64q0 -45 -34 -73t-101 -28l-222 2q-67 2 -115 -7l-13 20q0 30 23 61l379 570l-262 -5q-43 -1 -64.5 -18.5t-21.5 -44.5q0 -19 8.5 -33t25.5 -27q-8 -3 -16 -3q-7 0 -16 3q-22 3 -37 27.5t-15 54.5q0 40 34.5 67t96.5 26l181 -2q56 0 82 1t43 6
l17 -18q0 -37 -20 -66l-381 -566l275 5q51 1 74.5 17.5t26.5 43.5q1 4 1 12q0 21 -9 38t-23 28q14 3 18 3q29 0 47 -30z" />
    <glyph glyph-name="bracketleft" unicode="[" horiz-adv-x="327" 
d="M232 732v-34h-80v-827h80v-34h-136v895h136z" />
    <glyph glyph-name="backslash" unicode="\" horiz-adv-x="437" 
d="M55 731h60l324 -873h-60z" />
    <glyph glyph-name="bracketright" unicode="]" horiz-adv-x="327" 
d="M208 -163h-136v34h80v827h-80v34h136v-895z" />
    <glyph glyph-name="asciicircum" unicode="^" horiz-adv-x="538" 
d="M87 271q-10 3 -11 7l171 161q14 2 24 2t20 -2l171 -161q-3 -4 -12.5 -7t-15.5 -3l-165 123l-165 -123q-7 0 -17 3z" />
    <glyph glyph-name="underscore" unicode="_" horiz-adv-x="377" 
d="M407 -69v-37l-437 2v37z" />
    <glyph glyph-name="grave" unicode="`" horiz-adv-x="600" 
d="M211.5 708q19.5 5 35.5 4l91 -145q-3 -3 -13 -5t-18 -1l-125 135q10 7 29.5 12z" />
    <glyph glyph-name="a" unicode="a" horiz-adv-x="543" 
d="M532 34q0 -19 -18 -31.5t-43 -12.5q-78 0 -78 107v55q-34 -76 -93.5 -119.5t-128.5 -43.5q-58 0 -90 31.5t-32 83.5q0 57 42.5 98t119.5 62q66 17 136 17q15 0 43 -2v26q0 91 -34 135.5t-109 44.5q-48 0 -82.5 -19.5t-34.5 -64.5q0 -22 12 -42.5t34 -27.5
q-13 -18 -39 -18q-29 0 -47.5 26t-18.5 59q0 59 48.5 89t134.5 30q100 0 148 -53t48 -162v-211q0 -53 37 -53q9 0 19 6t16 17q10 -11 10 -27zM283 64q46 32 76.5 83t31.5 105l-24 1q-38 0 -78.5 -5.5t-67.5 -15.5q-52 -17 -80 -47t-28 -71q0 -35 19.5 -58.5t60.5 -23.5
q44 0 90 32z" />
    <glyph glyph-name="b" unicode="b" horiz-adv-x="536" 
d="M164.5 3q-52.5 16 -84.5 52v639q0 17 9 26t24 9q21 0 37 -14q-5 -18 -7.5 -54.5t-2.5 -65.5l-1 -212q20 58 67 96t110 38q172 0 172 -241q0 -128 -53.5 -208.5t-164.5 -80.5q-53 0 -105.5 16zM426 276q0 202 -117 202q-60 0 -98 -39.5t-55 -97t-17 -113.5v-160
q14 -19 51 -32.5t75 -13.5q161 0 161 254z" />
    <glyph glyph-name="c" unicode="c" horiz-adv-x="503" 
d="M107 54q-59 67 -59 194q0 126 61 197.5t172 71.5q77 0 120.5 -34.5t43.5 -91.5q0 -33 -15.5 -53t-40.5 -20q-27 0 -39 18q18 4 26.5 19.5t8.5 39.5q0 45 -31.5 68t-79.5 23q-74 0 -118.5 -59.5t-44.5 -170.5q0 -118 48.5 -171t125.5 -53q57 0 98 27.5t54 82.5
q15 -5 15 -22q0 -9 -6 -26q-17 -52 -63 -79.5t-112 -27.5q-105 0 -164 67z" />
    <glyph glyph-name="d" unicode="d" horiz-adv-x="557" 
d="M526 29q0 -16 -15 -26.5t-38 -10.5q-71 0 -71 108v32q-25 -67 -71 -106t-114 -39q-97 0 -133 71.5t-36 168.5q0 137 54 213.5t154 76.5q54 0 91 -22.5t53 -64.5l-1 167q0 84 -10 118q14 14 35 14q16 0 25.5 -9t9.5 -26l-1 -603q0 -51 31 -51q19 0 27 17q10 -14 10 -28z
M319.5 63.5q38.5 35.5 59 96.5t20.5 136q0 77 -30.5 129.5t-107.5 52.5q-71 0 -110.5 -63t-39.5 -186q0 -86 24 -143.5t95 -57.5q51 0 89.5 35.5z" />
    <glyph glyph-name="e" unicode="e" horiz-adv-x="505" 
d="M453 102q0 -13 -6 -26q-18 -43 -64.5 -66t-108.5 -23q-107 0 -166.5 67t-59.5 194q0 126 60 197.5t172 71.5q79 0 126.5 -37t47.5 -104q0 -74 -60 -112.5t-171 -38.5q-56 0 -112 8q5 -107 52.5 -154t122.5 -47q56 0 97.5 23t55.5 68q14 -5 14 -21zM157 428
q-45 -57 -46 -165q39 -5 99 -7q181 0 181 126q0 55 -33 79t-81 24q-75 0 -120 -57z" />
    <glyph glyph-name="f" unicode="f" horiz-adv-x="381" 
d="M353.5 718.5q34.5 -22.5 34.5 -62.5q0 -29 -16.5 -47t-35.5 -18q-15 0 -21 7q19 25 19 54q0 57 -73 57q-57 0 -76 -41t-19 -112v-52h80q14 0 34.5 1t34.5 2l-1 -19q-1 -9 -5.5 -14t-11.5 -5h-131v-366q0 -68 9 -99q-14 -14 -34 -14q-15 0 -24 9.5t-9 25.5l-1 444h-18
q-41 0 -60 -3l1 19q1 9 6 14t12 5h59v61q0 75 33.5 125.5t122.5 50.5q56 0 90.5 -22.5z" />
    <glyph glyph-name="g" unicode="g" horiz-adv-x="534" 
d="M97.5 -204.5q-46.5 31.5 -46.5 90.5q0 31 15 50.5t37 19.5q21 0 31 -13q-27 -18 -27 -57q0 -45 30.5 -67.5t78.5 -22.5q94 0 137.5 63.5t43.5 192.5v66q-19 -59 -64 -92t-109 -33q-176 0 -176 255q0 110 47.5 189.5t174.5 79.5q53 0 103.5 -14.5t82.5 -51.5v-406
q0 -281 -242 -281q-70 0 -116.5 31.5zM358 97q38 66 39 151l1 193q-18 21 -53.5 32t-79.5 11q-90 0 -122 -69.5t-32 -172.5q0 -110 31 -160.5t95 -50.5q83 0 121 66z" />
    <glyph glyph-name="h" unicode="h" horiz-adv-x="559" 
d="M486 4q-14 -14 -34 -14q-15 0 -24 9.5t-9 25.5l-1 276q0 91 -27 135t-89 44q-37 0 -72.5 -23.5t-59 -76.5t-23.5 -136q0 -138 1.5 -177.5t8.5 -62.5q-14 -14 -34 -14q-15 0 -24.5 10t-9.5 27l-1 667q0 17 9.5 26t25.5 9q21 0 35 -14q-6 -18 -8 -45t-3 -79l-1 -196
q22 57 67.5 89.5t102.5 32.5q82 0 121 -53t39 -158l1 -203q0 -68 9 -99z" />
    <glyph glyph-name="i" unicode="i" horiz-adv-x="255" 
d="M91.5 621.5q-13.5 13.5 -13.5 32.5t13.5 32.5t32.5 13.5t32.5 -13.5t13.5 -32.5t-13.5 -32.5t-32.5 -13.5t-32.5 13.5zM168 4q-16 -14 -35 -14q-15 0 -24 9.5t-9 25.5l-1 380q0 65 -10 98q14 14 34 14q15 0 24 -9t9 -26l2 -379q0 -69 10 -99z" />
    <glyph glyph-name="j" unicode="j" horiz-adv-x="258" 
d="M99.5 636q-13.5 13 -13.5 32q0 18 13.5 31.5t31.5 13.5q19 0 32 -13.5t13 -31.5q0 -19 -13 -32t-32 -13q-18 0 -31.5 13zM-44 -213q-26 21 -26 56q0 16 9.5 28.5t27.5 12.5q11 0 16 -8q-6 -12 -6 -29q0 -27 16 -38t37 -11q44 0 59.5 37t15.5 109l1 460q0 69 -10 99
q14 14 34 14q15 0 24 -9.5t9 -25.5l1 -547q0 -72 -29 -120.5t-105 -48.5q-48 0 -74 21z" />
    <glyph glyph-name="k" unicode="k" horiz-adv-x="543" 
d="M511 33q0 -19 -17 -31t-38 -12t-39 13.5t-29 36.5l-94 177q-71 -26 -147 -45q0 -93 1.5 -119.5t9.5 -48.5q-9 -7 -16.5 -10.5t-19.5 -3.5q-33 0 -33 37l-1 667q0 17 9.5 26t25.5 9q22 0 34 -14q-5 -26 -7 -53t-3 -72l-1 -235q23 75 77 118.5t128 43.5q58 0 91 -30.5
t33 -84.5q0 -57 -39 -99t-99 -70q14 -8 28 -33l72 -127q9 -17 17 -24t20 -7q19 0 29 14q8 -9 8 -23zM343 283q72 44 72 116q0 41 -21.5 60t-58.5 19q-57 0 -99.5 -35t-65.5 -97t-23 -143q124 36 196 80z" />
    <glyph glyph-name="l" unicode="l" horiz-adv-x="262" 
d="M108.5 16q-22.5 26 -22.5 73v605q0 17 9.5 26t25.5 9q20 0 34 -14q-6 -20 -8 -62t-2 -133v-429q0 -53 39 -53q13 0 24 6t16 17q10 -11 10 -27q0 -20 -19 -32t-45 -12q-39 0 -61.5 26z" />
    <glyph glyph-name="m" unicode="m" horiz-adv-x="872" 
d="M800 4q-16 -14 -34 -14q-16 0 -25 9.5t-9 25.5l-1 276q0 90 -24 134.5t-84 44.5q-33 0 -65.5 -22t-55 -71.5t-24.5 -127.5l1 -156q0 -69 10 -99q-16 -14 -34 -14q-15 0 -24 9.5t-9 25.5l-1 276q0 92 -24.5 135.5t-84.5 43.5q-34 0 -67 -24t-54.5 -79t-21.5 -141
q0 -133 1.5 -171.5t8.5 -60.5q-14 -14 -34 -14q-15 0 -24.5 10t-9.5 27l-1 388q0 26 -9.5 39.5t-27.5 13.5q-11 0 -20 -6.5t-13 -17.5q-10 14 -10 27q0 20 16 32.5t39 12.5q37 0 58 -25.5t21 -73.5v-31q20 61 63 96t99 35q124 0 147 -133q18 62 62.5 97.5t102.5 35.5
q78 0 115 -53t37 -158v-203q0 -65 10 -99z" />
    <glyph glyph-name="n" unicode="n" horiz-adv-x="569" 
d="M497 4q-16 -14 -35 -14q-15 0 -25 9.5t-10 25.5v276q-1 90 -28 133.5t-89 43.5q-37 0 -72.5 -23t-59 -75.5t-23.5 -135.5q0 -138 1.5 -177.5t9.5 -62.5q-14 -14 -34 -14q-16 0 -25.5 10t-9.5 27v390q-1 28 -7.5 39.5t-21.5 11.5q-19 0 -27 -17q-11 16 -11 28q0 17 14 27
t38 10q69 0 69 -93v-32q22 60 68 93t106 33q161 0 161 -211v-203q2 -72 11 -99z" />
    <glyph glyph-name="o" unicode="o" horiz-adv-x="542" 
d="M106.5 57q-58.5 70 -58.5 195t58.5 195t164.5 70q105 0 164 -70t59 -195t-59 -195t-164 -70q-106 0 -164.5 70zM388.5 80.5q41.5 60.5 41.5 171.5t-41.5 171.5t-117.5 60.5q-77 0 -118.5 -60.5t-41.5 -171.5t41.5 -171.5t118.5 -60.5q76 0 117.5 60.5z" />
    <glyph glyph-name="p" unicode="p" horiz-adv-x="555" 
d="M471 445q36 -72 36 -167q0 -137 -54.5 -214t-154.5 -77q-53 0 -90 23t-53 65v-151q0 -36 2.5 -76t7.5 -59q-14 -14 -34 -14q-16 0 -25.5 9.5t-9.5 25.5l1 606q0 28 -6.5 39t-22.5 11q-19 0 -27 -16q-11 16 -11 28q0 16 14.5 26t37.5 10q71 0 71 -107v-33q25 66 71 104.5
t113 38.5q98 0 134 -72zM403.5 90q40.5 63 40.5 187q0 84 -24 142t-95 58q-52 0 -90 -35.5t-58.5 -95.5t-20.5 -134q0 -82 28.5 -133.5t102.5 -51.5q76 0 116.5 63z" />
    <glyph glyph-name="q" unicode="q" horiz-adv-x="537" 
d="M387 -213q7 22 8.5 58t1.5 105v175q-19 -61 -66.5 -100t-109.5 -39q-84 0 -128.5 62.5t-44.5 189.5q0 67 20 130t68 106t126 43q63 0 115 -18.5t80 -48.5v-642q0 -17 -9.5 -26t-26.5 -9q-20 0 -34 14zM327 67q37 41 54 98.5t17 106.5v167q-17 17 -54.5 30t-78.5 13
q-90 0 -122 -75.5t-32 -171.5q0 -107 31 -158t92 -51q56 0 93 41z" />
    <glyph glyph-name="r" unicode="r" horiz-adv-x="429" 
d="M363 491q30 -26 30 -74q0 -29 -15 -49t-35 -22h-4q-16 0 -21 7q12 16 15.5 30t3.5 32q0 65 -64 65q-48 0 -82.5 -56.5t-34.5 -179.5v-70q0 -87 1.5 -118t8.5 -51q-14 -14 -35 -14q-15 0 -24.5 10t-9.5 27v389q0 27 -7 39t-22 12q-19 0 -27 -17q-11 16 -11 28q0 17 14 27
t38 10q70 0 68 -98v-18q16 57 51 87t83 30q49 0 79 -26z" />
    <glyph glyph-name="s" unicode="s" horiz-adv-x="465" 
d="M86.5 21.5q-45.5 34.5 -45.5 89.5q0 50 42 50q8 0 12 -1q-5 -16 -4 -38q1 -48 38 -74.5t99 -26.5q63 0 101 22.5t38 63.5q0 27 -14.5 45.5t-37 31t-61.5 29.5l-36 17q-58 28 -85.5 45t-48.5 46.5t-21 74.5q0 62 48.5 92t123.5 30q81 0 126 -26.5t45 -74.5q0 -33 -27 -40
q-8 -2 -13 -2q-4 0 -14 2q3 11 3 21t-1 14q-2 36 -34 54.5t-88 18.5q-49 0 -81 -18t-32 -56q0 -33 17.5 -55.5t41.5 -36t73 -36.5l28 -13q49 -22 77.5 -39t48.5 -43.5t20 -64.5q0 -56 -46.5 -96t-153.5 -40q-93 0 -138.5 34.5z" />
    <glyph glyph-name="t" unicode="t" horiz-adv-x="333" 
d="M252.5 505q21.5 1 35.5 2l-1 -19q-1 -9 -5.5 -14t-11.5 -5h-109v-42l-1 -336q0 -26 13 -40.5t37 -14.5q16 0 30 6.5t20 17.5q10 -14 10 -27q0 -20 -21.5 -32t-54.5 -12q-43 0 -68 26t-25 73v381h-14q-41 0 -60 -3l1 19q1 9 5.5 14t12.5 5h55v98q0 16 10 25.5t26 9.5
q20 0 34 -14q-5 -15 -7 -42t-3 -77h56q14 0 35.5 1z" />
    <glyph glyph-name="u" unicode="u" horiz-adv-x="560" 
d="M530 29q0 -17 -13.5 -27t-37.5 -10q-70 0 -70 92v31q-21 -60 -66.5 -94t-103.5 -34q-81 0 -118 49t-38 165v203q0 65 -10 99q16 14 34 14q15 0 24.5 -9.5t9.5 -25.5l1 -275q0 -69 11 -108t35 -56.5t66 -17.5q36 0 70.5 24t57.5 77.5t23 137.5q0 138 -1.5 177t-8.5 62
q14 14 34 14q15 0 24.5 -10t9.5 -27l1 -390q0 -28 6.5 -39t22.5 -11q18 0 26 16q11 -14 11 -27z" />
    <glyph glyph-name="v" unicode="v" horiz-adv-x="477" 
d="M460 479q0 -17 -8 -36l-173 -442q-21 -11 -41 -11q-30 0 -38 25l-167 439q-3 9 -8.5 21t-11.5 18q13 15 36 15q30 0 36 -25l160 -451l149 424q5 20 5 27q0 13 -4 20q15 5 29 5q38 0 36 -29z" />
    <glyph glyph-name="w" unicode="w" horiz-adv-x="761" 
d="M179 15l-141 439q-12 30 -20 39q13 15 35 15q14 0 24 -6.5t13 -18.5l134 -448l117 421q5 18 5 27q0 13 -4 20q18 8 41 8q28 0 36 -17l128 -459l125 421q5 20 5 27q0 13 -4 20q15 5 30 5q37 0 35 -29q0 -17 -8 -36l-147 -442q-21 -11 -41 -11q-14 0 -24.5 6t-14.5 19
l-120 428l-123 -442q-19 -11 -44 -11q-29 0 -37 25z" />
    <glyph glyph-name="x" unicode="x" horiz-adv-x="494" 
d="M474.5 59.5q7.5 -9.5 7.5 -23.5q0 -19 -17.5 -34.5t-45.5 -15.5q-31 0 -51 18.5t-41 56.5l-89 157l-143 -212q-12 -19 -31 -19q-13 0 -22.5 9t-11.5 28q14 6 29.5 22.5t37.5 47.5l117 165l-94 164q-12 22 -22.5 31t-23.5 9q-15 0 -22 -9t-6 -22q-13 3 -20.5 12t-7.5 22
q0 20 17 35.5t47 15.5t49.5 -18t41.5 -56l80 -143l135 198q12 19 32 19q15 0 23.5 -9t11.5 -28q-16 -8 -31 -24.5t-37 -46.5l-112 -149l105 -180q11 -19 22 -29t25 -10t21.5 9.5t5.5 20.5q13 -2 20.5 -11.5z" />
    <glyph glyph-name="y" unicode="y" horiz-adv-x="542" 
d="M464 48q0 -284 -226 -284q-68 0 -115.5 26.5t-47.5 82.5q0 26 13 44.5t35 18.5q21 0 30 -13q-13 -7 -18 -20t-5 -25q0 -43 32 -62.5t75 -19.5q88 0 129 63t41 195q0 21 2 69q-21 -62 -66.5 -97t-110.5 -35q-75 0 -111.5 49.5t-37.5 163.5v200q0 65 -10 99q16 14 34 14
q15 0 24.5 -9.5t9.5 -25.5l1 -273q0 -96 24 -138t79 -42q67 0 113.5 58t46.5 184q0 134 -1.5 172t-8.5 60q14 14 34 14q15 0 24.5 -10t9.5 -27z" />
    <glyph glyph-name="z" unicode="z" horiz-adv-x="484" 
d="M440.5 143.5q13.5 -24.5 13.5 -51.5q0 -42 -31.5 -68t-84.5 -26l-194 2q-66 0 -96 -6l-10 16q0 26 18 48l317 402l-214 -5q-36 -1 -53 -17t-17 -38t19 -41q-10 -6 -20 -3q-23 3 -36.5 23.5t-13.5 43.5q0 37 30 61t85 23l170 -2q31 0 56 1t37 4l11 -14q0 -19 -3.5 -32
t-14.5 -28l-306 -388l220 3q42 1 62 20t20 47q0 14 -6 27t-15 21q10 2 14 2q29 0 42.5 -24.5z" />
    <glyph glyph-name="braceleft" unicode="{" horiz-adv-x="365" 
d="M162 -137.5q-38 35.5 -38 107.5q0 30 7 88q9 81 9 114q0 44 -14.5 65t-52.5 37v28q39 15 53 38.5t14 67.5q0 35 -9 114q-7 51 -7 80q0 72 38 108t102 36q23 0 42.5 -4t25.5 -9q4 -2 4 -9q0 -13 -10 -16q-22 5 -43 5q-48 0 -74.5 -26t-26.5 -79q0 -25 7 -78
q10 -70 10 -114q0 -108 -51 -125v-6q23 -7 37 -38t14 -85q0 -29 -9 -112q-8 -62 -8 -83q0 -53 26.5 -80t74.5 -27q21 0 43 5q10 -3 10 -16q0 -7 -4 -9q-6 -5 -25.5 -9t-42.5 -4q-64 0 -102 35.5z" />
    <glyph glyph-name="bar" unicode="|" horiz-adv-x="265" 
d="M104 730h57v-867h-57v867z" />
    <glyph glyph-name="braceright" unicode="}" horiz-adv-x="365" 
d="M58.5 -169q-19.5 4 -25.5 9q-4 2 -4 9q0 13 10 16q22 -5 44 -5q47 0 73.5 27t26.5 80q0 21 -8 83q-9 83 -9 112q0 54 14 85t37 38v6q-51 17 -51 125q0 44 10 114q7 53 7 78q0 53 -26 79t-74 26q-22 0 -44 -5q-10 3 -10 16q0 7 4 9q6 5 25.5 9t42.5 4q64 0 102 -36
t38 -108q0 -29 -7 -80q-9 -79 -9 -114q0 -44 14.5 -67.5t52.5 -38.5v-28q-38 -16 -52.5 -37t-14.5 -65q0 -33 9 -114q7 -58 7 -88q0 -72 -38 -107.5t-102 -35.5q-23 0 -42.5 4z" />
    <glyph glyph-name="asciitilde" unicode="~" horiz-adv-x="516" 
d="M412 328.5q-23 -22.5 -57 -22.5q-29 0 -51 7t-51 21q-28 13 -46.5 19.5t-41.5 6.5t-39.5 -12.5t-23.5 -33.5h-2q-12 0 -26 10q7 40 34 59.5t62 19.5q29 0 51 -7t51 -21q27 -13 46.5 -19.5t44.5 -6.5q20 0 30.5 11.5t19.5 35.5q19 0 28 -9q-6 -36 -29 -58.5z" />
    <glyph glyph-name="uni00A0" unicode="&#xa0;" horiz-adv-x="296" 
 />
    <glyph glyph-name="exclamdown" unicode="&#xa1;" horiz-adv-x="281" 
d="M172.5 502.5q13.5 -13.5 13.5 -32.5t-13.5 -32.5t-32.5 -13.5t-32 13.5t-13 32.5t13 32.5t32 13.5t32.5 -13.5zM141 -220q21 0 35 5l-11 544h-47l-13 -544q15 -5 36 -5z" />
    <glyph glyph-name="cent" unicode="&#xa2;" horiz-adv-x="504" 
d="M454 218q0 -12 -5 -25q-13 -38 -40.5 -62.5t-66.5 -35.5l10 -47q11 -57 24 -84q-3 -4 -6.5 -7t-9.5 -4q-2 -1 -5 -1q-13 0 -16 18l-27 119q-18 -3 -38 -3q-105 0 -164.5 67t-59.5 193q0 98 38 164.5t109 91.5l-8 37q-12 55 -24 84q6 10 15 11q2 1 6 1q13 0 16 -18
l24 -107q27 6 57 6q77 0 121 -34.5t44 -91.5q0 -33 -16 -53.5t-41 -20.5t-38 18q17 4 26 19.5t9 39.5q0 45 -32 68t-79 23q-23 0 -44 -6l100 -443q41 10 69 36t37 70q15 -7 15 -23zM303 131l-98 435q-43 -23 -67.5 -77t-24.5 -134q0 -118 48.5 -171.5t125.5 -53.5q11 0 16 1
z" />
    <glyph glyph-name="sterling" unicode="&#xa3;" horiz-adv-x="509" 
d="M469 32q0 -13 -5.5 -22.5t-16.5 -9.5h-406v26q52 76 71 122t19 107q0 11 -2 39h-39q-34 0 -60 -2l1 19q1 9 6 14t12 5h77l-5 45q-10 84 -10 114q0 211 189 211q61 0 97 -28.5t36 -66.5q0 -36 -29 -36q-9 0 -15 3q0 46 -27 71t-66 25q-58 0 -93 -35t-35 -129q0 -45 9 -110
q3 -23 7 -64h104q53 0 73 2l-1 -19q-1 -8 -6 -13.5t-12 -5.5h-156q1 -9 1 -28q0 -75 -24 -126.5t-82 -107.5q197 0 381 28q7 -7 7 -28z" />
    <glyph glyph-name="currency" unicode="&#xa4;" horiz-adv-x="554" 
d="M501 175q-2 -12 -9 -20q-6 -6 -14 -6q-9 0 -15 8l-61 59q-25 -21 -57 -32.5t-67 -11.5q-37 0 -70.5 12t-59.5 35l-7 -8q-47 -49 -57 -66q-5 0 -10 2t-10 7q-6 6 -6 13t7 16l59 60q-46 54 -46 127q0 36 12.5 69t35.5 59l-7 6q-49 47 -66 57q2 13 9 21q6 6 13 6q8 0 16 -8
l59 -59q53 44 125 44q75 0 130 -47l7 8q47 48 58 66q1 0 7 -1t13 -8q6 -6 6 -13q0 -8 -8 -16l-59 -60q45 -55 45 -125q0 -37 -12.5 -70t-34.5 -59l8 -7q44 -44 66 -58zM351.5 233q34.5 21 55 57t20.5 79t-20.5 79t-54.5 56.5t-75 20.5t-76 -20.5t-55.5 -56.5t-20.5 -79
t20.5 -79t55 -57t75.5 -21t75.5 21z" />
    <glyph glyph-name="yen" unicode="&#xa5;" horiz-adv-x="533" 
d="M499 631l-174 -335h32q16 0 42 0.5t42 1.5l-1 -19q-1 -8 -5.5 -13.5t-11.5 -5.5h-117l-8 -16v-8h59q16 0 47 1t37 2l-1 -19q-1 -9 -5.5 -14t-11.5 -5h-125l1 -98q0 -69 10 -99q-14 -14 -35 -14q-15 0 -24.5 9.5t-9.5 25.5v176h-89q-34 0 -60 -2l1 18q1 9 5.5 14t11.5 5
h131v8l-6 10l-3 6h-80q-34 0 -60 -2l1 18q1 9 5.5 14.5t11.5 5.5h105l-169 347q-8 16 -29 40q19 19 43 19q15 0 24.5 -7.5t16.5 -23.5l175 -375h5l165 348q10 21 10 32q0 15 -5 21q11 5 32 5q30 0 32 -32q0 -13 -15 -39z" />
    <glyph glyph-name="brokenbar" unicode="&#xa6;" horiz-adv-x="265" 
d="M104 729h57v-351h-57v351zM104 214h57v-351h-57v351z" />
    <glyph glyph-name="section" unicode="&#xa7;" horiz-adv-x="464" 
d="M86.5 -57.5q-45.5 34.5 -45.5 89.5q0 50 41 50q8 0 12 -1q-5 -16 -4 -38q1 -49 38 -75t100 -26t101 22.5t38 63.5q0 27 -14.5 45.5t-36.5 31t-60 29.5q-7 3 -38 17q-57 28 -85 45t-49 46.5t-21 74.5q0 51 28 81.5t76 42.5q-50 26 -77 57.5t-27 82.5q0 63 48 92.5
t124 29.5q81 0 125.5 -26.5t44.5 -74.5q0 -34 -26 -39q-6 -3 -13 -3q-3 0 -13 2q2 7 2 20q0 11 -1 15q-2 36 -34 54.5t-88 18.5q-49 0 -81.5 -18t-32.5 -56q0 -33 17.5 -55.5t41.5 -36t73 -36.5l28 -13q49 -22 77.5 -39t48.5 -43.5t20 -64.5q0 -45 -29 -81t-96 -46
q61 -28 93 -58t32 -80q0 -56 -46 -95.5t-153 -39.5q-93 0 -138.5 34.5zM333 224.5q34 22.5 34 67.5q0 26 -15.5 45.5t-39.5 33.5t-66 33q-18 8 -22 10q-48 3 -77 -18.5t-29 -64.5q0 -31 18.5 -53.5t43.5 -37t71 -35.5q48 -3 82 19.5z" />
    <glyph glyph-name="dieresis" unicode="&#xa8;" horiz-adv-x="600" 
d="M182.5 599q-12.5 13 -12.5 29q0 17 12.5 29.5t29.5 12.5t29.5 -12.5t12.5 -29.5t-12.5 -29.5t-29.5 -12.5t-29.5 13zM351.5 598.5q-12.5 12.5 -12.5 29.5t12 29.5t29 12.5t29.5 -12.5t12.5 -29.5t-12.5 -29.5t-29.5 -12.5q-16 0 -28.5 12.5z" />
    <glyph glyph-name="copyright" unicode="&#xa9;" horiz-adv-x="828" 
d="M234.5 36.5q-82.5 48.5 -130.5 131t-48 179.5t48 178.5t130.5 129.5t180.5 48q97 0 179.5 -48t130.5 -130t48 -178q0 -97 -48 -179.5t-130.5 -131t-179.5 -48.5q-98 0 -180.5 48.5zM577.5 64q74.5 44 118 119t43.5 164t-43.5 163.5t-118 118t-163.5 43.5t-163.5 -43.5
t-118 -118t-43.5 -163.5t43.5 -164.5t118 -119t163.5 -43.5t163.5 44zM285 182.5q-48 57.5 -48 164.5q0 108 48.5 165t135.5 57q55 0 94.5 -17.5t39.5 -40.5q0 -10 -10 -16.5t-24 -5.5q-6 27 -32 41.5t-68 14.5q-66 0 -101 -50.5t-35 -147.5t35 -147t100 -50q41 0 74 18.5
t42 51.5q13 1 22.5 -4t9.5 -16q0 -18 -20.5 -35.5t-55 -28.5t-73.5 -11q-86 0 -134 57.5z" />
    <glyph glyph-name="ordfeminine" unicode="&#xaa;" horiz-adv-x="372" 
d="M364 391q0 -14 -12 -22.5t-30 -8.5q-24 0 -39.5 15t-15.5 39q0 11 3 21l1 40q-23 -54 -64 -85t-90 -31q-40 0 -61.5 20.5t-21.5 55.5q0 40 29 67.5t81 40.5q56 14 122 11v17q0 59 -23 87.5t-74 28.5q-31 0 -53.5 -12t-22.5 -41q0 -15 7.5 -28.5t21.5 -18.5
q-9 -13 -27 -13q-20 0 -33 17.5t-13 40.5q0 39 33.5 59t91.5 20q70 0 103 -35t33 -107v-138q0 -34 24 -34q6 0 13 3.5t10 9.5q7 -7 7 -19zM193 413.5q31 20.5 52 53t21 67.5q-29 1 -61.5 -2t-53.5 -11q-33 -11 -51.5 -30.5t-18.5 -46.5q0 -22 12.5 -36.5t39.5 -14.5
q29 0 60 20.5z" />
    <glyph glyph-name="guillemotleft" unicode="&#xab;" horiz-adv-x="647" 
d="M313 243v-5l279 -194l-23 -28l-314 203q-2 10 -2 22q0 13 2 21l315 206l20 -29zM91 243v-5l279 -194l-23 -28l-314 203q-2 10 -2 22q0 13 2 21l315 206l20 -29z" />
    <glyph glyph-name="logicalnot" unicode="&#xac;" horiz-adv-x="562" 
d="M470 381v-152q-12 -5 -20 -5t-20 5v111h-354q-4 14 -4 20q0 7 4 21h394z" />
    <glyph glyph-name="uni00AD" unicode="&#xad;" horiz-adv-x="399" 
d="M345 278v-42h-292v42h292z" />
    <glyph glyph-name="registered" unicode="&#xae;" horiz-adv-x="828" 
d="M594.5 655q82.5 -48 130.5 -130t48 -178q0 -97 -48 -179.5t-130.5 -131t-179.5 -48.5q-98 0 -180.5 48.5t-130.5 131t-48 179.5t48 178.5t130.5 129.5t180.5 48q97 0 179.5 -48zM577.5 64q74.5 44 118 119t43.5 164q0 88 -43.5 162.5t-118.5 118.5t-163 44
q-89 0 -163.5 -43.5t-118 -118t-43.5 -163.5t43.5 -164.5t118 -119t163.5 -43.5t163.5 44zM613 168q4 -8 4 -16q0 -13 -12 -20.5t-27 -7.5q-36 0 -63 53l-38 85q-10 22 -19 34t-27 20t-49 8l-64 1v-128q0 -14 2 -33.5t6 -30.5q-15 -9 -28 -9q-11 0 -17.5 6t-7.5 17v361
q0 45 -7 64q27 12 93 12q106 0 153.5 -29t47.5 -96q0 -46 -29 -77.5t-78 -42.5q24 -6 39 -23t28 -46l38 -82q10 -17 17 -23.5t16 -6.5q13 0 22 10zM383 348q55 1 92 30t37 78q0 55 -35.5 79t-116.5 25q-26 0 -42 -2v-210h65z" />
    <glyph glyph-name="macron" unicode="&#xaf;" horiz-adv-x="600" 
d="M414 636q4 -12 4 -18t-4 -18h-248q-3 9 -3 18t3 18h248z" />
    <glyph glyph-name="degree" unicode="&#xb0;" horiz-adv-x="366" 
d="M97.5 504q-35.5 34 -35.5 83q0 48 35.5 82t85.5 34t86 -34t36 -82q0 -49 -36 -83t-86 -34t-85.5 34zM240 530q24 24 24 57t-24 56.5t-57 23.5t-56.5 -23.5t-23.5 -56.5t23.5 -57t56.5 -24t57 24z" />
    <glyph glyph-name="plusminus" unicode="&#xb1;" horiz-adv-x="577" 
d="M92 345q-4 14 -4 21t4 21h175v126q9 4 21 4t21 -4v-126h176q4 -9 4 -21t-4 -21h-176v-126q-12 -4 -20 -4q-9 0 -21 5v125h-176zM485 162q4 -9 4 -21q0 -11 -4 -20h-393q-4 14 -4 20q0 7 4 21h393z" />
    <glyph glyph-name="uni00B2" unicode="&#xb2;" horiz-adv-x="371" 
d="M33 272q75 58 122 99t83 95t36 111q0 43 -25 72t-73 29q-47 0 -69 -31t-25 -66q-19 0 -28.5 10.5t-9.5 24.5q0 20 16.5 40t47.5 33.5t72 13.5q63 0 104.5 -31.5t41.5 -95.5q0 -150 -254 -308q60 1 137 8t134 16q9 -6 9 -27q0 -10 -3 -17.5t-9 -8.5h-298q-12 9 -9 33z" />
    <glyph glyph-name="uni00B3" unicode="&#xb3;" horiz-adv-x="391" 
d="M99 245.5q-33 14.5 -46 33.5t-13 33q0 13 8 22t28 9q12 -88 109 -88q54 0 84 27.5t30 73.5q0 58 -46.5 85t-118.5 28v24q70 2 109 32t39 73q0 36 -23 58t-67 22q-50 0 -72.5 -26.5t-25.5 -59.5q-35 0 -35 27q0 19 15 38.5t46 32.5t76 13q57 0 98.5 -25t41.5 -81
q0 -44 -30 -73.5t-82 -41.5q129 -23 129 -121q0 -62 -45 -96t-120 -34q-56 0 -89 14.5z" />
    <glyph glyph-name="uni00B5" unicode="&#xb5;" horiz-adv-x="567" 
d="M534 29q0 -17 -14 -27t-37 -10q-70 0 -70 92v31q-21 -60 -66.5 -94t-103.5 -34q-67 0 -102 31v-101q2 -96 15 -128q-14 -14 -34 -14q-16 0 -26 9.5t-10 25.5l1 404l-1 190q0 68 -9 99q14 14 34 14q15 0 24.5 -9.5t9.5 -25.5v-275q0 -68 11 -107.5t35.5 -57t66.5 -17.5
q36 0 70.5 24t57.5 77.5t23 137.5q0 138 -1.5 177t-9.5 62q14 14 35 14q15 0 24 -10t9 -27l1 -390q0 -27 7 -38.5t22 -11.5q19 0 27 16q11 -14 11 -27z" />
    <glyph glyph-name="paragraph" unicode="&#xb6;" horiz-adv-x="678" 
d="M608 -171q-4 -12 -15 -18t-26 -6q-22 0 -40 27t-18 70v525q0 122 -50.5 182t-154.5 60q-107 0 -150.5 -57t-43.5 -134q0 -83 41 -128t107 -45q15 0 32 3l-1 119q0 69 -10 99q1 1 10 7.5t24 6.5t23.5 -9.5t8.5 -26.5l1 -401q0 -69 10 -99q-14 -14 -32 -14q-15 0 -24 9.5
t-9 25.5l-1 247q-18 -3 -37 -3q-54 0 -100.5 24t-74.5 71t-28 113q0 86 54 156t200 70q264 0 264 -274v-487q0 -105 40 -113z" />
    <glyph glyph-name="periodcentered" unicode="&#xb7;" horiz-adv-x="251" 
d="M93.5 227.5q-13.5 13.5 -13.5 32.5q0 18 13.5 31.5t32.5 13.5t32 -13.5t13 -31.5q0 -19 -13 -32.5t-32 -13.5t-32.5 13.5z" />
    <glyph glyph-name="cedilla" unicode="&#xb8;" horiz-adv-x="600" 
d="M297 -45q41 0 65 -19.5t24 -52.5q0 -37 -27 -59.5t-70 -22.5q-56 0 -84 30v2q0 7 3.5 14.5t8.5 10.5q13 -10 25.5 -16t35.5 -6q24 0 38.5 11.5t14.5 34.5q0 47 -61 47l-15 -1l15 77h37z" />
    <glyph glyph-name="uni00B9" unicode="&#xb9;" horiz-adv-x="302" 
d="M172 241.5q-7 7.5 -7 20.5l-1 360q0 23 -2 34q-7 -6 -33.5 -27t-46 -34t-25.5 -13q-20 0 -20 31l48 33l78 53q10 4 19 4q13 0 21 -7.5t8 -21.5l1 -358q-2 -44 7 -71q-11 -11 -28 -11q-12 0 -19 7.5z" />
    <glyph glyph-name="ordmasculine" unicode="&#xba;" horiz-adv-x="371" 
d="M72.5 404.5q-39.5 46.5 -39.5 130.5q0 83 39.5 129.5t112.5 46.5q72 0 112.5 -46.5t40.5 -129.5q0 -84 -40.5 -130.5t-112.5 -46.5q-73 0 -112.5 46.5zM263 422q28 40 28 113q0 72 -28 111.5t-78 39.5t-77.5 -39t-27.5 -112t27.5 -113t77.5 -40t78 40z" />
    <glyph glyph-name="guillemotright" unicode="&#xbb;" horiz-adv-x="647" 
d="M299 468l315 -206q2 -4 2 -21t-2 -22l-315 -203l-22 28l279 194v5l-278 196zM77 468l315 -206q2 -4 2 -21t-2 -22l-315 -203l-22 28l279 194v5l-278 196z" />
    <glyph glyph-name="onequarter" unicode="&#xbc;" horiz-adv-x="861" 
d="M172 241.5q-7 7.5 -7 20.5l-1 360q0 23 -2 34q-7 -6 -33.5 -27t-46 -34t-25.5 -13q-20 0 -20 31l48 33l78 53q10 4 19 4q13 0 21 -7.5t8 -21.5l1 -358q-2 -44 7 -71q-11 -11 -28 -11q-12 0 -19 7.5zM597 704q10 0 18 -5t11 -14l-418 -698q-25 -2 -36 17l417 699q3 1 8 1z
M851 144q0 -13 -8 -23h-63v-45q0 -44 7 -71q-10 -12 -27 -12q-12 0 -19.5 8t-7.5 21v99h-226q-14 6 -14 19q0 7 5 14l226 297q4 4 11.5 8t16.5 4q12 0 19.5 -7.5t7.5 -21.5l1 -279q37 2 66 7q5 -8 5 -18zM733 154l-1 257l-197 -257h198z" />
    <glyph glyph-name="onehalf" unicode="&#xbd;" horiz-adv-x="915" 
d="M172 241.5q-7 7.5 -7 20.5l-1 360q0 23 -2 34q-7 -6 -33.5 -27t-46 -34t-25.5 -13q-20 0 -20 31l48 33l78 53q10 4 19 4q13 0 21 -7.5t8 -21.5l1 -358q-2 -44 7 -71q-11 -11 -28 -11q-12 0 -19 7.5zM609 704q10 0 18 -5t11 -14l-418 -698q-25 -2 -36 17l417 699q3 1 8 1z
M569 33q77 60 122.5 100t81.5 93.5t36 111.5q0 43 -25 72.5t-72 29.5t-69 -31t-25 -67q-20 0 -29.5 10t-9.5 25q0 20 16.5 40t48 33.5t72.5 13.5q63 0 104.5 -31.5t41.5 -95.5q0 -151 -254 -307q59 1 136 7.5t135 15.5q9 -6 9 -27q0 -10 -3 -17.5t-9 -8.5h-298q-12 9 -9 33z
" />
    <glyph glyph-name="threequarters" unicode="&#xbe;" horiz-adv-x="940" 
d="M99 245.5q-33 14.5 -46 33.5t-13 33q0 13 8 22t28 9q12 -88 109 -88q54 0 84 27.5t30 73.5q0 58 -46.5 85t-118.5 28v24q70 2 109 32t39 73q0 36 -23 58t-67 22q-50 0 -72.5 -26.5t-25.5 -59.5q-35 0 -35 27q0 19 15 38.5t46 32.5t76 13q57 0 98.5 -25t41.5 -81
q0 -44 -30 -73.5t-82 -41.5q129 -23 129 -121q0 -62 -45 -96t-120 -34q-56 0 -89 14.5zM676 704q10 0 18 -5t11 -14l-418 -698q-25 -2 -36 17l417 699q3 1 8 1zM931 144q0 -13 -8 -23h-63v-45q0 -44 7 -71q-10 -12 -27 -12q-12 0 -19.5 8t-7.5 21v99h-226q-14 6 -14 19
q0 7 5 14l226 297q4 4 11.5 8t16.5 4q12 0 19.5 -7.5t7.5 -21.5l1 -279q37 2 66 7q5 -8 5 -18zM813 154l-1 257l-197 -257h198z" />
    <glyph glyph-name="questiondown" unicode="&#xbf;" horiz-adv-x="477" 
d="M340.5 513.5q13.5 -13.5 13.5 -32.5t-13.5 -32.5t-32.5 -13.5t-32.5 13.5t-13.5 32.5t13.5 32.5t32.5 13.5t32.5 -13.5zM317 193q-47 -1 -96 -23.5t-82.5 -67.5t-33.5 -108q0 -79 43.5 -128t127.5 -49q50 0 82 22t46 52.5t16 57.5q47 0 47 -37q0 -28 -23.5 -58t-68 -50
t-105.5 -20q-96 0 -162 51t-66 156q0 66 30.5 116.5t82 81t114.5 39.5v113h48v-148z" />
    <glyph glyph-name="Agrave" unicode="&#xc0;" horiz-adv-x="580" 
d="M568 5q-13 -15 -34 -15q-15 0 -25.5 6.5t-13.5 18.5l-68 211h-277l-58 -183q-6 -16 -6 -28q0 -13 5 -19q-15 -6 -33 -6q-34 0 -34 29q0 7 3.5 19t4.5 18l219 637q25 11 47 11q31 0 39 -25l210 -634q9 -25 21 -40zM414 265l-127 395l-125 -395h252zM163 841q13 13 26 19
l134 -107q-1 -4 -6 -11.5t-9 -9.5l-164 82q6 14 19 27z" />
    <glyph glyph-name="Aacute" unicode="&#xc1;" horiz-adv-x="580" 
d="M568 5q-13 -15 -34 -15q-15 0 -25.5 6.5t-13.5 18.5l-68 211h-277l-58 -183q-6 -16 -6 -28q0 -13 5 -19q-15 -6 -33 -6q-34 0 -34 29q0 7 3.5 19t4.5 18l219 637q25 11 47 11q31 0 39 -25l210 -634q9 -25 21 -40zM414 265l-127 395l-125 -395h252zM271 732q-4 2 -9 9.5
t-6 11.5l133 107q13 -6 26.5 -19t19.5 -27z" />
    <glyph glyph-name="Acircumflex" unicode="&#xc2;" horiz-adv-x="580" 
d="M568 5q-13 -15 -34 -15q-15 0 -25.5 6.5t-13.5 18.5l-68 211h-277l-58 -183q-6 -16 -6 -28q0 -13 5 -19q-15 -6 -33 -6q-34 0 -34 29q0 7 3.5 19t4.5 18l219 637q25 11 47 11q31 0 39 -25l210 -634q9 -25 21 -40zM414 265l-127 395l-125 -395h252zM433 749
q-2 -5 -7.5 -11t-10.5 -8l-125 78l-126 -78q-5 2 -11 8.5t-7 10.5l121 107q6 2 22 2q17 0 23 -2z" />
    <glyph glyph-name="Atilde" unicode="&#xc3;" horiz-adv-x="580" 
d="M568 5q-13 -15 -34 -15q-15 0 -25.5 6.5t-13.5 18.5l-68 211h-277l-58 -183q-6 -16 -6 -28q0 -13 5 -19q-15 -6 -33 -6q-34 0 -34 29q0 7 3.5 19t4.5 18l219 637q25 11 47 11q31 0 39 -25l210 -634q9 -25 21 -40zM414 265l-127 395l-125 -395h252zM400.5 770.5
q-20.5 -19.5 -49.5 -19.5q-17 0 -32.5 5.5t-34.5 16.5q-19 10 -31 14.5t-25 4.5q-42 0 -56 -42h-2q-10 0 -20 10q7 38 28.5 56.5t52.5 18.5q17 0 30.5 -5t35.5 -16q20 -10 32.5 -15t27.5 -5q20 0 29.5 8.5t19.5 27.5q15 0 23 -8q-8 -32 -28.5 -51.5z" />
    <glyph glyph-name="Adieresis" unicode="&#xc4;" horiz-adv-x="580" 
d="M568 5q-13 -15 -34 -15q-15 0 -25.5 6.5t-13.5 18.5l-68 211h-277l-58 -183q-6 -16 -6 -28q0 -13 5 -19q-15 -6 -33 -6q-34 0 -34 29q0 7 3.5 19t4.5 18l219 637q25 11 47 11q31 0 39 -25l210 -634q9 -25 21 -40zM414 265l-127 395l-125 -395h252zM175 772q-13 13 -13 31
q0 17 13 30t31 13q17 0 30.5 -13t13.5 -30q0 -18 -13.5 -31t-30.5 -13q-18 0 -31 13zM350 772q-13 13 -13 31q0 17 13 30t31 13q17 0 30 -13t13 -30q0 -18 -13 -31t-30 -13q-18 0 -31 13z" />
    <glyph glyph-name="Aring" unicode="&#xc5;" horiz-adv-x="580" 
d="M568 5q-13 -15 -34 -15q-15 0 -25.5 6.5t-13.5 18.5l-68 211h-277l-58 -183q-6 -16 -6 -28q0 -13 5 -19q-15 -6 -33 -6q-34 0 -34 29q0 7 3.5 19t4.5 18l219 637q25 11 47 11q31 0 39 -25l210 -634q9 -25 21 -40zM414 265l-127 395l-125 -395h252zM356.5 879.5
q23.5 -21.5 23.5 -57.5q-1 -38 -25 -60.5t-64 -22.5q-38 0 -61.5 21.5t-23.5 57.5q0 38 24.5 60.5t64.5 22.5q38 0 61.5 -21.5zM256 860q-14 -15 -14 -40t14 -40t37 -15t37 15t14 40t-14 40t-37 15t-37 -15z" />
    <glyph glyph-name="AE" unicode="&#xc6;" horiz-adv-x="822" 
d="M755.5 41.5q3.5 -8.5 3.5 -18.5q0 -23 -15 -23h-317q-15 0 -24.5 9.5t-9.5 25.5v191h-207l-94 -183q-6 -12 -6 -28q0 -12 4 -19q-13 -6 -30 -6t-26.5 8.5t-9.5 23.5q0 17 10 34l337 629q48 6 86 6h279q12 0 12 -17q0 -11 -5 -21.5t-13 -13.5q-154 14 -280 15l1 -269h257
q3 -9 3 -20q0 -10 -3 -19h-257l1 -310q121 1 294 17q6 -3 9.5 -11.5zM393 265l-1 317q0 29 -2 44l-185 -361h188z" />
    <glyph glyph-name="Ccedilla" unicode="&#xc7;" horiz-adv-x="588" 
d="M505.5 51.5q-28.5 -27.5 -76 -45.5t-100.5 -19l-6 -32q41 0 65 -19.5t24 -52.5q0 -37 -27 -59.5t-70 -22.5q-56 0 -84 30v2q0 7 3.5 14.5t8.5 10.5q13 -10 25.5 -16t35.5 -6q24 0 38.5 11.5t14.5 34.5q0 47 -61 47l-15 -1l12 60q-110 11 -169.5 102.5t-59.5 254.5
q0 174 68 266t193 92q52 0 95 -13t68.5 -34.5t25.5 -45.5q0 -15 -13.5 -25t-34.5 -7q-8 44 -45.5 68t-95.5 24q-95 0 -145.5 -82.5t-50.5 -242.5q0 -159 50.5 -241.5t144.5 -82.5q57 0 103 31t58 85q21 2 35 -5.5t14 -24.5q0 -28 -28.5 -55.5z" />
    <glyph glyph-name="Egrave" unicode="&#xc8;" horiz-adv-x="531" 
d="M464.5 41.5q3.5 -8.5 3.5 -18.5q0 -23 -15 -23h-317q-15 0 -24.5 9.5t-9.5 25.5l-1 547q0 60 -10 93q9 9 19.5 12.5t27.5 3.5h307q12 0 12 -17q0 -11 -5 -21.5t-13 -13.5q-160 14 -280 15l1 -269h257q3 -9 3 -20q0 -10 -3 -19h-257l1 -310q121 1 294 17q6 -3 9.5 -11.5z
M149 841q13 13 26 19l134 -107q-1 -4 -6 -11.5t-9 -9.5l-164 82q6 14 19 27z" />
    <glyph glyph-name="Eacute" unicode="&#xc9;" horiz-adv-x="531" 
d="M464.5 41.5q3.5 -8.5 3.5 -18.5q0 -23 -15 -23h-317q-15 0 -24.5 9.5t-9.5 25.5l-1 547q0 60 -10 93q9 9 19.5 12.5t27.5 3.5h307q12 0 12 -17q0 -11 -5 -21.5t-13 -13.5q-160 14 -280 15l1 -269h257q3 -9 3 -20q0 -10 -3 -19h-257l1 -310q121 1 294 17q6 -3 9.5 -11.5z
M257 732q-4 2 -9 9.5t-6 11.5l133 107q13 -6 26.5 -19t19.5 -27z" />
    <glyph glyph-name="Ecircumflex" unicode="&#xca;" horiz-adv-x="531" 
d="M464.5 41.5q3.5 -8.5 3.5 -18.5q0 -23 -15 -23h-317q-15 0 -24.5 9.5t-9.5 25.5l-1 547q0 60 -10 93q9 9 19.5 12.5t27.5 3.5h307q12 0 12 -17q0 -11 -5 -21.5t-13 -13.5q-160 14 -280 15l1 -269h257q3 -9 3 -20q0 -10 -3 -19h-257l1 -310q121 1 294 17q6 -3 9.5 -11.5z
M419 749q-2 -5 -7.5 -11t-10.5 -8l-125 78l-126 -78q-5 2 -11 8.5t-7 10.5l121 107q6 2 22 2q17 0 23 -2z" />
    <glyph glyph-name="Edieresis" unicode="&#xcb;" horiz-adv-x="531" 
d="M464.5 41.5q3.5 -8.5 3.5 -18.5q0 -23 -15 -23h-317q-15 0 -24.5 9.5t-9.5 25.5l-1 547q0 60 -10 93q9 9 19.5 12.5t27.5 3.5h307q12 0 12 -17q0 -11 -5 -21.5t-13 -13.5q-160 14 -280 15l1 -269h257q3 -9 3 -20q0 -10 -3 -19h-257l1 -310q121 1 294 17q6 -3 9.5 -11.5z
M161 772q-13 13 -13 31q0 17 13 30t31 13q17 0 30.5 -13t13.5 -30q0 -18 -13.5 -31t-30.5 -13q-18 0 -31 13zM336 772q-13 13 -13 31q0 17 13 30t31 13q17 0 30 -13t13 -30q0 -18 -13 -31t-30 -13q-18 0 -31 13z" />
    <glyph glyph-name="Igrave" unicode="&#xcc;" horiz-adv-x="261" 
d="M111.5 -0.5q-9.5 9.5 -9.5 25.5l-1 562q0 65 -10 98q14 14 34 14q16 0 26 -9.5t10 -25.5v-561q0 -69 10 -99q-14 -14 -35 -14q-15 0 -24.5 9.5zM-4 841q13 13 26 19l134 -107q-1 -4 -6 -11.5t-9 -9.5l-164 82q6 14 19 27z" />
    <glyph glyph-name="Iacute" unicode="&#xcd;" horiz-adv-x="261" 
d="M111.5 -0.5q-9.5 9.5 -9.5 25.5l-1 562q0 65 -10 98q14 14 34 14q16 0 26 -9.5t10 -25.5v-561q0 -69 10 -99q-14 -14 -35 -14q-15 0 -24.5 9.5zM105 732q-4 2 -9 9.5t-6 11.5l133 107q13 -6 26.5 -19t19.5 -27z" />
    <glyph glyph-name="Icircumflex" unicode="&#xce;" horiz-adv-x="261" 
d="M111.5 -0.5q-9.5 9.5 -9.5 25.5l-1 562q0 65 -10 98q14 14 34 14q16 0 26 -9.5t10 -25.5v-561q0 -69 10 -99q-14 -14 -35 -14q-15 0 -24.5 9.5zM266 749q-2 -5 -7.5 -11t-10.5 -8l-125 78l-126 -78q-5 2 -11 8.5t-7 10.5l121 107q6 2 22 2q17 0 23 -2z" />
    <glyph glyph-name="Idieresis" unicode="&#xcf;" horiz-adv-x="261" 
d="M111.5 -0.5q-9.5 9.5 -9.5 25.5l-1 562q0 65 -10 98q14 14 34 14q16 0 26 -9.5t10 -25.5v-561q0 -69 10 -99q-14 -14 -35 -14q-15 0 -24.5 9.5zM9 772q-13 13 -13 31q0 17 13 30t31 13q17 0 30.5 -13t13.5 -30q0 -18 -13.5 -31t-30.5 -13q-18 0 -31 13zM184 772
q-13 13 -13 31q0 17 13 30t31 13q17 0 30 -13t13 -30q0 -18 -13 -31t-30 -13q-18 0 -31 13z" />
    <glyph glyph-name="Eth" unicode="&#xd0;" horiz-adv-x="630" 
d="M500.5 614q71.5 -88 71.5 -266q0 -180 -70.5 -264t-206.5 -84h-160q-16 0 -25 9t-9 26l-1 298h-75q-3 8 -3 16q0 9 3 16h75l-1 222q0 82 -8 109q79 6 202 6q136 0 207.5 -88zM453 107q54 74 54 238q0 324 -214 324h-135v-304h160q4 -7 4 -16t-4 -16h-159v-300h134
q106 0 160 74z" />
    <glyph glyph-name="Ntilde" unicode="&#xd1;" horiz-adv-x="677" 
d="M92 1q10 30 10 102l-1 477q0 77 -7 109q9 8 29 8q16 0 21 -5q76 -111 200 -301t195 -304l-11 518q-1 32 2 55.5t11 32.5q7 3 18 3q7 0 11 -1q8 -22 8 -51l1 -542q0 -78 3 -101q-4 -4 -12 -6.5t-17 -2.5q-10 0 -14 2q-123 156 -397 599l10 -565q1 -17 -8.5 -27.5
t-22.5 -10.5q-16 0 -29 11zM446.5 770.5q-20.5 -19.5 -49.5 -19.5q-17 0 -32.5 5.5t-34.5 16.5q-19 10 -31 14.5t-25 4.5q-42 0 -56 -42h-2q-10 0 -20 10q7 38 28.5 56.5t52.5 18.5q17 0 30.5 -5t35.5 -16q20 -10 32.5 -15t27.5 -5q20 0 29.5 8.5t19.5 27.5q15 0 23 -8
q-8 -32 -28.5 -51.5z" />
    <glyph glyph-name="Ograve" unicode="&#xd2;" horiz-adv-x="646" 
d="M130.5 76q-66.5 89 -66.5 269t66.5 269t192.5 89t192.5 -89t66.5 -269t-66.5 -269t-192.5 -89t-192.5 89zM517 345q0 325 -194 325t-194 -325q0 -324 194 -324t194 324zM195 841q13 13 26 19l134 -107q-1 -4 -6 -11.5t-9 -9.5l-164 82q6 14 19 27z" />
    <glyph glyph-name="Oacute" unicode="&#xd3;" horiz-adv-x="646" 
d="M130.5 76q-66.5 89 -66.5 269t66.5 269t192.5 89t192.5 -89t66.5 -269t-66.5 -269t-192.5 -89t-192.5 89zM517 345q0 325 -194 325t-194 -325q0 -324 194 -324t194 324zM303 732q-4 2 -9 9.5t-6 11.5l133 107q13 -6 26.5 -19t19.5 -27z" />
    <glyph glyph-name="Ocircumflex" unicode="&#xd4;" horiz-adv-x="646" 
d="M130.5 76q-66.5 89 -66.5 269t66.5 269t192.5 89t192.5 -89t66.5 -269t-66.5 -269t-192.5 -89t-192.5 89zM517 345q0 325 -194 325t-194 -325q0 -324 194 -324t194 324zM465 749q-2 -5 -7.5 -11t-10.5 -8l-125 78l-126 -78q-5 2 -11 8.5t-7 10.5l121 107q6 2 22 2
q17 0 23 -2z" />
    <glyph glyph-name="Otilde" unicode="&#xd5;" horiz-adv-x="646" 
d="M130.5 76q-66.5 89 -66.5 269t66.5 269t192.5 89t192.5 -89t66.5 -269t-66.5 -269t-192.5 -89t-192.5 89zM517 345q0 325 -194 325t-194 -325q0 -324 194 -324t194 324zM432.5 770.5q-20.5 -19.5 -49.5 -19.5q-17 0 -32.5 5.5t-34.5 16.5q-19 10 -31 14.5t-25 4.5
q-42 0 -56 -42h-2q-10 0 -20 10q7 38 28.5 56.5t52.5 18.5q17 0 30.5 -5t35.5 -16q20 -10 32.5 -15t27.5 -5q20 0 29.5 8.5t19.5 27.5q15 0 23 -8q-8 -32 -28.5 -51.5z" />
    <glyph glyph-name="Odieresis" unicode="&#xd6;" horiz-adv-x="646" 
d="M130.5 76q-66.5 89 -66.5 269t66.5 269t192.5 89t192.5 -89t66.5 -269t-66.5 -269t-192.5 -89t-192.5 89zM517 345q0 325 -194 325t-194 -325q0 -324 194 -324t194 324zM207 772q-13 13 -13 31q0 17 13 30t31 13q17 0 30.5 -13t13.5 -30q0 -18 -13.5 -31t-30.5 -13
q-18 0 -31 13zM382 772q-13 13 -13 31q0 17 13 30t31 13q17 0 30 -13t13 -30q0 -18 -13 -31t-30 -13q-18 0 -31 13z" />
    <glyph glyph-name="multiply" unicode="&#xd7;" horiz-adv-x="491" 
d="M274 352l139 -140q-10 -21 -29 -29l-139 139l-139 -139q-20 10 -28 29l138 139l-138 139q7 19 29 29l138 -139l139 140q19 -8 29 -29z" />
    <glyph glyph-name="Oslash" unicode="&#xd8;" horiz-adv-x="630" 
d="M582 345q0 -180 -66.5 -269t-192.5 -89q-107 0 -171 64l-38 -65q-18 0 -28 16l44 75q-66 91 -66 268q0 180 66.5 269t192.5 89q89 0 148 -44l30 50q19 0 27 -16l-32 -55q86 -89 86 -293zM162 132l285 486q-46 52 -124 52q-194 0 -194 -325q0 -135 33 -213zM517 345
q0 164 -49 245l-288 -492q49 -77 143 -77q194 0 194 324z" />
    <glyph glyph-name="Ugrave" unicode="&#xd9;" horiz-adv-x="651" 
d="M562 305q0 -157 -60 -237.5t-177 -80.5t-173.5 77.5t-56.5 240.5v282q0 68 -9 98q14 14 34 14q15 0 24.5 -9.5t9.5 -25.5v-361q0 -146 41.5 -214t129.5 -68q89 0 134 71.5t45 210.5v284q0 65 -10 98q14 14 34 14q15 0 24.5 -9.5t9.5 -25.5v-359zM198 841q13 13 26 19
l134 -107q-1 -4 -6 -11.5t-9 -9.5l-164 82q6 14 19 27z" />
    <glyph glyph-name="Uacute" unicode="&#xda;" horiz-adv-x="651" 
d="M562 305q0 -157 -60 -237.5t-177 -80.5t-173.5 77.5t-56.5 240.5v282q0 68 -9 98q14 14 34 14q15 0 24.5 -9.5t9.5 -25.5v-361q0 -146 41.5 -214t129.5 -68q89 0 134 71.5t45 210.5v284q0 65 -10 98q14 14 34 14q15 0 24.5 -9.5t9.5 -25.5v-359zM306 732q-4 2 -9 9.5
t-6 11.5l133 107q13 -6 26.5 -19t19.5 -27z" />
    <glyph glyph-name="Ucircumflex" unicode="&#xdb;" horiz-adv-x="651" 
d="M562 305q0 -157 -60 -237.5t-177 -80.5t-173.5 77.5t-56.5 240.5v282q0 68 -9 98q14 14 34 14q15 0 24.5 -9.5t9.5 -25.5v-361q0 -146 41.5 -214t129.5 -68q89 0 134 71.5t45 210.5v284q0 65 -10 98q14 14 34 14q15 0 24.5 -9.5t9.5 -25.5v-359zM468 749q-2 -5 -7.5 -11
t-10.5 -8l-125 78l-126 -78q-5 2 -11 8.5t-7 10.5l121 107q6 2 22 2q17 0 23 -2z" />
    <glyph glyph-name="Udieresis" unicode="&#xdc;" horiz-adv-x="651" 
d="M562 305q0 -157 -60 -237.5t-177 -80.5t-173.5 77.5t-56.5 240.5v282q0 68 -9 98q14 14 34 14q15 0 24.5 -9.5t9.5 -25.5v-361q0 -146 41.5 -214t129.5 -68q89 0 134 71.5t45 210.5v284q0 65 -10 98q14 14 34 14q15 0 24.5 -9.5t9.5 -25.5v-359zM210 772q-13 13 -13 31
q0 17 13 30t31 13q17 0 30.5 -13t13.5 -30q0 -18 -13.5 -31t-30.5 -13q-18 0 -31 13zM385 772q-13 13 -13 31q0 17 13 30t31 13q17 0 30 -13t13 -30q0 -18 -13 -31t-30 -13q-18 0 -31 13z" />
    <glyph glyph-name="Yacute" unicode="&#xdd;" horiz-adv-x="536" 
d="M499 631l-201 -387l1 -141q0 -69 10 -99q-14 -14 -35 -14q-15 0 -24.5 9.5t-9.5 25.5v219l-6 10l-189 389q-8 16 -29 40q19 19 43 19q15 0 24.5 -7.5t16.5 -23.5l177 -380l168 353q10 21 10 32q0 15 -5 21q11 5 32 5q30 0 32 -32q0 -13 -15 -39zM264 732q-4 2 -9 9.5
t-6 11.5l133 107q13 -6 26.5 -19t19.5 -27z" />
    <glyph glyph-name="Thorn" unicode="&#xde;" horiz-adv-x="548" 
d="M427.5 523.5q67.5 -49.5 67.5 -152.5q0 -113 -75.5 -167.5t-229.5 -54.5h-29v-46q0 -69 10 -99q-14 -14 -35 -14q-15 0 -24.5 9.5t-9.5 25.5l-1 562q0 65 -10 98q14 14 34 14q16 0 25 -9.5t9 -25.5v-91h56q145 0 212.5 -49.5zM374 226q57 46 57 141q0 90 -52.5 132
t-168.5 42h-51l2 -361h35q121 0 178 46z" />
    <glyph glyph-name="germandbls" unicode="&#xdf;" horiz-adv-x="597" 
d="M97 0.5q-8 9.5 -8 27.5l-1 413q0 150 55.5 219t163.5 69q80 0 123 -35t43 -103q0 -52 -21.5 -82t-60.5 -61q-28 -23 -40.5 -38t-12.5 -36q0 -29 23 -49t78 -51q57 -32 87.5 -63.5t30.5 -84.5q0 -57 -41 -97.5t-130 -40.5q-79 0 -116.5 34t-37.5 89q0 42 30 46h6
q8 0 12 -1q-5 -17 -5 -40q0 -47 30 -69.5t76 -22.5q51 0 82.5 24.5t31.5 68.5q0 29 -14.5 50t-34 34t-52.5 30q-61 33 -88 61.5t-27 68.5q0 35 17.5 58t54.5 52q39 31 58 55.5t19 64.5q0 51 -33.5 78.5t-90.5 27.5q-91 0 -124.5 -67.5t-33.5 -188.5v-181q0 -151 2 -192
t8 -63q-5 -5 -15 -9.5t-22 -4.5q-14 0 -22 9.5z" />
    <glyph glyph-name="agrave" unicode="&#xe0;" horiz-adv-x="543" 
d="M532 34q0 -19 -18 -31.5t-43 -12.5q-78 0 -78 107v55q-34 -76 -93.5 -119.5t-128.5 -43.5q-58 0 -90 31.5t-32 83.5q0 57 42.5 98t119.5 62q66 17 136 17q15 0 43 -2v26q0 91 -34 135.5t-109 44.5q-48 0 -82.5 -19.5t-34.5 -64.5q0 -22 12 -42.5t34 -27.5
q-13 -18 -39 -18q-29 0 -47.5 26t-18.5 59q0 59 48.5 89t134.5 30q100 0 148 -53t48 -162v-211q0 -53 37 -53q9 0 19 6t16 17q10 -11 10 -27zM283 64q46 32 76.5 83t31.5 105l-24 1q-38 0 -78.5 -5.5t-67.5 -15.5q-52 -17 -80 -47t-28 -71q0 -35 19.5 -58.5t60.5 -23.5
q44 0 90 32zM152.5 708q19.5 5 35.5 4l91 -145q-3 -3 -13 -5t-18 -1l-125 135q10 7 29.5 12z" />
    <glyph glyph-name="aacute" unicode="&#xe1;" horiz-adv-x="543" 
d="M532 34q0 -19 -18 -31.5t-43 -12.5q-78 0 -78 107v55q-34 -76 -93.5 -119.5t-128.5 -43.5q-58 0 -90 31.5t-32 83.5q0 57 42.5 98t119.5 62q66 17 136 17q15 0 43 -2v26q0 91 -34 135.5t-109 44.5q-48 0 -82.5 -19.5t-34.5 -64.5q0 -22 12 -42.5t34 -27.5
q-13 -18 -39 -18q-29 0 -47.5 26t-18.5 59q0 59 48.5 89t134.5 30q100 0 148 -53t48 -162v-211q0 -53 37 -53q9 0 19 6t16 17q10 -11 10 -27zM283 64q46 32 76.5 83t31.5 105l-24 1q-38 0 -78.5 -5.5t-67.5 -15.5q-52 -17 -80 -47t-28 -71q0 -35 19.5 -58.5t60.5 -23.5
q44 0 90 32zM262 561h-5q-22 0 -26 6l91 145q16 1 35.5 -4t29.5 -12z" />
    <glyph glyph-name="acircumflex" unicode="&#xe2;" horiz-adv-x="543" 
d="M532 34q0 -19 -18 -31.5t-43 -12.5q-78 0 -78 107v55q-34 -76 -93.5 -119.5t-128.5 -43.5q-58 0 -90 31.5t-32 83.5q0 57 42.5 98t119.5 62q66 17 136 17q15 0 43 -2v26q0 91 -34 135.5t-109 44.5q-48 0 -82.5 -19.5t-34.5 -64.5q0 -22 12 -42.5t34 -27.5
q-13 -18 -39 -18q-29 0 -47.5 26t-18.5 59q0 59 48.5 89t134.5 30q100 0 148 -53t48 -162v-211q0 -53 37 -53q9 0 19 6t16 17q10 -11 10 -27zM283 64q46 32 76.5 83t31.5 105l-24 1q-38 0 -78.5 -5.5t-67.5 -15.5q-52 -17 -80 -47t-28 -71q0 -35 19.5 -58.5t60.5 -23.5
q44 0 90 32zM131.5 562q-10.5 3 -11.5 7l115 129q9 3 24 3q12 0 21 -3l115 -129q-3 -4 -12.5 -7t-15.5 -3l-109 90l-109 -90q-7 0 -17.5 3z" />
    <glyph glyph-name="atilde" unicode="&#xe3;" horiz-adv-x="543" 
d="M532 34q0 -19 -18 -31.5t-43 -12.5q-78 0 -78 107v55q-34 -76 -93.5 -119.5t-128.5 -43.5q-58 0 -90 31.5t-32 83.5q0 57 42.5 98t119.5 62q66 17 136 17q15 0 43 -2v26q0 91 -34 135.5t-109 44.5q-48 0 -82.5 -19.5t-34.5 -64.5q0 -22 12 -42.5t34 -27.5
q-13 -18 -39 -18q-29 0 -47.5 26t-18.5 59q0 59 48.5 89t134.5 30q100 0 148 -53t48 -162v-211q0 -53 37 -53q9 0 19 6t16 17q10 -11 10 -27zM283 64q46 32 76.5 83t31.5 105l-24 1q-38 0 -78.5 -5.5t-67.5 -15.5q-52 -17 -80 -47t-28 -71q0 -35 19.5 -58.5t60.5 -23.5
q44 0 90 32zM370.5 603.5q-20.5 -21.5 -51.5 -21.5q-18 0 -30.5 6t-33.5 19q-17 12 -29.5 18t-27.5 6q-21 0 -37 -12t-22 -32h-2q-12 0 -19 9q6 38 29.5 58t54.5 20q18 0 32 -6.5t33 -19.5q16 -12 29.5 -18t28.5 -6q21 0 31.5 11.5t18.5 33.5q14 0 22 -8q-6 -36 -26.5 -57.5
z" />
    <glyph glyph-name="adieresis" unicode="&#xe4;" horiz-adv-x="543" 
d="M532 34q0 -19 -18 -31.5t-43 -12.5q-78 0 -78 107v55q-34 -76 -93.5 -119.5t-128.5 -43.5q-58 0 -90 31.5t-32 83.5q0 57 42.5 98t119.5 62q66 17 136 17q15 0 43 -2v26q0 91 -34 135.5t-109 44.5q-48 0 -82.5 -19.5t-34.5 -64.5q0 -22 12 -42.5t34 -27.5
q-13 -18 -39 -18q-29 0 -47.5 26t-18.5 59q0 59 48.5 89t134.5 30q100 0 148 -53t48 -162v-211q0 -53 37 -53q9 0 19 6t16 17q10 -11 10 -27zM283 64q46 32 76.5 83t31.5 105l-24 1q-38 0 -78.5 -5.5t-67.5 -15.5q-52 -17 -80 -47t-28 -71q0 -35 19.5 -58.5t60.5 -23.5
q44 0 90 32zM147.5 599q-12.5 13 -12.5 29q0 17 12.5 29.5t29.5 12.5t29.5 -12.5t12.5 -29.5t-12.5 -29.5t-29.5 -12.5t-29.5 13zM316.5 598.5q-12.5 12.5 -12.5 29.5t12 29.5t29 12.5t29.5 -12.5t12.5 -29.5t-12.5 -29.5t-29.5 -12.5q-16 0 -28.5 12.5z" />
    <glyph glyph-name="aring" unicode="&#xe5;" horiz-adv-x="543" 
d="M532 34q0 -19 -18 -31.5t-43 -12.5q-78 0 -78 107v55q-34 -76 -93.5 -119.5t-128.5 -43.5q-58 0 -90 31.5t-32 83.5q0 57 42.5 98t119.5 62q66 17 136 17q15 0 43 -2v26q0 91 -34 135.5t-109 44.5q-48 0 -82.5 -19.5t-34.5 -64.5q0 -22 12 -42.5t34 -27.5
q-13 -18 -39 -18q-29 0 -47.5 26t-18.5 59q0 59 48.5 89t134.5 30q100 0 148 -53t48 -162v-211q0 -53 37 -53q9 0 19 6t16 17q10 -11 10 -27zM283 64q46 32 76.5 83t31.5 105l-24 1q-38 0 -78.5 -5.5t-67.5 -15.5q-52 -17 -80 -47t-28 -71q0 -35 19.5 -58.5t60.5 -23.5
q44 0 90 32zM324.5 693.5q23.5 -21.5 23.5 -57.5q-1 -38 -25 -60.5t-64 -22.5q-38 0 -61.5 21.5t-23.5 57.5q0 38 24.5 60.5t64.5 22.5q38 0 61.5 -21.5zM224 674q-14 -15 -14 -40t14 -40t37 -15t37 15t14 40t-14 40t-37 15t-37 -15z" />
    <glyph glyph-name="ae" unicode="&#xe6;" horiz-adv-x="849" 
d="M797 102q0 -13 -6 -26q-18 -43 -64.5 -66t-108.5 -23q-87 0 -143 45t-75 131q-35 -80 -96.5 -127t-132.5 -47q-58 0 -90 31.5t-32 83.5q0 57 42.5 98t119.5 62q66 17 136 17q16 0 44 -2v26q0 91 -34 135.5t-108 44.5q-49 0 -84 -19.5t-35 -64.5q0 -22 12 -42.5t34 -27.5
q-13 -18 -39 -18q-29 0 -47.5 26t-18.5 59q0 59 49 89t135 30q132 0 174 -105q28 51 77.5 78t117.5 27q79 0 126.5 -37t47.5 -104q0 -74 -60.5 -112.5t-171.5 -38.5q-55 0 -111 8q5 -107 52.5 -154t122.5 -47q56 0 97.5 23t55.5 68q14 -5 14 -21zM501 428q-45 -57 -46 -165
q39 -5 98 -7q182 0 182 126q0 55 -33 79t-81 24q-75 0 -120 -57zM279.5 61.5q44.5 29.5 76 77t36.5 99.5v10v4l-25 1q-38 0 -78.5 -5.5t-67.5 -15.5q-52 -17 -80 -47t-28 -71q0 -35 19.5 -58.5t60.5 -23.5q42 0 86.5 29.5z" />
    <glyph glyph-name="ccedilla" unicode="&#xe7;" horiz-adv-x="503" 
d="M452 120q0 -9 -6 -26q-16 -49 -58.5 -76.5t-102.5 -30.5l-6 -32q41 0 65 -19.5t24 -52.5q0 -37 -27 -59.5t-70 -22.5q-56 0 -84 30v2q0 7 3.5 14.5t8.5 10.5q13 -10 25.5 -16t35.5 -6q24 0 38.5 11.5t14.5 34.5q0 47 -61 47l-15 -1l12 60q-95 7 -148 73.5t-53 186.5
q0 126 61 197.5t172 71.5q77 0 120.5 -34.5t43.5 -91.5q0 -33 -15.5 -53t-40.5 -20q-27 0 -39 18q18 4 26.5 19.5t8.5 39.5q0 45 -31.5 68t-79.5 23q-74 0 -118.5 -59.5t-44.5 -170.5q0 -118 48.5 -171t125.5 -53q57 0 98 27.5t54 82.5q15 -5 15 -22z" />
    <glyph glyph-name="egrave" unicode="&#xe8;" horiz-adv-x="505" 
d="M453 102q0 -13 -6 -26q-18 -43 -64.5 -66t-108.5 -23q-107 0 -166.5 67t-59.5 194q0 126 60 197.5t172 71.5q79 0 126.5 -37t47.5 -104q0 -74 -60 -112.5t-171 -38.5q-56 0 -112 8q5 -107 52.5 -154t122.5 -47q56 0 97.5 23t55.5 68q14 -5 14 -21zM157 428
q-45 -57 -46 -165q39 -5 99 -7q181 0 181 126q0 55 -33 79t-81 24q-75 0 -120 -57zM163.5 708q19.5 5 35.5 4l91 -145q-3 -3 -13 -5t-18 -1l-125 135q10 7 29.5 12z" />
    <glyph glyph-name="eacute" unicode="&#xe9;" horiz-adv-x="505" 
d="M453 102q0 -13 -6 -26q-18 -43 -64.5 -66t-108.5 -23q-107 0 -166.5 67t-59.5 194q0 126 60 197.5t172 71.5q79 0 126.5 -37t47.5 -104q0 -74 -60 -112.5t-171 -38.5q-56 0 -112 8q5 -107 52.5 -154t122.5 -47q56 0 97.5 23t55.5 68q14 -5 14 -21zM157 428
q-45 -57 -46 -165q39 -5 99 -7q181 0 181 126q0 55 -33 79t-81 24q-75 0 -120 -57zM273 561h-5q-22 0 -26 6l91 145q16 1 35.5 -4t29.5 -12z" />
    <glyph glyph-name="ecircumflex" unicode="&#xea;" horiz-adv-x="505" 
d="M453 102q0 -13 -6 -26q-18 -43 -64.5 -66t-108.5 -23q-107 0 -166.5 67t-59.5 194q0 126 60 197.5t172 71.5q79 0 126.5 -37t47.5 -104q0 -74 -60 -112.5t-171 -38.5q-56 0 -112 8q5 -107 52.5 -154t122.5 -47q56 0 97.5 23t55.5 68q14 -5 14 -21zM157 428
q-45 -57 -46 -165q39 -5 99 -7q181 0 181 126q0 55 -33 79t-81 24q-75 0 -120 -57zM141.5 562q-10.5 3 -11.5 7l115 129q9 3 24 3q12 0 21 -3l115 -129q-3 -4 -12.5 -7t-15.5 -3l-109 90l-109 -90q-7 0 -17.5 3z" />
    <glyph glyph-name="edieresis" unicode="&#xeb;" horiz-adv-x="505" 
d="M453 102q0 -13 -6 -26q-18 -43 -64.5 -66t-108.5 -23q-107 0 -166.5 67t-59.5 194q0 126 60 197.5t172 71.5q79 0 126.5 -37t47.5 -104q0 -74 -60 -112.5t-171 -38.5q-56 0 -112 8q5 -107 52.5 -154t122.5 -47q56 0 97.5 23t55.5 68q14 -5 14 -21zM157 428
q-45 -57 -46 -165q39 -5 99 -7q181 0 181 126q0 55 -33 79t-81 24q-75 0 -120 -57zM157.5 599q-12.5 13 -12.5 29q0 17 12.5 29.5t29.5 12.5t29.5 -12.5t12.5 -29.5t-12.5 -29.5t-29.5 -12.5t-29.5 13zM326.5 598.5q-12.5 12.5 -12.5 29.5t12 29.5t29 12.5t29.5 -12.5
t12.5 -29.5t-12.5 -29.5t-29.5 -12.5q-16 0 -28.5 12.5z" />
    <glyph glyph-name="igrave" unicode="&#xec;" horiz-adv-x="236" 
d="M155 4q-14 -14 -34 -14q-15 0 -24 9.5t-9 25.5l-2 380q0 68 -9 98q14 14 33 14q16 0 25 -9t9 -26l2 -379q0 -68 9 -99zM4.5 708q19.5 5 35.5 4l91 -145q-3 -3 -13 -5t-18 -1l-125 135q10 7 29.5 12z" />
    <glyph glyph-name="iacute" unicode="&#xed;" horiz-adv-x="236" 
d="M155 4q-14 -14 -34 -14q-15 0 -24 9.5t-9 25.5l-2 380q0 68 -9 98q14 14 33 14q16 0 25 -9t9 -26l2 -379q0 -68 9 -99zM114 561h-5q-22 0 -26 6l91 145q16 1 35.5 -4t29.5 -12z" />
    <glyph glyph-name="icircumflex" unicode="&#xee;" horiz-adv-x="236" 
d="M155 4q-14 -14 -34 -14q-15 0 -24 9.5t-9 25.5l-2 380q0 68 -9 98q14 14 33 14q16 0 25 -9t9 -26l2 -379q0 -68 9 -99zM-16.5 562q-10.5 3 -11.5 7l115 129q9 3 24 3q12 0 21 -3l115 -129q-3 -4 -12.5 -7t-15.5 -3l-109 90l-109 -90q-7 0 -17.5 3z" />
    <glyph glyph-name="idieresis" unicode="&#xef;" horiz-adv-x="236" 
d="M155 4q-14 -14 -34 -14q-15 0 -24 9.5t-9 25.5l-2 380q0 68 -9 98q14 14 33 14q16 0 25 -9t9 -26l2 -379q0 -68 9 -99zM-0.5 599q-12.5 13 -12.5 29q0 17 12.5 29.5t29.5 12.5t29.5 -12.5t12.5 -29.5t-12.5 -29.5t-29.5 -12.5t-29.5 13zM168.5 598.5
q-12.5 12.5 -12.5 29.5t12 29.5t29 12.5t29.5 -12.5t12.5 -29.5t-12.5 -29.5t-29.5 -12.5q-16 0 -28.5 12.5z" />
    <glyph glyph-name="eth" unicode="&#xf0;" horiz-adv-x="511" 
d="M438.5 480.5q24.5 -89.5 24.5 -193.5q0 -137 -51.5 -218.5t-163.5 -81.5q-115 0 -157.5 74t-42.5 175q0 116 54.5 188.5t152.5 72.5q43 0 78 -15t56 -42q-19 91 -75 161l-84 -46q-15 12 -15 28l76 42q-29 29 -61 44.5t-62 15.5l-24 -1q-2 17 9 31.5t30 14.5q96 0 164 -74
l78 43q14 -7 16 -28l-73 -40q46 -61 70.5 -150.5zM362.5 93q36.5 65 36.5 176q0 80 -30.5 134.5t-104.5 54.5q-72 0 -112.5 -57.5t-40.5 -154.5q0 -218 138 -218q77 0 113.5 65z" />
    <glyph glyph-name="ntilde" unicode="&#xf1;" horiz-adv-x="569" 
d="M497 4q-16 -14 -35 -14q-15 0 -25 9.5t-10 25.5v276q-1 90 -28 133.5t-89 43.5q-37 0 -72.5 -23t-59 -75.5t-23.5 -135.5q0 -138 1.5 -177.5t9.5 -62.5q-14 -14 -34 -14q-16 0 -25.5 10t-9.5 27v390q-1 28 -7.5 39.5t-21.5 11.5q-19 0 -27 -17q-11 16 -11 28q0 17 14 27
t38 10q69 0 69 -93v-32q22 60 68 93t106 33q161 0 161 -211v-203q2 -72 11 -99zM402.5 603.5q-20.5 -21.5 -51.5 -21.5q-18 0 -30.5 6t-33.5 19q-17 12 -29.5 18t-27.5 6q-21 0 -37 -12t-22 -32h-2q-12 0 -19 9q6 38 29.5 58t54.5 20q18 0 32 -6.5t33 -19.5q16 -12 29.5 -18
t28.5 -6q21 0 31.5 11.5t18.5 33.5q14 0 22 -8q-6 -36 -26.5 -57.5z" />
    <glyph glyph-name="ograve" unicode="&#xf2;" horiz-adv-x="542" 
d="M106.5 57q-58.5 70 -58.5 195t58.5 195t164.5 70q105 0 164 -70t59 -195t-59 -195t-164 -70q-106 0 -164.5 70zM388.5 80.5q41.5 60.5 41.5 171.5t-41.5 171.5t-117.5 60.5q-77 0 -118.5 -60.5t-41.5 -171.5t41.5 -171.5t118.5 -60.5q76 0 117.5 60.5zM164.5 708
q19.5 5 35.5 4l91 -145q-3 -3 -13 -5t-18 -1l-125 135q10 7 29.5 12z" />
    <glyph glyph-name="oacute" unicode="&#xf3;" horiz-adv-x="542" 
d="M106.5 57q-58.5 70 -58.5 195t58.5 195t164.5 70q105 0 164 -70t59 -195t-59 -195t-164 -70q-106 0 -164.5 70zM388.5 80.5q41.5 60.5 41.5 171.5t-41.5 171.5t-117.5 60.5q-77 0 -118.5 -60.5t-41.5 -171.5t41.5 -171.5t118.5 -60.5q76 0 117.5 60.5zM274 561h-5
q-22 0 -26 6l91 145q16 1 35.5 -4t29.5 -12z" />
    <glyph glyph-name="ocircumflex" unicode="&#xf4;" horiz-adv-x="542" 
d="M106.5 57q-58.5 70 -58.5 195t58.5 195t164.5 70q105 0 164 -70t59 -195t-59 -195t-164 -70q-106 0 -164.5 70zM388.5 80.5q41.5 60.5 41.5 171.5t-41.5 171.5t-117.5 60.5q-77 0 -118.5 -60.5t-41.5 -171.5t41.5 -171.5t118.5 -60.5q76 0 117.5 60.5zM143.5 562
q-10.5 3 -11.5 7l115 129q9 3 24 3q12 0 21 -3l115 -129q-3 -4 -12.5 -7t-15.5 -3l-109 90l-109 -90q-7 0 -17.5 3z" />
    <glyph glyph-name="otilde" unicode="&#xf5;" horiz-adv-x="542" 
d="M106.5 57q-58.5 70 -58.5 195t58.5 195t164.5 70q105 0 164 -70t59 -195t-59 -195t-164 -70q-106 0 -164.5 70zM388.5 80.5q41.5 60.5 41.5 171.5t-41.5 171.5t-117.5 60.5q-77 0 -118.5 -60.5t-41.5 -171.5t41.5 -171.5t118.5 -60.5q76 0 117.5 60.5zM382.5 603.5
q-20.5 -21.5 -51.5 -21.5q-18 0 -30.5 6t-33.5 19q-17 12 -29.5 18t-27.5 6q-21 0 -37 -12t-22 -32h-2q-12 0 -19 9q6 38 29.5 58t54.5 20q18 0 32 -6.5t33 -19.5q16 -12 29.5 -18t28.5 -6q21 0 31.5 11.5t18.5 33.5q14 0 22 -8q-6 -36 -26.5 -57.5z" />
    <glyph glyph-name="odieresis" unicode="&#xf6;" horiz-adv-x="542" 
d="M106.5 57q-58.5 70 -58.5 195t58.5 195t164.5 70q105 0 164 -70t59 -195t-59 -195t-164 -70q-106 0 -164.5 70zM388.5 80.5q41.5 60.5 41.5 171.5t-41.5 171.5t-117.5 60.5q-77 0 -118.5 -60.5t-41.5 -171.5t41.5 -171.5t118.5 -60.5q76 0 117.5 60.5zM159.5 599
q-12.5 13 -12.5 29q0 17 12.5 29.5t29.5 12.5t29.5 -12.5t12.5 -29.5t-12.5 -29.5t-29.5 -12.5t-29.5 13zM328.5 598.5q-12.5 12.5 -12.5 29.5t12 29.5t29 12.5t29.5 -12.5t12.5 -29.5t-12.5 -29.5t-29.5 -12.5q-16 0 -28.5 12.5z" />
    <glyph glyph-name="divide" unicode="&#xf7;" horiz-adv-x="553" 
d="M249.5 485.5q-11.5 11.5 -11.5 27.5t11.5 27.5t27.5 11.5t27.5 -11.5t11.5 -27.5t-11.5 -27.5t-27.5 -11.5t-27.5 11.5zM473 372q4 -9 4 -21t-4 -21h-393q-4 9 -4 21t4 21h393zM249.5 162q-11.5 11 -11.5 27t11.5 27.5t27.5 11.5t27.5 -11.5t11.5 -27.5t-11.5 -27
t-27.5 -11t-27.5 11z" />
    <glyph glyph-name="oslash" unicode="&#xf8;" horiz-adv-x="542" 
d="M475 375.5q19 -53.5 19 -123.5q0 -125 -59 -195t-164 -70q-73 0 -122 33l-20 -33q-19 1 -27 15l22 37q-37 34 -56.5 88t-19.5 125q0 125 58.5 195t164.5 70q72 0 123 -34l20 33q18 0 28 -16l-22 -37q36 -34 55 -87.5zM151 83l220 362q-41 39 -100 39q-77 0 -118.5 -60.5
t-41.5 -171.5q0 -109 40 -169zM388.5 80.5q41.5 60.5 41.5 171.5q0 107 -38 166l-220 -360q40 -38 99 -38q76 0 117.5 60.5z" />
    <glyph glyph-name="ugrave" unicode="&#xf9;" horiz-adv-x="560" 
d="M530 29q0 -17 -13.5 -27t-37.5 -10q-70 0 -70 92v31q-21 -60 -66.5 -94t-103.5 -34q-81 0 -118 49t-38 165v203q0 65 -10 99q16 14 34 14q15 0 24.5 -9.5t9.5 -25.5l1 -275q0 -69 11 -108t35 -56.5t66 -17.5q36 0 70.5 24t57.5 77.5t23 137.5q0 138 -1.5 177t-8.5 62
q14 14 34 14q15 0 24.5 -10t9.5 -27l1 -390q0 -28 6.5 -39t22.5 -11q18 0 26 16q11 -14 11 -27zM161.5 708q19.5 5 35.5 4l91 -145q-3 -3 -13 -5t-18 -1l-125 135q10 7 29.5 12z" />
    <glyph glyph-name="uacute" unicode="&#xfa;" horiz-adv-x="560" 
d="M530 29q0 -17 -13.5 -27t-37.5 -10q-70 0 -70 92v31q-21 -60 -66.5 -94t-103.5 -34q-81 0 -118 49t-38 165v203q0 65 -10 99q16 14 34 14q15 0 24.5 -9.5t9.5 -25.5l1 -275q0 -69 11 -108t35 -56.5t66 -17.5q36 0 70.5 24t57.5 77.5t23 137.5q0 138 -1.5 177t-8.5 62
q14 14 34 14q15 0 24.5 -10t9.5 -27l1 -390q0 -28 6.5 -39t22.5 -11q18 0 26 16q11 -14 11 -27zM271 561h-5q-22 0 -26 6l91 145q16 1 35.5 -4t29.5 -12z" />
    <glyph glyph-name="ucircumflex" unicode="&#xfb;" horiz-adv-x="560" 
d="M530 29q0 -17 -13.5 -27t-37.5 -10q-70 0 -70 92v31q-21 -60 -66.5 -94t-103.5 -34q-81 0 -118 49t-38 165v203q0 65 -10 99q16 14 34 14q15 0 24.5 -9.5t9.5 -25.5l1 -275q0 -69 11 -108t35 -56.5t66 -17.5q36 0 70.5 24t57.5 77.5t23 137.5q0 138 -1.5 177t-8.5 62
q14 14 34 14q15 0 24.5 -10t9.5 -27l1 -390q0 -28 6.5 -39t22.5 -11q18 0 26 16q11 -14 11 -27zM139.5 562q-10.5 3 -11.5 7l115 129q9 3 24 3q12 0 21 -3l115 -129q-3 -4 -12.5 -7t-15.5 -3l-109 90l-109 -90q-7 0 -17.5 3z" />
    <glyph glyph-name="udieresis" unicode="&#xfc;" horiz-adv-x="560" 
d="M530 29q0 -17 -13.5 -27t-37.5 -10q-70 0 -70 92v31q-21 -60 -66.5 -94t-103.5 -34q-81 0 -118 49t-38 165v203q0 65 -10 99q16 14 34 14q15 0 24.5 -9.5t9.5 -25.5l1 -275q0 -69 11 -108t35 -56.5t66 -17.5q36 0 70.5 24t57.5 77.5t23 137.5q0 138 -1.5 177t-8.5 62
q14 14 34 14q15 0 24.5 -10t9.5 -27l1 -390q0 -28 6.5 -39t22.5 -11q18 0 26 16q11 -14 11 -27zM155.5 599q-12.5 13 -12.5 29q0 17 12.5 29.5t29.5 12.5t29.5 -12.5t12.5 -29.5t-12.5 -29.5t-29.5 -12.5t-29.5 13zM324.5 598.5q-12.5 12.5 -12.5 29.5t12 29.5t29 12.5
t29.5 -12.5t12.5 -29.5t-12.5 -29.5t-29.5 -12.5q-16 0 -28.5 12.5z" />
    <glyph glyph-name="yacute" unicode="&#xfd;" horiz-adv-x="542" 
d="M464 48q0 -284 -226 -284q-68 0 -115.5 26.5t-47.5 82.5q0 26 13 44.5t35 18.5q21 0 30 -13q-13 -7 -18 -20t-5 -25q0 -43 32 -62.5t75 -19.5q88 0 129 63t41 195q0 21 2 69q-21 -62 -66.5 -97t-110.5 -35q-75 0 -111.5 49.5t-37.5 163.5v200q0 65 -10 99q16 14 34 14
q15 0 24.5 -9.5t9.5 -25.5l1 -273q0 -96 24 -138t79 -42q67 0 113.5 58t46.5 184q0 134 -1.5 172t-8.5 60q14 14 34 14q15 0 24.5 -10t9.5 -27zM281 561h-5q-22 0 -26 6l91 145q16 1 35.5 -4t29.5 -12z" />
    <glyph glyph-name="thorn" unicode="&#xfe;" horiz-adv-x="547" 
d="M463.5 445.5q35.5 -71.5 35.5 -167.5q0 -136 -54 -212t-154 -76q-53 0 -90 22t-53 63v-151q0 -36 2.5 -76t7.5 -59q-14 -14 -34 -14q-16 0 -26 9.5t-10 25.5v884q0 35 34 35q21 0 35 -14q-10 -34 -11 -124v-216q25 65 71 103.5t113 38.5q98 0 133.5 -71.5zM396 91.5
q41 62.5 41 185.5q0 84 -24.5 142t-95.5 58q-51 0 -89.5 -35.5t-59 -96t-20.5 -133.5q0 -82 28.5 -132.5t102.5 -50.5q76 0 117 62.5z" />
    <glyph glyph-name="ydieresis" unicode="&#xff;" horiz-adv-x="542" 
d="M464 48q0 -284 -226 -284q-68 0 -115.5 26.5t-47.5 82.5q0 26 13 44.5t35 18.5q21 0 30 -13q-13 -7 -18 -20t-5 -25q0 -43 32 -62.5t75 -19.5q88 0 129 63t41 195q0 21 2 69q-21 -62 -66.5 -97t-110.5 -35q-75 0 -111.5 49.5t-37.5 163.5v200q0 65 -10 99q16 14 34 14
q15 0 24.5 -9.5t9.5 -25.5l1 -273q0 -96 24 -138t79 -42q67 0 113.5 58t46.5 184q0 134 -1.5 172t-8.5 60q14 14 34 14q15 0 24.5 -10t9.5 -27zM166.5 599q-12.5 13 -12.5 29q0 17 12.5 29.5t29.5 12.5t29.5 -12.5t12.5 -29.5t-12.5 -29.5t-29.5 -12.5t-29.5 13z
M335.5 598.5q-12.5 12.5 -12.5 29.5t12 29.5t29 12.5t29.5 -12.5t12.5 -29.5t-12.5 -29.5t-29.5 -12.5q-16 0 -28.5 12.5z" />
    <glyph glyph-name="Amacron" unicode="&#x100;" horiz-adv-x="580" 
d="M568 5q-13 -15 -34 -15q-15 0 -25.5 6.5t-13.5 18.5l-68 211h-277l-58 -183q-6 -16 -6 -28q0 -13 5 -19q-15 -6 -33 -6q-34 0 -34 29q0 7 3.5 19t4.5 18l219 637q25 11 47 11q31 0 39 -25l210 -634q9 -25 21 -40zM414 265l-127 395l-125 -395h252zM414 807q4 -12 4 -19
q0 -5 -4 -19h-248q-3 11 -3 19q0 10 3 19h248z" />
    <glyph glyph-name="amacron" unicode="&#x101;" horiz-adv-x="543" 
d="M532 34q0 -19 -18 -31.5t-43 -12.5q-78 0 -78 107v55q-34 -76 -93.5 -119.5t-128.5 -43.5q-58 0 -90 31.5t-32 83.5q0 57 42.5 98t119.5 62q66 17 136 17q15 0 43 -2v26q0 91 -34 135.5t-109 44.5q-48 0 -82.5 -19.5t-34.5 -64.5q0 -22 12 -42.5t34 -27.5
q-13 -18 -39 -18q-29 0 -47.5 26t-18.5 59q0 59 48.5 89t134.5 30q100 0 148 -53t48 -162v-211q0 -53 37 -53q9 0 19 6t16 17q10 -11 10 -27zM283 64q46 32 76.5 83t31.5 105l-24 1q-38 0 -78.5 -5.5t-67.5 -15.5q-52 -17 -80 -47t-28 -71q0 -35 19.5 -58.5t60.5 -23.5
q44 0 90 32zM382 636q4 -12 4 -18t-4 -18h-248q-3 9 -3 18t3 18h248z" />
    <glyph glyph-name="Abreve" unicode="&#x102;" horiz-adv-x="580" 
d="M568 5q-13 -15 -34 -15q-15 0 -25.5 6.5t-13.5 18.5l-68 211h-277l-58 -183q-6 -16 -6 -28q0 -13 5 -19q-15 -6 -33 -6q-34 0 -34 29q0 7 3.5 19t4.5 18l219 637q25 11 47 11q31 0 39 -25l210 -634q9 -25 21 -40zM414 265l-127 395l-125 -395h252zM368.5 759
q-32.5 -26 -79.5 -26t-78.5 26t-45.5 65l31 15q13 -30 38 -46.5t61 -16.5q35 0 58.5 17t35.5 45q13 -5 29 -10q-17 -43 -49.5 -69z" />
    <glyph glyph-name="abreve" unicode="&#x103;" horiz-adv-x="543" 
d="M532 34q0 -19 -18 -31.5t-43 -12.5q-78 0 -78 107v55q-34 -76 -93.5 -119.5t-128.5 -43.5q-58 0 -90 31.5t-32 83.5q0 57 42.5 98t119.5 62q66 17 136 17q15 0 43 -2v26q0 91 -34 135.5t-109 44.5q-48 0 -82.5 -19.5t-34.5 -64.5q0 -22 12 -42.5t34 -27.5
q-13 -18 -39 -18q-29 0 -47.5 26t-18.5 59q0 59 48.5 89t134.5 30q100 0 148 -53t48 -162v-211q0 -53 37 -53q9 0 19 6t16 17q10 -11 10 -27zM283 64q46 32 76.5 83t31.5 105l-24 1q-38 0 -78.5 -5.5t-67.5 -15.5q-52 -17 -80 -47t-28 -71q0 -35 19.5 -58.5t60.5 -23.5
q44 0 90 32zM367 690q20 -4 30 -8q-13 -50 -48.5 -83t-89.5 -33q-62 0 -97.5 34.5t-45.5 78.5q11 9 30 12q13 -32 41.5 -56t72.5 -24q75 0 107 79z" />
    <glyph glyph-name="Aogonek" unicode="&#x104;" horiz-adv-x="580" 
d="M621 -113q-14 -29 -41.5 -45.5t-62.5 -16.5t-61 19t-26 57q0 60 77 97q-9 6 -12 17l-68 211h-277l-58 -183q-6 -16 -6 -28q0 -13 5 -19q-15 -6 -33 -6q-34 0 -34 29q0 7 3.5 19t4.5 18l219 637q25 11 47 11q31 0 39 -25l210 -634q9 -25 21 -40q-11 -11 -21 -13
q-36 -19 -53 -38t-17 -46q0 -23 13 -37t38 -14q29 0 50.5 16t33.5 37q13 -8 9 -23zM414 265l-127 395l-125 -395h252z" />
    <glyph glyph-name="aogonek" unicode="&#x105;" horiz-adv-x="543" 
d="M568 -112q-14 -29 -41.5 -45.5t-62.5 -16.5t-61 19t-26 57q0 57 67 92q-51 16 -51 103v55q-34 -76 -93.5 -119.5t-128.5 -43.5q-58 0 -90 31.5t-32 83.5q0 57 42.5 98t119.5 62q66 17 136 17q15 0 43 -2v26q0 91 -34 135.5t-109 44.5q-48 0 -82.5 -19.5t-34.5 -64.5
q0 -22 12 -42.5t34 -27.5q-13 -18 -39 -18q-29 0 -47.5 26t-18.5 59q0 59 48.5 89t134.5 30q100 0 148 -53t48 -162v-211q0 -53 37 -53q9 0 19 6t16 17q10 -11 10 -27q0 -13 -9.5 -24t-25.5 -16q-37 -19 -55 -38t-18 -47q0 -23 13 -37t38 -14q29 0 50.5 16t33.5 37
q13 -8 9 -23zM283 64q46 32 76.5 83t31.5 105l-24 1q-38 0 -78.5 -5.5t-67.5 -15.5q-52 -17 -80 -47t-28 -71q0 -35 19.5 -58.5t60.5 -23.5q44 0 90 32z" />
    <glyph glyph-name="Cacute" unicode="&#x106;" horiz-adv-x="588" 
d="M131.5 79q-67.5 92 -67.5 266t68 266t193 92q52 0 95 -13t68.5 -34.5t25.5 -45.5q0 -15 -13.5 -25t-34.5 -7q-8 44 -45.5 68t-95.5 24q-95 0 -145.5 -82.5t-50.5 -242.5q0 -159 50.5 -241.5t144.5 -82.5q57 0 103 31t58 85q21 2 35 -5.5t14 -24.5q0 -29 -29.5 -57
t-78.5 -45.5t-104 -17.5q-123 0 -190.5 92zM304 732q-4 2 -9 9.5t-6 11.5l133 107q13 -6 26.5 -19t19.5 -27z" />
    <glyph glyph-name="cacute" unicode="&#x107;" horiz-adv-x="503" 
d="M107 54q-59 67 -59 194q0 126 61 197.5t172 71.5q77 0 120.5 -34.5t43.5 -91.5q0 -33 -15.5 -53t-40.5 -20q-27 0 -39 18q18 4 26.5 19.5t8.5 39.5q0 45 -31.5 68t-79.5 23q-74 0 -118.5 -59.5t-44.5 -170.5q0 -118 48.5 -171t125.5 -53q57 0 98 27.5t54 82.5
q15 -5 15 -22q0 -9 -6 -26q-17 -52 -63 -79.5t-112 -27.5q-105 0 -164 67zM276 561h-5q-22 0 -26 6l91 145q16 1 35.5 -4t29.5 -12z" />
    <glyph glyph-name="Ccircumflex" unicode="&#x108;" horiz-adv-x="588" 
d="M131.5 79q-67.5 92 -67.5 266t68 266t193 92q52 0 95 -13t68.5 -34.5t25.5 -45.5q0 -15 -13.5 -25t-34.5 -7q-8 44 -45.5 68t-95.5 24q-95 0 -145.5 -82.5t-50.5 -242.5q0 -159 50.5 -241.5t144.5 -82.5q57 0 103 31t58 85q21 2 35 -5.5t14 -24.5q0 -29 -29.5 -57
t-78.5 -45.5t-104 -17.5q-123 0 -190.5 92zM466 749q-2 -5 -7.5 -11t-10.5 -8l-125 78l-126 -78q-5 2 -11 8.5t-7 10.5l121 107q6 2 22 2q17 0 23 -2z" />
    <glyph glyph-name="ccircumflex" unicode="&#x109;" horiz-adv-x="503" 
d="M107 54q-59 67 -59 194q0 126 61 197.5t172 71.5q77 0 120.5 -34.5t43.5 -91.5q0 -33 -15.5 -53t-40.5 -20q-27 0 -39 18q18 4 26.5 19.5t8.5 39.5q0 45 -31.5 68t-79.5 23q-74 0 -118.5 -59.5t-44.5 -170.5q0 -118 48.5 -171t125.5 -53q57 0 98 27.5t54 82.5
q15 -5 15 -22q0 -9 -6 -26q-17 -52 -63 -79.5t-112 -27.5q-105 0 -164 67zM145.5 562q-10.5 3 -11.5 7l115 129q9 3 24 3q12 0 21 -3l115 -129q-3 -4 -12.5 -7t-15.5 -3l-109 90l-109 -90q-7 0 -17.5 3z" />
    <glyph glyph-name="Cdotaccent" unicode="&#x10a;" horiz-adv-x="588" 
d="M131.5 79q-67.5 92 -67.5 266t68 266t193 92q52 0 95 -13t68.5 -34.5t25.5 -45.5q0 -15 -13.5 -25t-34.5 -7q-8 44 -45.5 68t-95.5 24q-95 0 -145.5 -82.5t-50.5 -242.5q0 -159 50.5 -241.5t144.5 -82.5q57 0 103 31t58 85q21 2 35 -5.5t14 -24.5q0 -29 -29.5 -57
t-78.5 -45.5t-104 -17.5q-123 0 -190.5 92zM293.5 765q-13.5 13 -13.5 31t13.5 31t30.5 13q18 0 31 -13t13 -31t-13 -31t-31 -13q-17 0 -30.5 13z" />
    <glyph glyph-name="cdotaccent" unicode="&#x10b;" horiz-adv-x="503" 
d="M107 54q-59 67 -59 194q0 126 61 197.5t172 71.5q77 0 120.5 -34.5t43.5 -91.5q0 -33 -15.5 -53t-40.5 -20q-27 0 -39 18q18 4 26.5 19.5t8.5 39.5q0 45 -31.5 68t-79.5 23q-74 0 -118.5 -59.5t-44.5 -170.5q0 -118 48.5 -171t125.5 -53q57 0 98 27.5t54 82.5
q15 -5 15 -22q0 -9 -6 -26q-17 -52 -63 -79.5t-112 -27.5q-105 0 -164 67zM241 586q-13 13 -13 31t13 31t31 13q17 0 30.5 -13t13.5 -31t-13.5 -31t-30.5 -13q-18 0 -31 13z" />
    <glyph glyph-name="Ccaron" unicode="&#x10c;" horiz-adv-x="588" 
d="M131.5 79q-67.5 92 -67.5 266t68 266t193 92q52 0 95 -13t68.5 -34.5t25.5 -45.5q0 -15 -13.5 -25t-34.5 -7q-8 44 -45.5 68t-95.5 24q-95 0 -145.5 -82.5t-50.5 -242.5q0 -159 50.5 -241.5t144.5 -82.5q57 0 103 31t58 85q21 2 35 -5.5t14 -24.5q0 -29 -29.5 -57
t-78.5 -45.5t-104 -17.5q-123 0 -190.5 92zM323 734q-13 0 -22 3l-122 107q3 5 8.5 11t9.5 8l126 -78l125 78q5 -2 10.5 -8t7.5 -11l-121 -107q-9 -3 -22 -3z" />
    <glyph glyph-name="ccaron" unicode="&#x10d;" horiz-adv-x="503" 
d="M107 54q-59 67 -59 194q0 126 61 197.5t172 71.5q77 0 120.5 -34.5t43.5 -91.5q0 -33 -15.5 -53t-40.5 -20q-27 0 -39 18q18 4 26.5 19.5t8.5 39.5q0 45 -31.5 68t-79.5 23q-74 0 -118.5 -59.5t-44.5 -170.5q0 -118 48.5 -171t125.5 -53q57 0 98 27.5t54 82.5
q15 -5 15 -22q0 -9 -6 -26q-17 -52 -63 -79.5t-112 -27.5q-105 0 -164 67zM273 615l109 90q6 0 15.5 -3t12.5 -7l-115 -130q-10 -2 -20 -2q-11 0 -25 2l-115 130q1 3 11.5 6.5t17.5 3.5z" />
    <glyph glyph-name="Dcaron" unicode="&#x10e;" horiz-adv-x="636" 
d="M110 9q-9 9 -9 26l-2 552q0 82 -8 109q79 6 202 6q136 0 207.5 -88t71.5 -266q0 -180 -70.5 -264t-206.5 -84h-160q-16 0 -25 9zM293 33q106 0 160 74t54 238q0 324 -214 324h-135l1 -636h134zM306 734q-13 0 -22 3l-122 107q3 5 8.5 11t9.5 8l126 -78l125 78
q5 -2 10.5 -8t7.5 -11l-121 -107q-9 -3 -22 -3z" />
    <glyph glyph-name="dcaron" unicode="&#x10f;" horiz-adv-x="593" 
d="M562 596h-31q2 26 2 40q0 53 -11 96q15 5 29 5q15 0 28 -5q3 -66 -17 -136zM516 57q10 -14 10 -28q0 -16 -15 -26.5t-38 -10.5q-71 0 -71 108v32q-25 -67 -71 -106t-114 -39q-97 0 -133 71.5t-36 168.5q0 137 54 213.5t154 76.5q54 0 91 -22.5t53 -64.5l-1 167
q0 84 -10 118q14 14 35 14q16 0 25.5 -9t9.5 -26l-1 -603q0 -51 31 -51q19 0 27 17zM319.5 63.5q38.5 35.5 59 96.5t20.5 136q0 77 -30.5 129.5t-107.5 52.5q-71 0 -110.5 -63t-39.5 -186q0 -86 24 -143.5t95 -57.5q51 0 89.5 35.5z" />
    <glyph glyph-name="Dcroat" unicode="&#x110;" horiz-adv-x="630" 
d="M500.5 614q71.5 -88 71.5 -266q0 -180 -70.5 -264t-206.5 -84h-160q-16 0 -25 9t-9 26l-1 298h-75q-3 8 -3 16q0 9 3 16h75l-1 222q0 82 -8 109q79 6 202 6q136 0 207.5 -88zM453 107q54 74 54 238q0 324 -214 324h-135v-304h160q4 -7 4 -16t-4 -16h-159v-300h134
q106 0 160 74z" />
    <glyph glyph-name="dcroat" unicode="&#x111;" horiz-adv-x="560" 
d="M459 585l-1 -494q0 -51 31 -51q19 0 27 17q10 -14 10 -28q0 -16 -15 -26.5t-38 -10.5q-71 0 -71 108v32q-25 -67 -71 -106t-114 -39q-97 0 -133 71.5t-36 168.5q0 137 54 213.5t154 76.5q54 0 91 -22.5t53 -64.5l-1 155h-115q-4 10 -4 16t4 16h115q-2 71 -10 98
q14 14 35 14q16 0 25.5 -9t9.5 -26v-77h73q3 -7 3 -16q0 -8 -3 -16h-73zM319.5 63.5q38.5 35.5 59 96.5t20.5 136q0 77 -30.5 129.5t-107.5 52.5q-71 0 -110.5 -63t-39.5 -186q0 -86 24 -143.5t95 -57.5q51 0 89.5 35.5z" />
    <glyph glyph-name="Emacron" unicode="&#x112;" horiz-adv-x="531" 
d="M464.5 41.5q3.5 -8.5 3.5 -18.5q0 -23 -15 -23h-317q-15 0 -24.5 9.5t-9.5 25.5l-1 547q0 60 -10 93q9 9 19.5 12.5t27.5 3.5h307q12 0 12 -17q0 -11 -5 -21.5t-13 -13.5q-160 14 -280 15l1 -269h257q3 -9 3 -20q0 -10 -3 -19h-257l1 -310q121 1 294 17q6 -3 9.5 -11.5z
M401 807q4 -12 4 -19q0 -5 -4 -19h-248q-3 11 -3 19q0 10 3 19h248z" />
    <glyph glyph-name="emacron" unicode="&#x113;" horiz-adv-x="505" 
d="M453 102q0 -13 -6 -26q-18 -43 -64.5 -66t-108.5 -23q-107 0 -166.5 67t-59.5 194q0 126 60 197.5t172 71.5q79 0 126.5 -37t47.5 -104q0 -74 -60 -112.5t-171 -38.5q-56 0 -112 8q5 -107 52.5 -154t122.5 -47q56 0 97.5 23t55.5 68q14 -5 14 -21zM157 428
q-45 -57 -46 -165q39 -5 99 -7q181 0 181 126q0 55 -33 79t-81 24q-75 0 -120 -57zM393 636q4 -12 4 -18t-4 -18h-248q-3 9 -3 18t3 18h248z" />
    <glyph glyph-name="Ebreve" unicode="&#x114;" horiz-adv-x="531" 
d="M464.5 41.5q3.5 -8.5 3.5 -18.5q0 -23 -15 -23h-317q-15 0 -24.5 9.5t-9.5 25.5l-1 547q0 60 -10 93q9 9 19.5 12.5t27.5 3.5h307q12 0 12 -17q0 -11 -5 -21.5t-13 -13.5q-160 14 -280 15l1 -269h257q3 -9 3 -20q0 -10 -3 -19h-257l1 -310q121 1 294 17q6 -3 9.5 -11.5z
M354.5 759q-32.5 -26 -79.5 -26t-78.5 26t-45.5 65l31 15q13 -30 38 -46.5t61 -16.5q35 0 58.5 17t35.5 45q13 -5 29 -10q-17 -43 -49.5 -69z" />
    <glyph glyph-name="ebreve" unicode="&#x115;" horiz-adv-x="505" 
d="M453 102q0 -13 -6 -26q-18 -43 -64.5 -66t-108.5 -23q-107 0 -166.5 67t-59.5 194q0 126 60 197.5t172 71.5q79 0 126.5 -37t47.5 -104q0 -74 -60 -112.5t-171 -38.5q-56 0 -112 8q5 -107 52.5 -154t122.5 -47q56 0 97.5 23t55.5 68q14 -5 14 -21zM157 428
q-45 -57 -46 -165q39 -5 99 -7q181 0 181 126q0 55 -33 79t-81 24q-75 0 -120 -57zM377 690q20 -4 30 -8q-13 -50 -48.5 -83t-89.5 -33q-62 0 -97.5 34.5t-45.5 78.5q11 9 30 12q13 -32 41.5 -56t72.5 -24q75 0 107 79z" />
    <glyph glyph-name="Edotaccent" unicode="&#x116;" horiz-adv-x="531" 
d="M464.5 41.5q3.5 -8.5 3.5 -18.5q0 -23 -15 -23h-317q-15 0 -24.5 9.5t-9.5 25.5l-1 547q0 60 -10 93q9 9 19.5 12.5t27.5 3.5h307q12 0 12 -17q0 -11 -5 -21.5t-13 -13.5q-160 14 -280 15l1 -269h257q3 -9 3 -20q0 -10 -3 -19h-257l1 -310q121 1 294 17q6 -3 9.5 -11.5z
M246.5 765q-13.5 13 -13.5 31t13.5 31t30.5 13q18 0 31 -13t13 -31t-13 -31t-31 -13q-17 0 -30.5 13z" />
    <glyph glyph-name="edotaccent" unicode="&#x117;" horiz-adv-x="505" 
d="M453 102q0 -13 -6 -26q-18 -43 -64.5 -66t-108.5 -23q-107 0 -166.5 67t-59.5 194q0 126 60 197.5t172 71.5q79 0 126.5 -37t47.5 -104q0 -74 -60 -112.5t-171 -38.5q-56 0 -112 8q5 -107 52.5 -154t122.5 -47q56 0 97.5 23t55.5 68q14 -5 14 -21zM157 428
q-45 -57 -46 -165q39 -5 99 -7q181 0 181 126q0 55 -33 79t-81 24q-75 0 -120 -57zM237 586q-13 13 -13 31t13 31t31 13q17 0 30.5 -13t13.5 -31t-13.5 -31t-30.5 -13q-18 0 -31 13z" />
    <glyph glyph-name="Eogonek" unicode="&#x118;" horiz-adv-x="531" 
d="M482 -108q-14 -29 -41.5 -45.5t-62.5 -16.5t-61 19t-26 57q0 58 71 94h-226q-15 0 -24.5 9.5t-9.5 25.5l-1 547q0 60 -10 93q9 9 19.5 12.5t27.5 3.5h307q12 0 12 -17q0 -11 -5 -21.5t-13 -13.5q-160 14 -280 15l1 -269h257q3 -9 3 -20q0 -10 -3 -19h-257l1 -310
q121 1 294 17q6 -3 9.5 -11.5t3.5 -18.5q0 -23 -15 -23h-38q-39 -19 -58 -39t-19 -48q0 -23 13 -37t38 -14q29 0 50.5 16t33.5 37q13 -8 9 -23z" />
    <glyph glyph-name="eogonek" unicode="&#x119;" horiz-adv-x="505" 
d="M456 -94q-14 -29 -41.5 -45.5t-62.5 -16.5t-61 19t-26 57t32 68q-8 -1 -23 -1q-107 0 -166.5 67t-59.5 194q0 126 60 197.5t172 71.5q79 0 126.5 -37t47.5 -104q0 -74 -60 -112.5t-171 -38.5q-56 0 -112 8q5 -107 52.5 -154t122.5 -47q56 0 97.5 23t55.5 68q14 -5 14 -21
q0 -13 -6 -26q-21 -48 -77 -72q-29 -17 -43.5 -35t-14.5 -42q0 -23 13 -37t38 -14q29 0 50.5 16t33.5 37q13 -8 9 -23zM157 428q-45 -57 -46 -165q39 -5 99 -7q181 0 181 126q0 55 -33 79t-81 24q-75 0 -120 -57z" />
    <glyph glyph-name="Ecaron" unicode="&#x11a;" horiz-adv-x="531" 
d="M464.5 41.5q3.5 -8.5 3.5 -18.5q0 -23 -15 -23h-317q-15 0 -24.5 9.5t-9.5 25.5l-1 547q0 60 -10 93q9 9 19.5 12.5t27.5 3.5h307q12 0 12 -17q0 -11 -5 -21.5t-13 -13.5q-160 14 -280 15l1 -269h257q3 -9 3 -20q0 -10 -3 -19h-257l1 -310q121 1 294 17q6 -3 9.5 -11.5z
M277 734q-13 0 -22 3l-122 107q3 5 8.5 11t9.5 8l126 -78l125 78q5 -2 10.5 -8t7.5 -11l-121 -107q-9 -3 -22 -3z" />
    <glyph glyph-name="ecaron" unicode="&#x11b;" horiz-adv-x="505" 
d="M453 102q0 -13 -6 -26q-18 -43 -64.5 -66t-108.5 -23q-107 0 -166.5 67t-59.5 194q0 126 60 197.5t172 71.5q79 0 126.5 -37t47.5 -104q0 -74 -60 -112.5t-171 -38.5q-56 0 -112 8q5 -107 52.5 -154t122.5 -47q56 0 97.5 23t55.5 68q14 -5 14 -21zM157 428
q-45 -57 -46 -165q39 -5 99 -7q181 0 181 126q0 55 -33 79t-81 24q-75 0 -120 -57zM270 615l109 90q6 0 15.5 -3t12.5 -7l-115 -130q-10 -2 -20 -2q-11 0 -25 2l-115 130q1 3 11.5 6.5t17.5 3.5z" />
    <glyph glyph-name="Gcircumflex" unicode="&#x11c;" horiz-adv-x="614" 
d="M132.5 78.5q-68.5 91.5 -68.5 266.5q0 174 69.5 266t197.5 92q49 0 92 -13t68.5 -34.5t25.5 -43.5q0 -17 -13 -27t-35 -7q-8 43 -45 67.5t-91 24.5q-101 0 -152.5 -82t-51.5 -243t51.5 -242.5t153.5 -81.5q93 0 126.5 60.5t33.5 139.5q0 128 -80 137q2 13 13.5 20t28.5 7
q42 0 70 -37t28 -119q0 -60 -20.5 -114.5t-70 -91t-131.5 -36.5q-131 0 -199.5 91.5zM470 749q-2 -5 -7.5 -11t-10.5 -8l-125 78l-126 -78q-5 2 -11 8.5t-7 10.5l121 107q6 2 22 2q17 0 23 -2z" />
    <glyph glyph-name="gcircumflex" unicode="&#x11d;" horiz-adv-x="534" 
d="M97.5 -204.5q-46.5 31.5 -46.5 90.5q0 31 15 50.5t37 19.5q21 0 31 -13q-27 -18 -27 -57q0 -45 30.5 -67.5t78.5 -22.5q94 0 137.5 63.5t43.5 192.5v66q-19 -59 -64 -92t-109 -33q-176 0 -176 255q0 110 47.5 189.5t174.5 79.5q53 0 103.5 -14.5t82.5 -51.5v-406
q0 -281 -242 -281q-70 0 -116.5 31.5zM358 97q38 66 39 151l1 193q-18 21 -53.5 32t-79.5 11q-90 0 -122 -69.5t-32 -172.5q0 -110 31 -160.5t95 -50.5q83 0 121 66zM143.5 564q-10.5 3 -11.5 7l115 129q9 3 24 3q12 0 21 -3l115 -129q-3 -4 -12.5 -7t-15.5 -3l-109 90
l-109 -90q-7 0 -17.5 3z" />
    <glyph glyph-name="Gbreve" unicode="&#x11e;" horiz-adv-x="614" 
d="M132.5 78.5q-68.5 91.5 -68.5 266.5q0 174 69.5 266t197.5 92q49 0 92 -13t68.5 -34.5t25.5 -43.5q0 -17 -13 -27t-35 -7q-8 43 -45 67.5t-91 24.5q-101 0 -152.5 -82t-51.5 -243t51.5 -242.5t153.5 -81.5q93 0 126.5 60.5t33.5 139.5q0 128 -80 137q2 13 13.5 20t28.5 7
q42 0 70 -37t28 -119q0 -60 -20.5 -114.5t-70 -91t-131.5 -36.5q-131 0 -199.5 91.5zM405.5 759q-32.5 -26 -79.5 -26t-78.5 26t-45.5 65l31 15q13 -30 38 -46.5t61 -16.5q35 0 58.5 17t35.5 45q13 -5 29 -10q-17 -43 -49.5 -69z" />
    <glyph glyph-name="gbreve" unicode="&#x11f;" horiz-adv-x="534" 
d="M97.5 -204.5q-46.5 31.5 -46.5 90.5q0 31 15 50.5t37 19.5q21 0 31 -13q-27 -18 -27 -57q0 -45 30.5 -67.5t78.5 -22.5q94 0 137.5 63.5t43.5 192.5v66q-19 -59 -64 -92t-109 -33q-176 0 -176 255q0 110 47.5 189.5t174.5 79.5q53 0 103.5 -14.5t82.5 -51.5v-406
q0 -281 -242 -281q-70 0 -116.5 31.5zM358 97q38 66 39 151l1 193q-18 21 -53.5 32t-79.5 11q-90 0 -122 -69.5t-32 -172.5q0 -110 31 -160.5t95 -50.5q83 0 121 66zM379 692q20 -4 30 -8q-13 -50 -48.5 -83t-89.5 -33q-62 0 -97.5 34.5t-45.5 78.5q11 9 30 12
q13 -32 41.5 -56t72.5 -24q75 0 107 79z" />
    <glyph glyph-name="Gdotaccent" unicode="&#x120;" horiz-adv-x="614" 
d="M132.5 78.5q-68.5 91.5 -68.5 266.5q0 174 69.5 266t197.5 92q49 0 92 -13t68.5 -34.5t25.5 -43.5q0 -17 -13 -27t-35 -7q-8 43 -45 67.5t-91 24.5q-101 0 -152.5 -82t-51.5 -243t51.5 -242.5t153.5 -81.5q93 0 126.5 60.5t33.5 139.5q0 128 -80 137q2 13 13.5 20t28.5 7
q42 0 70 -37t28 -119q0 -60 -20.5 -114.5t-70 -91t-131.5 -36.5q-131 0 -199.5 91.5zM297.5 765q-13.5 13 -13.5 31t13.5 31t30.5 13q18 0 31 -13t13 -31t-13 -31t-31 -13q-17 0 -30.5 13z" />
    <glyph glyph-name="gdotaccent" unicode="&#x121;" horiz-adv-x="534" 
d="M97.5 -204.5q-46.5 31.5 -46.5 90.5q0 31 15 50.5t37 19.5q21 0 31 -13q-27 -18 -27 -57q0 -45 30.5 -67.5t78.5 -22.5q94 0 137.5 63.5t43.5 192.5v66q-19 -59 -64 -92t-109 -33q-176 0 -176 255q0 110 47.5 189.5t174.5 79.5q53 0 103.5 -14.5t82.5 -51.5v-406
q0 -281 -242 -281q-70 0 -116.5 31.5zM358 97q38 66 39 151l1 193q-18 21 -53.5 32t-79.5 11q-90 0 -122 -69.5t-32 -172.5q0 -110 31 -160.5t95 -50.5q83 0 121 66zM238 588q-13 13 -13 31t13 31t31 13q17 0 30.5 -13t13.5 -31t-13.5 -31t-30.5 -13q-18 0 -31 13z" />
    <glyph glyph-name="Gcommaaccent" unicode="&#x122;" horiz-adv-x="614" 
d="M132.5 78.5q-68.5 91.5 -68.5 266.5q0 174 69.5 266t197.5 92q49 0 92 -13t68.5 -34.5t25.5 -43.5q0 -17 -13 -27t-35 -7q-8 43 -45 67.5t-91 24.5q-101 0 -152.5 -82t-51.5 -243t51.5 -242.5t153.5 -81.5q93 0 126.5 60.5t33.5 139.5q0 128 -80 137q2 13 13.5 20t28.5 7
q42 0 70 -37t28 -119q0 -60 -20.5 -114.5t-70 -91t-131.5 -36.5q-131 0 -199.5 91.5zM295 -192q29 32 29 63q0 22 -10.5 32.5t-27.5 16.5q0 16 13 31t35 15q20 0 35 -13.5t15 -46.5q0 -60 -64 -114q-14 4 -25 16z" />
    <glyph glyph-name="gcommaaccent" unicode="&#x123;" horiz-adv-x="534" 
d="M305 716q-26 -40 -26 -71q0 -17 8 -25t22 -11q0 -16 -11.5 -28t-29.5 -12t-31 12t-13 39q0 23 12.5 49t43.5 62q17 -4 25 -15zM97.5 -204.5q-46.5 31.5 -46.5 90.5q0 31 15 50.5t37 19.5q21 0 31 -13q-27 -18 -27 -57q0 -45 30.5 -67.5t78.5 -22.5q94 0 137.5 63.5
t43.5 192.5v66q-19 -59 -64 -92t-109 -33q-176 0 -176 255q0 110 47.5 189.5t174.5 79.5q53 0 103.5 -14.5t82.5 -51.5v-406q0 -281 -242 -281q-70 0 -116.5 31.5zM358 97q38 66 39 151l1 193q-18 21 -53.5 32t-79.5 11q-90 0 -122 -69.5t-32 -172.5q0 -110 31 -160.5
t95 -50.5q83 0 121 66z" />
    <glyph glyph-name="Hcircumflex" unicode="&#x124;" horiz-adv-x="673" 
d="M582 4q-14 -14 -35 -14q-15 0 -24.5 9.5t-9.5 25.5l-1 322h-351v-244q0 -69 10 -99q-14 -14 -35 -14q-15 0 -24.5 9.5t-9.5 25.5l-1 562q0 65 -10 98q14 14 34 14q16 0 26 -9.5t10 -25.5v-278h351v201q0 65 -10 98q14 14 35 14q15 0 25 -9.5t10 -25.5v-561q0 -69 10 -99z
M478 749q-2 -5 -7.5 -11t-10.5 -8l-125 78l-126 -78q-5 2 -11 8.5t-7 10.5l121 107q6 2 22 2q17 0 23 -2z" />
    <glyph glyph-name="hcircumflex" unicode="&#x125;" horiz-adv-x="559" 
d="M486 4q-14 -14 -34 -14q-15 0 -24 9.5t-9 25.5l-1 276q0 91 -27 135t-89 44q-37 0 -72.5 -23.5t-59 -76.5t-23.5 -136q0 -138 1.5 -177.5t8.5 -62.5q-14 -14 -34 -14q-15 0 -24.5 10t-9.5 27l-1 667q0 17 9.5 26t25.5 9q21 0 35 -14q-6 -18 -8 -45t-3 -79l-1 -196
q22 57 67.5 89.5t102.5 32.5q82 0 121 -53t39 -158l1 -203q0 -68 9 -99zM-2.5 733q-10.5 3 -11.5 7l115 129q9 3 24 3q12 0 21 -3l115 -129q-3 -4 -12.5 -7t-15.5 -3l-109 90l-109 -90q-7 0 -17.5 3z" />
    <glyph glyph-name="Hbar" unicode="&#x126;" horiz-adv-x="673" 
d="M572 543v-440q0 -69 10 -99q-14 -14 -35 -14q-15 0 -24.5 9.5t-9.5 25.5l-1 322h-351v-244q0 -69 10 -99q-14 -14 -35 -14q-15 0 -24.5 9.5t-9.5 25.5l-1 518h-51q-4 10 -4 16t4 16h51v12q0 65 -10 98q14 14 34 14q16 0 26 -9.5t10 -25.5v-89h351v12q0 65 -10 98
q14 14 35 14q15 0 25 -9.5t10 -25.5v-89h48q4 -7 4 -16t-4 -16h-48zM512 543h-351v-157h351v157z" />
    <glyph glyph-name="hbar" unicode="&#x127;" horiz-adv-x="566" 
d="M486 4q-14 -14 -34 -14q-15 0 -24 9.5t-9 25.5l-1 276q0 91 -27 135t-89 44q-37 0 -72.5 -23.5t-59 -76.5t-23.5 -136q0 -138 1.5 -177.5t8.5 -62.5q-14 -14 -34 -14q-15 0 -24.5 10t-9.5 27l-1 555h-67q-3 9 -3 16q0 9 3 16h67v80q0 17 9.5 26t25.5 9q21 0 35 -14
q-5 -15 -7 -37.5t-4 -63.5h125q4 -7 4 -16q0 -8 -4 -16h-125l-1 -187q22 57 67.5 89.5t102.5 32.5q82 0 121 -53t39 -158l1 -203q0 -68 9 -99z" />
    <glyph glyph-name="Itilde" unicode="&#x128;" horiz-adv-x="261" 
d="M111.5 -0.5q-9.5 9.5 -9.5 25.5l-1 562q0 65 -10 98q14 14 34 14q16 0 26 -9.5t10 -25.5v-561q0 -69 10 -99q-14 -14 -35 -14q-15 0 -24.5 9.5zM233.5 770.5q-20.5 -19.5 -49.5 -19.5q-17 0 -32.5 5.5t-34.5 16.5q-19 10 -31 14.5t-25 4.5q-42 0 -56 -42h-2q-10 0 -20 10
q7 38 28.5 56.5t52.5 18.5q17 0 30.5 -5t35.5 -16q20 -10 32.5 -15t27.5 -5q20 0 29.5 8.5t19.5 27.5q15 0 23 -8q-8 -32 -28.5 -51.5z" />
    <glyph glyph-name="itilde" unicode="&#x129;" horiz-adv-x="236" 
d="M155 4q-14 -14 -34 -14q-15 0 -24 9.5t-9 25.5l-2 380q0 68 -9 98q14 14 33 14q16 0 25 -9t9 -26l2 -379q0 -68 9 -99zM223.5 603.5q-20.5 -21.5 -51.5 -21.5q-18 0 -30.5 6t-33.5 19q-17 12 -29.5 18t-27.5 6q-21 0 -37 -12t-22 -32h-2q-12 0 -19 9q6 38 29.5 58
t54.5 20q18 0 32 -6.5t33 -19.5q16 -12 29.5 -18t28.5 -6q21 0 31.5 11.5t18.5 33.5q14 0 22 -8q-6 -36 -26.5 -57.5z" />
    <glyph glyph-name="Imacron" unicode="&#x12a;" horiz-adv-x="261" 
d="M111.5 -0.5q-9.5 9.5 -9.5 25.5l-1 562q0 65 -10 98q14 14 34 14q16 0 26 -9.5t10 -25.5v-561q0 -69 10 -99q-14 -14 -35 -14q-15 0 -24.5 9.5zM248 807q4 -12 4 -19q0 -5 -4 -19h-248q-3 11 -3 19q0 10 3 19h248z" />
    <glyph glyph-name="imacron" unicode="&#x12b;" horiz-adv-x="236" 
d="M155 4q-14 -14 -34 -14q-15 0 -24 9.5t-9 25.5l-2 380q0 68 -9 98q14 14 33 14q16 0 25 -9t9 -26l2 -379q0 -68 9 -99zM235 636q4 -12 4 -18t-4 -18h-248q-3 9 -3 18t3 18h248z" />
    <glyph glyph-name="Iogonek" unicode="&#x12e;" horiz-adv-x="261" 
d="M229 -110q-14 -29 -41.5 -45.5t-62.5 -16.5t-61 19t-26 57q0 32 20 55.5t53 39.5q-9 9 -9 26l-1 562q0 65 -10 98q14 14 34 14q16 0 26 -9.5t10 -25.5v-561q0 -69 10 -99q-8 -8 -21 -12q-33 -18 -49 -36.5t-16 -44.5q0 -23 13 -37t38 -14q29 0 50.5 16t33.5 37
q13 -8 9 -23z" />
    <glyph glyph-name="iogonek" unicode="&#x12f;" horiz-adv-x="255" 
d="M91.5 621.5q-13.5 13.5 -13.5 32.5t13.5 32.5t32.5 13.5t32.5 -13.5t13.5 -32.5t-13.5 -32.5t-32.5 -13.5t-32.5 13.5zM223 -105q-13 -29 -41 -46t-63 -17t-61 19t-26 57q0 60 74 96q-6 9 -6 21l-1 380q0 65 -10 98q14 14 34 14q15 0 24 -9t9 -26l2 -379q0 -69 10 -99
q-16 -14 -34 -14q-27 -16 -40.5 -33.5t-13.5 -41.5q0 -23 12.5 -37t38.5 -14q29 0 50.5 16t32.5 37q13 -8 9 -22z" />
    <glyph glyph-name="Idotaccent" unicode="&#x130;" horiz-adv-x="261" 
d="M111.5 -0.5q-9.5 9.5 -9.5 25.5l-1 562q0 65 -10 98q14 14 34 14q16 0 26 -9.5t10 -25.5v-561q0 -69 10 -99q-14 -14 -35 -14q-15 0 -24.5 9.5zM93.5 765q-13.5 13 -13.5 31t13.5 31t30.5 13q18 0 31 -13t13 -31t-13 -31t-31 -13q-17 0 -30.5 13z" />
    <glyph glyph-name="dotlessi" unicode="&#x131;" horiz-adv-x="236" 
d="M155 4q-14 -14 -34 -14q-15 0 -24 9.5t-9 25.5l-2 380q0 68 -9 98q14 14 33 14q16 0 25 -9t9 -26l2 -379q0 -68 9 -99z" />
    <glyph glyph-name="Jcircumflex" unicode="&#x134;" horiz-adv-x="441" 
d="M84 18q-35 31 -35 76q0 19 10 33t30 14q12 0 18 -8q-6 -18 -6 -33q0 -39 25 -59t57 -20q59 0 80.5 37t21.5 111v453q0 32 3 46q-20 -1 -45.5 0.5t-36.5 1.5q-20 2 -30 2q-21 2 -36 -6t-15 -32q0 -30 28 -46q-9 -8 -28 -8q-20 0 -34.5 16.5t-14.5 43.5t20 45t56 18
q20 0 53 -3l70 -3q26 0 74 5q-4 -27 -4 -70v-461q0 -184 -160 -184q-66 0 -101 31zM365 749q-2 -5 -7.5 -11t-10.5 -8l-125 78l-126 -78q-5 2 -11 8.5t-7 10.5l121 107q6 2 22 2q17 0 23 -2z" />
    <glyph glyph-name="jcircumflex" unicode="&#x135;" horiz-adv-x="245" 
d="M-44 -213q-26 21 -26 56q0 16 9.5 28.5t27.5 12.5q11 0 16 -8q-6 -12 -6 -29q0 -27 16 -38t37 -11q44 0 59.5 37t15.5 109l1 460q0 69 -10 99q14 14 34 14q15 0 24 -9.5t9 -25.5l1 -547q0 -72 -29 -120.5t-105 -48.5q-48 0 -74 21zM2.5 562q-10.5 3 -11.5 7l115 129
q9 3 24 3q12 0 21 -3l115 -129q-3 -4 -12.5 -7t-15.5 -3l-109 90l-109 -90q-7 0 -17.5 3z" />
    <glyph glyph-name="Kcommaaccent" unicode="&#x136;" horiz-adv-x="572" 
d="M555 31q0 -18 -17 -30t-38 -12q-28 0 -49.5 22.5t-32.5 56.5l-47 151q-14 36 -30 58.5t-52 37t-100 14.5h-29l1 -226q0 -69 10 -99q-14 -14 -35 -14q-15 0 -24.5 9.5t-9.5 25.5l-1 562q0 65 -10 98q14 14 34 14q16 0 25 -9.5t9 -25.5l1 -302q22 0 31 1q70 5 121.5 44.5
t78 96t26.5 110.5q0 47 -18 75q17 12 30 12q19 0 33.5 -20t14.5 -64q0 -81 -47.5 -155t-144.5 -110q59 -9 91.5 -39.5t49.5 -80.5l49 -145q10 -27 20 -37.5t23 -11.5q21 0 31 14q6 -10 6 -21zM262 -192q29 32 29 63q0 22 -10.5 32.5t-27.5 16.5q0 16 13 31t35 15
q20 0 35 -13.5t15 -46.5q0 -60 -64 -114q-14 4 -25 16z" />
    <glyph glyph-name="kcommaaccent" unicode="&#x137;" horiz-adv-x="543" 
d="M511 33q0 -19 -17 -31t-38 -12t-39 13.5t-29 36.5l-94 177q-71 -26 -147 -45q0 -93 1.5 -119.5t9.5 -48.5q-9 -7 -16.5 -10.5t-19.5 -3.5q-33 0 -33 37l-1 667q0 17 9.5 26t25.5 9q22 0 34 -14q-5 -26 -7 -53t-3 -72l-1 -235q23 75 77 118.5t128 43.5q58 0 91 -30.5
t33 -84.5q0 -57 -39 -99t-99 -70q14 -8 28 -33l72 -127q9 -17 17 -24t20 -7q19 0 29 14q8 -9 8 -23zM343 283q72 44 72 116q0 41 -21.5 60t-58.5 19q-57 0 -99.5 -35t-65.5 -97t-23 -143q124 36 196 80zM237 -192q29 32 29 63q0 22 -10.5 32.5t-27.5 16.5q0 16 13 31t35 15
q20 0 35 -13.5t15 -46.5q0 -60 -64 -114q-14 4 -25 16z" />
    <glyph glyph-name="kgreenlandic" unicode="&#x138;" horiz-adv-x="572" 
d="M530 32q0 -19 -15.5 -30.5t-36.5 -11.5q-26 0 -47 18t-29 47l-27 94q-9 30 -23 49t-44 30.5t-83 11.5h-75v-137q0 -69 10 -99q-14 -14 -35 -14q-15 0 -25 9.5t-10 25.5v379q0 65 -10 99q14 14 36 14q16 0 25 -9.5t9 -25.5v-210l69 3q58 3 100.5 26.5t65 59.5t22.5 75
q0 22 -5 41t-11 28q12 12 30 12t31.5 -21t13.5 -55q0 -59 -38.5 -107.5t-107.5 -68.5q84 -12 110 -104l22 -76q13 -47 42 -47q20 0 31 14q5 -9 5 -20z" />
    <glyph glyph-name="Lacute" unicode="&#x139;" horiz-adv-x="470" 
d="M161 38q107 1 267 17q6 -3 9 -11.5t3 -18.5q0 -25 -15 -25h-289q-15 0 -24.5 9.5t-9.5 25.5l-1 552q0 65 -10 98q14 14 34 14q16 0 25 -9.5t9 -25.5zM124 732q-4 2 -9 9.5t-6 11.5l133 107q13 -6 26.5 -19t19.5 -27z" />
    <glyph glyph-name="lacute" unicode="&#x13a;" horiz-adv-x="262" 
d="M108.5 16q-22.5 26 -22.5 73v605q0 17 9.5 26t25.5 9q20 0 34 -14q-6 -20 -8 -62t-2 -133v-429q0 -53 39 -53q13 0 24 6t16 17q10 -11 10 -27q0 -20 -19 -32t-45 -12q-39 0 -61.5 26z" />
    <glyph glyph-name="Lcommaaccent" unicode="&#x13b;" horiz-adv-x="470" 
d="M161 38q107 1 267 17q6 -3 9 -11.5t3 -18.5q0 -25 -15 -25h-289q-15 0 -24.5 9.5t-9.5 25.5l-1 552q0 65 -10 98q14 14 34 14q16 0 25 -9.5t9 -25.5zM233 -192q29 32 29 63q0 22 -10.5 32.5t-27.5 16.5q0 16 13 31t35 15q20 0 35 -13.5t15 -46.5q0 -60 -64 -114
q-14 4 -25 16z" />
    <glyph glyph-name="lcommaaccent" unicode="&#x13c;" horiz-adv-x="262" 
d="M108.5 16q-22.5 26 -22.5 73v605q0 17 9.5 26t25.5 9q20 0 34 -14q-6 -20 -8 -62t-2 -133v-429q0 -53 39 -53q13 0 24 6t16 17q10 -11 10 -27q0 -20 -19 -32t-45 -12q-39 0 -61.5 26zM127 -192q29 32 29 63q0 22 -10.5 32.5t-27.5 16.5q0 16 13 31t35 15q20 0 35 -13.5
t15 -46.5q0 -60 -64 -114q-14 4 -25 16z" />
    <glyph glyph-name="Lcaron" unicode="&#x13d;" horiz-adv-x="470" 
d="M273 635q0 -14 -2 -40h32q18 70 17 136q-12 4 -30 4q-16 0 -28 -4q11 -44 11 -96zM161 38q107 1 267 17q6 -3 9 -11.5t3 -18.5q0 -25 -15 -25h-289q-15 0 -24.5 9.5t-9.5 25.5l-1 552q0 65 -10 98q14 14 34 14q16 0 25 -9.5t9 -25.5z" />
    <glyph glyph-name="lcaron" unicode="&#x13e;" horiz-adv-x="301" 
d="M226 636q0 -14 -2 -40h32q20 75 17 136q-13 5 -29 5q-14 0 -29 -5q11 -43 11 -96zM108.5 16q-22.5 26 -22.5 73v605q0 17 9.5 26t25.5 9q20 0 34 -14q-6 -20 -8 -62t-2 -133v-429q0 -53 39 -53q13 0 24 6t16 17q10 -11 10 -27q0 -20 -19 -32t-45 -12q-39 0 -61.5 26z" />
    <glyph glyph-name="Ldot" unicode="&#x13f;" horiz-adv-x="470" 
d="M161 38q107 1 267 17q6 -3 9 -11.5t3 -18.5q0 -25 -15 -25h-289q-15 0 -24.5 9.5t-9.5 25.5l-1 552q0 65 -10 98q14 14 34 14q16 0 25 -9.5t9 -25.5zM320.5 283.5q-13.5 13.5 -13.5 32.5q0 18 13.5 31.5t32.5 13.5t32 -13.5t13 -31.5q0 -19 -13 -32.5t-32 -13.5
t-32.5 13.5z" />
    <glyph glyph-name="ldot" unicode="&#x140;" horiz-adv-x="323" 
d="M108.5 16q-22.5 26 -22.5 73v605q0 17 9.5 26t25.5 9q20 0 34 -14q-6 -20 -8 -62t-2 -133v-429q0 -53 39 -53q13 0 24 6t16 17q10 -11 10 -27q0 -20 -19 -32t-45 -12q-39 0 -61.5 26zM248.5 303.5q-13.5 13.5 -13.5 32.5q0 18 13.5 31.5t32.5 13.5t32 -13.5t13 -31.5
q0 -19 -13 -32.5t-32 -13.5t-32.5 13.5z" />
    <glyph glyph-name="Lslash" unicode="&#x141;" horiz-adv-x="470" 
d="M437 43.5q3 -8.5 3 -18.5q0 -25 -15 -25h-289q-15 0 -24.5 9.5t-9.5 25.5v175l-53 -52q-18 4 -22 22l75 75l-1 332q0 65 -10 98q14 14 34 14q16 0 25 -9.5t9 -25.5l1 -351l115 115q17 -4 23 -23l-138 -137l1 -230q107 1 267 17q6 -3 9 -11.5z" />
    <glyph glyph-name="lslash" unicode="&#x142;" horiz-adv-x="262" 
d="M208 44q11 6 16 17q10 -11 10 -27q0 -20 -19 -32t-45 -12q-39 0 -61.5 26t-22.5 73v146l-57 -77l-26 18l83 113v405q0 17 9.5 26t25.5 9q20 0 34 -14q-6 -20 -8 -62t-2 -133v-151l65 89l26 -19l-91 -124v-224q0 -53 39 -53q13 0 24 6z" />
    <glyph glyph-name="Nacute" unicode="&#x143;" horiz-adv-x="677" 
d="M92 1q10 30 10 102l-1 477q0 77 -7 109q9 8 29 8q16 0 21 -5q76 -111 200 -301t195 -304l-11 518q-1 32 2 55.5t11 32.5q7 3 18 3q7 0 11 -1q8 -22 8 -51l1 -542q0 -78 3 -101q-4 -4 -12 -6.5t-17 -2.5q-10 0 -14 2q-123 156 -397 599l10 -565q1 -17 -8.5 -27.5
t-22.5 -10.5q-16 0 -29 11zM318 732q-4 2 -9 9.5t-6 11.5l133 107q13 -6 26.5 -19t19.5 -27z" />
    <glyph glyph-name="nacute" unicode="&#x144;" horiz-adv-x="569" 
d="M497 4q-16 -14 -35 -14q-15 0 -25 9.5t-10 25.5v276q-1 90 -28 133.5t-89 43.5q-37 0 -72.5 -23t-59 -75.5t-23.5 -135.5q0 -138 1.5 -177.5t9.5 -62.5q-14 -14 -34 -14q-16 0 -25.5 10t-9.5 27v390q-1 28 -7.5 39.5t-21.5 11.5q-19 0 -27 -17q-11 16 -11 28q0 17 14 27
t38 10q69 0 69 -93v-32q22 60 68 93t106 33q161 0 161 -211v-203q2 -72 11 -99zM294 561h-5q-22 0 -26 6l91 145q16 1 35.5 -4t29.5 -12z" />
    <glyph glyph-name="Ncommaaccent" unicode="&#x145;" horiz-adv-x="677" 
d="M92 1q10 30 10 102l-1 477q0 77 -7 109q9 8 29 8q16 0 21 -5q76 -111 200 -301t195 -304l-11 518q-1 32 2 55.5t11 32.5q7 3 18 3q7 0 11 -1q8 -22 8 -51l1 -542q0 -78 3 -101q-4 -4 -12 -6.5t-17 -2.5q-10 0 -14 2q-123 156 -397 599l10 -565q1 -17 -8.5 -27.5
t-22.5 -10.5q-16 0 -29 11zM305 -192q29 32 29 63q0 22 -10.5 32.5t-27.5 16.5q0 16 13 31t35 15q20 0 35 -13.5t15 -46.5q0 -60 -64 -114q-14 4 -25 16z" />
    <glyph glyph-name="ncommaaccent" unicode="&#x146;" horiz-adv-x="569" 
d="M497 4q-16 -14 -35 -14q-15 0 -25 9.5t-10 25.5v276q-1 90 -28 133.5t-89 43.5q-37 0 -72.5 -23t-59 -75.5t-23.5 -135.5q0 -138 1.5 -177.5t9.5 -62.5q-14 -14 -34 -14q-16 0 -25.5 10t-9.5 27v390q-1 28 -7.5 39.5t-21.5 11.5q-19 0 -27 -17q-11 16 -11 28q0 17 14 27
t38 10q69 0 69 -93v-32q22 60 68 93t106 33q161 0 161 -211v-203q2 -72 11 -99zM257 -192q29 32 29 63q0 22 -10.5 32.5t-27.5 16.5q0 16 13 31t35 15q20 0 35 -13.5t15 -46.5q0 -60 -64 -114q-14 4 -25 16z" />
    <glyph glyph-name="Ncaron" unicode="&#x147;" horiz-adv-x="677" 
d="M92 1q10 30 10 102l-1 477q0 77 -7 109q9 8 29 8q16 0 21 -5q76 -111 200 -301t195 -304l-11 518q-1 32 2 55.5t11 32.5q7 3 18 3q7 0 11 -1q8 -22 8 -51l1 -542q0 -78 3 -101q-4 -4 -12 -6.5t-17 -2.5q-10 0 -14 2q-123 156 -397 599l10 -565q1 -17 -8.5 -27.5
t-22.5 -10.5q-16 0 -29 11zM337 734q-13 0 -22 3l-122 107q3 5 8.5 11t9.5 8l126 -78l125 78q5 -2 10.5 -8t7.5 -11l-121 -107q-9 -3 -22 -3z" />
    <glyph glyph-name="ncaron" unicode="&#x148;" horiz-adv-x="569" 
d="M497 4q-16 -14 -35 -14q-15 0 -25 9.5t-10 25.5v276q-1 90 -28 133.5t-89 43.5q-37 0 -72.5 -23t-59 -75.5t-23.5 -135.5q0 -138 1.5 -177.5t9.5 -62.5q-14 -14 -34 -14q-16 0 -25.5 10t-9.5 27v390q-1 28 -7.5 39.5t-21.5 11.5q-19 0 -27 -17q-11 16 -11 28q0 17 14 27
t38 10q69 0 69 -93v-32q22 60 68 93t106 33q161 0 161 -211v-203q2 -72 11 -99zM291 615l109 90q6 0 15.5 -3t12.5 -7l-115 -130q-10 -2 -20 -2q-11 0 -25 2l-115 130q1 3 11.5 6.5t17.5 3.5z" />
    <glyph glyph-name="napostrophe" unicode="&#x149;" horiz-adv-x="656" 
d="M21 461h32l14 138q-11 4 -29 4q-17 0 -29 -4zM553 4q-16 -14 -35 -14q-15 0 -25 9.5t-10 25.5v276q-1 90 -28 133.5t-89 43.5q-37 0 -72.5 -23t-59 -75.5t-23.5 -135.5q0 -138 1.5 -177.5t9.5 -62.5q-14 -14 -34 -14q-16 0 -25.5 10t-9.5 27v390q-1 28 -7.5 39.5
t-21.5 11.5q-19 0 -27 -17q-11 16 -11 28q0 17 14 27t38 10q69 0 69 -93v-32q22 60 68 93t106 33q161 0 161 -211v-203q2 -72 11 -99z" />
    <glyph glyph-name="Omacron" unicode="&#x14c;" horiz-adv-x="646" 
d="M130.5 76q-66.5 89 -66.5 269t66.5 269t192.5 89t192.5 -89t66.5 -269t-66.5 -269t-192.5 -89t-192.5 89zM517 345q0 325 -194 325t-194 -325q0 -324 194 -324t194 324zM446 807q4 -12 4 -19q0 -5 -4 -19h-248q-3 11 -3 19q0 10 3 19h248z" />
    <glyph glyph-name="omacron" unicode="&#x14d;" horiz-adv-x="542" 
d="M106.5 57q-58.5 70 -58.5 195t58.5 195t164.5 70q105 0 164 -70t59 -195t-59 -195t-164 -70q-106 0 -164.5 70zM388.5 80.5q41.5 60.5 41.5 171.5t-41.5 171.5t-117.5 60.5q-77 0 -118.5 -60.5t-41.5 -171.5t41.5 -171.5t118.5 -60.5q76 0 117.5 60.5zM394 636
q4 -12 4 -18t-4 -18h-248q-3 9 -3 18t3 18h248z" />
    <glyph glyph-name="Ohungarumlaut" unicode="&#x150;" horiz-adv-x="646" 
d="M130.5 76q-66.5 89 -66.5 269t66.5 269t192.5 89t192.5 -89t66.5 -269t-66.5 -269t-192.5 -89t-192.5 89zM517 345q0 325 -194 325t-194 -325q0 -324 194 -324t194 324zM261 730q-6 1 -12 7t-8 10l105 128q14 -3 29.5 -12.5t24.5 -21.5zM381 728q-5 1 -11 7t-8 10
l105 128q15 -3 29.5 -12.5t24.5 -21.5z" />
    <glyph glyph-name="ohungarumlaut" unicode="&#x151;" horiz-adv-x="542" 
d="M106.5 57q-58.5 70 -58.5 195t58.5 195t164.5 70q105 0 164 -70t59 -195t-59 -195t-164 -70q-106 0 -164.5 70zM388.5 80.5q41.5 60.5 41.5 171.5t-41.5 171.5t-117.5 60.5q-77 0 -118.5 -60.5t-41.5 -171.5t41.5 -171.5t118.5 -60.5q76 0 117.5 60.5zM201 541
q-6 1 -13 6.5t-9 9.5l115 163q33 -3 55 -27zM337 541q-11 5 -22 16l116 163q31 -3 54 -26z" />
    <glyph glyph-name="OE" unicode="&#x152;" horiz-adv-x="883" 
d="M816.5 41.5q3.5 -8.5 3.5 -18.5q0 -23 -15 -23h-317q-16 0 -25 9.5t-9 25.5v8q-48 -56 -131 -56q-126 0 -192.5 89t-66.5 269t66.5 269t192.5 89q77 0 123 -43q-2 10 -4 15q10 9 20 12.5t28 3.5h307q12 0 12 -17q0 -11 -5 -21.5t-13 -13.5q-160 14 -280 15l1 -269h257
q3 -9 3 -18q0 -12 -3 -21h-257l1 -310q118 1 294 17q6 -3 9.5 -11.5zM454 100l-2 482v10q-21 41 -53 59.5t-76 18.5q-194 0 -194 -325q0 -324 194 -324q88 0 131 79z" />
    <glyph glyph-name="oe" unicode="&#x153;" horiz-adv-x="888" 
d="M106.5 57q-58.5 70 -58.5 195t58.5 195t164.5 70q69 0 119 -34t73 -97q24 62 75.5 96.5t124.5 34.5q79 0 126 -36.5t47 -104.5q0 -74 -60 -112.5t-171 -38.5q-58 0 -111 8q4 -107 52 -154t123 -47q56 0 97.5 23t55.5 68q14 -5 14 -21q0 -13 -6 -26q-19 -43 -65 -66
t-109 -23q-70 0 -121 32.5t-73 94.5q-23 -61 -72.5 -94t-118.5 -33q-106 0 -164.5 70zM596 256q86 0 132 31.5t46 94.5q0 55 -33 79t-81 24q-75 0 -120 -57.5t-46 -163.5q50 -8 102 -8zM388.5 80.5q41.5 60.5 41.5 171.5t-41.5 171.5t-117.5 60.5q-77 0 -118.5 -60.5
t-41.5 -171.5t41.5 -171.5t118.5 -60.5q76 0 117.5 60.5z" />
    <glyph glyph-name="Racute" unicode="&#x154;" horiz-adv-x="588" 
d="M572 33q0 -20 -17.5 -31.5t-35.5 -11.5q-29 0 -48.5 20t-34.5 60l-53 134q-14 35 -25.5 54t-37 32.5t-70.5 13.5h-89v-203q0 -20 2.5 -50.5t7.5 -46.5q-14 -14 -34 -14q-16 0 -25.5 9.5t-10.5 25.5v562q0 19 -2.5 50.5t-7.5 47.5q33 18 130 18q143 0 208 -44.5t65 -146.5
q0 -71 -40.5 -121t-107.5 -68q33 -10 54 -36.5t40 -70.5l52 -128q11 -27 21 -37.5t23 -11.5q20 0 30 15q6 -10 6 -21zM252 336q49 1 90 21.5t64.5 59t23.5 89.5q0 88 -49 127t-159 39q-45 0 -61 -4v-331q24 -1 91 -1zM248 732q-4 2 -9 9.5t-6 11.5l133 107q13 -6 26.5 -19
t19.5 -27z" />
    <glyph glyph-name="racute" unicode="&#x155;" horiz-adv-x="429" 
d="M363 491q30 -26 30 -74q0 -29 -15 -49t-35 -22h-4q-16 0 -21 7q12 16 15.5 30t3.5 32q0 65 -64 65q-48 0 -82.5 -56.5t-34.5 -179.5v-70q0 -87 1.5 -118t8.5 -51q-14 -14 -35 -14q-15 0 -24.5 10t-9.5 27v389q0 27 -7 39t-22 12q-19 0 -27 -17q-11 16 -11 28q0 17 14 27
t38 10q70 0 68 -98v-18q16 57 51 87t83 30q49 0 79 -26zM198 561h-5q-22 0 -26 6l91 145q16 1 35.5 -4t29.5 -12z" />
    <glyph glyph-name="Rcommaaccent" unicode="&#x156;" horiz-adv-x="588" 
d="M572 33q0 -20 -17.5 -31.5t-35.5 -11.5q-29 0 -48.5 20t-34.5 60l-53 134q-14 35 -25.5 54t-37 32.5t-70.5 13.5h-89v-203q0 -20 2.5 -50.5t7.5 -46.5q-14 -14 -34 -14q-16 0 -25.5 9.5t-10.5 25.5v562q0 19 -2.5 50.5t-7.5 47.5q33 18 130 18q143 0 208 -44.5t65 -146.5
q0 -71 -40.5 -121t-107.5 -68q33 -10 54 -36.5t40 -70.5l52 -128q11 -27 21 -37.5t23 -11.5q20 0 30 15q6 -10 6 -21zM252 336q49 1 90 21.5t64.5 59t23.5 89.5q0 88 -49 127t-159 39q-45 0 -61 -4v-331q24 -1 91 -1zM268 -192q29 32 29 63q0 22 -10.5 32.5t-27.5 16.5
q0 16 13 31t35 15q20 0 35 -13.5t15 -46.5q0 -60 -64 -114q-14 4 -25 16z" />
    <glyph glyph-name="rcommaaccent" unicode="&#x157;" horiz-adv-x="429" 
d="M363 491q30 -26 30 -74q0 -29 -15 -49t-35 -22h-4q-16 0 -21 7q12 16 15.5 30t3.5 32q0 65 -64 65q-48 0 -82.5 -56.5t-34.5 -179.5v-70q0 -87 1.5 -118t8.5 -51q-14 -14 -35 -14q-15 0 -24.5 10t-9.5 27v389q0 27 -7 39t-22 12q-19 0 -27 -17q-11 16 -11 28q0 17 14 27
t38 10q70 0 68 -98v-18q16 57 51 87t83 30q49 0 79 -26zM96 -192q29 32 29 63q0 22 -10.5 32.5t-27.5 16.5q0 16 13 31t35 15q20 0 35 -13.5t15 -46.5q0 -60 -64 -114q-14 4 -25 16z" />
    <glyph glyph-name="Rcaron" unicode="&#x158;" horiz-adv-x="588" 
d="M572 33q0 -20 -17.5 -31.5t-35.5 -11.5q-29 0 -48.5 20t-34.5 60l-53 134q-14 35 -25.5 54t-37 32.5t-70.5 13.5h-89v-203q0 -20 2.5 -50.5t7.5 -46.5q-14 -14 -34 -14q-16 0 -25.5 9.5t-10.5 25.5v562q0 19 -2.5 50.5t-7.5 47.5q33 18 130 18q143 0 208 -44.5t65 -146.5
q0 -71 -40.5 -121t-107.5 -68q33 -10 54 -36.5t40 -70.5l52 -128q11 -27 21 -37.5t23 -11.5q20 0 30 15q6 -10 6 -21zM252 336q49 1 90 21.5t64.5 59t23.5 89.5q0 88 -49 127t-159 39q-45 0 -61 -4v-331q24 -1 91 -1zM267 734q-13 0 -22 3l-122 107q3 5 8.5 11t9.5 8
l126 -78l125 78q5 -2 10.5 -8t7.5 -11l-121 -107q-9 -3 -22 -3z" />
    <glyph glyph-name="rcaron" unicode="&#x159;" horiz-adv-x="429" 
d="M363 491q30 -26 30 -74q0 -29 -15 -49t-35 -22h-4q-16 0 -21 7q12 16 15.5 30t3.5 32q0 65 -64 65q-48 0 -82.5 -56.5t-34.5 -179.5v-70q0 -87 1.5 -118t8.5 -51q-14 -14 -35 -14q-15 0 -24.5 10t-9.5 27v389q0 27 -7 39t-22 12q-19 0 -27 -17q-11 16 -11 28q0 17 14 27
t38 10q70 0 68 -98v-18q16 57 51 87t83 30q49 0 79 -26zM195 615l109 90q6 0 15.5 -3t12.5 -7l-115 -130q-10 -2 -20 -2q-11 0 -25 2l-115 130q1 3 11.5 6.5t17.5 3.5z" />
    <glyph glyph-name="Sacute" unicode="&#x15a;" horiz-adv-x="550" 
d="M111.5 29.5q-54.5 42.5 -54.5 108.5q0 26 10.5 39.5t36.5 13.5l12 -1q-4 -16 -4 -39q2 -62 47 -96t120 -34q73 0 116 33t43 96q0 40 -18.5 70t-53 55t-97.5 59q-67 37 -104.5 64t-60 62.5t-22.5 84.5q0 79 57 118.5t146 39.5q87 0 140 -34t53 -92q0 -17 -6.5 -26.5
t-22.5 -13.5q-8 -2 -13 -2q-3 0 -15 2q3 11 3 21q0 9 -1 14q-2 47 -42 72.5t-102 25.5q-59 0 -99 -25.5t-40 -82.5q0 -41 21 -70.5t52.5 -50.5t89.5 -53q65 -35 106 -65.5t65 -69.5t24 -90q0 -73 -52.5 -124.5t-170.5 -51.5q-109 0 -163.5 42.5zM257 732q-4 2 -9 9.5
t-6 11.5l133 107q13 -6 26.5 -19t19.5 -27z" />
    <glyph glyph-name="sacute" unicode="&#x15b;" horiz-adv-x="465" 
d="M86.5 21.5q-45.5 34.5 -45.5 89.5q0 50 42 50q8 0 12 -1q-5 -16 -4 -38q1 -48 38 -74.5t99 -26.5q63 0 101 22.5t38 63.5q0 27 -14.5 45.5t-37 31t-61.5 29.5l-36 17q-58 28 -85.5 45t-48.5 46.5t-21 74.5q0 62 48.5 92t123.5 30q81 0 126 -26.5t45 -74.5q0 -33 -27 -40
q-8 -2 -13 -2q-4 0 -14 2q3 11 3 21t-1 14q-2 36 -34 54.5t-88 18.5q-49 0 -81 -18t-32 -56q0 -33 17.5 -55.5t41.5 -36t73 -36.5l28 -13q49 -22 77.5 -39t48.5 -43.5t20 -64.5q0 -56 -46.5 -96t-153.5 -40q-93 0 -138.5 34.5zM236 561h-5q-22 0 -26 6l91 145q16 1 35.5 -4
t29.5 -12z" />
    <glyph glyph-name="Scircumflex" unicode="&#x15c;" horiz-adv-x="550" 
d="M111.5 29.5q-54.5 42.5 -54.5 108.5q0 26 10.5 39.5t36.5 13.5l12 -1q-4 -16 -4 -39q2 -62 47 -96t120 -34q73 0 116 33t43 96q0 40 -18.5 70t-53 55t-97.5 59q-67 37 -104.5 64t-60 62.5t-22.5 84.5q0 79 57 118.5t146 39.5q87 0 140 -34t53 -92q0 -17 -6.5 -26.5
t-22.5 -13.5q-8 -2 -13 -2q-3 0 -15 2q3 11 3 21q0 9 -1 14q-2 47 -42 72.5t-102 25.5q-59 0 -99 -25.5t-40 -82.5q0 -41 21 -70.5t52.5 -50.5t89.5 -53q65 -35 106 -65.5t65 -69.5t24 -90q0 -73 -52.5 -124.5t-170.5 -51.5q-109 0 -163.5 42.5zM418 749q-2 -5 -7.5 -11
t-10.5 -8l-125 78l-126 -78q-5 2 -11 8.5t-7 10.5l121 107q6 2 22 2q17 0 23 -2z" />
    <glyph glyph-name="scircumflex" unicode="&#x15d;" horiz-adv-x="465" 
d="M86.5 21.5q-45.5 34.5 -45.5 89.5q0 50 42 50q8 0 12 -1q-5 -16 -4 -38q1 -48 38 -74.5t99 -26.5q63 0 101 22.5t38 63.5q0 27 -14.5 45.5t-37 31t-61.5 29.5l-36 17q-58 28 -85.5 45t-48.5 46.5t-21 74.5q0 62 48.5 92t123.5 30q81 0 126 -26.5t45 -74.5q0 -33 -27 -40
q-8 -2 -13 -2q-4 0 -14 2q3 11 3 21t-1 14q-2 36 -34 54.5t-88 18.5q-49 0 -81 -18t-32 -56q0 -33 17.5 -55.5t41.5 -36t73 -36.5l28 -13q49 -22 77.5 -39t48.5 -43.5t20 -64.5q0 -56 -46.5 -96t-153.5 -40q-93 0 -138.5 34.5zM104.5 562q-10.5 3 -11.5 7l115 129q9 3 24 3
q12 0 21 -3l115 -129q-3 -4 -12.5 -7t-15.5 -3l-109 90l-109 -90q-7 0 -17.5 3z" />
    <glyph glyph-name="Scedilla" unicode="&#x15e;" horiz-adv-x="550" 
d="M448.5 41q-49.5 -51 -159.5 -54l-6 -32q41 0 65 -19.5t24 -52.5q0 -37 -27 -59.5t-70 -22.5q-56 0 -84 30v2q0 7 3.5 14.5t8.5 10.5q13 -10 25.5 -16t35.5 -6q24 0 38.5 11.5t14.5 34.5q0 47 -61 47l-15 -1l12 60q-98 4 -147 46t-49 104q0 26 10.5 39.5t36.5 13.5l12 -1
q-4 -16 -4 -39q2 -62 47 -96t120 -34q73 0 116 33t43 96q0 40 -18.5 70t-53 55t-97.5 59q-67 37 -104.5 64t-60 62.5t-22.5 84.5q0 79 57 118.5t146 39.5q87 0 140 -34t53 -92q0 -17 -6.5 -26.5t-22.5 -13.5q-8 -2 -13 -2q-3 0 -15 2q3 11 3 21q0 9 -1 14q-2 47 -42 72.5
t-102 25.5q-59 0 -99 -25.5t-40 -82.5q0 -41 21 -70.5t52.5 -50.5t89.5 -53q65 -35 106 -65.5t65 -69.5t24 -90q0 -71 -49.5 -122z" />
    <glyph glyph-name="scedilla" unicode="&#x15f;" horiz-adv-x="465" 
d="M383 31q-42 -39 -138 -44l-6 -32q41 0 65 -19.5t24 -52.5q0 -37 -27 -59.5t-70 -22.5q-56 0 -84 30v2q0 7 3.5 14.5t8.5 10.5q13 -10 25.5 -16t35.5 -6q24 0 38.5 11.5t14.5 34.5q0 47 -61 47l-15 -1l12 59q-85 4 -126.5 38t-41.5 86q0 50 42 50q8 0 12 -1q-5 -16 -4 -38
q1 -48 38 -74.5t99 -26.5q63 0 101 22.5t38 63.5q0 27 -14.5 45.5t-37 31t-61.5 29.5l-36 17q-58 28 -85.5 45t-48.5 46.5t-21 74.5q0 62 48.5 92t123.5 30q81 0 126 -26.5t45 -74.5q0 -33 -27 -40q-8 -2 -13 -2q-4 0 -14 2q3 11 3 21t-1 14q-2 36 -34 54.5t-88 18.5
q-49 0 -81 -18t-32 -56q0 -33 17.5 -55.5t41.5 -36t73 -36.5l28 -13q49 -22 77.5 -39t48.5 -43.5t20 -64.5q0 -53 -42 -92z" />
    <glyph glyph-name="Scaron" unicode="&#x160;" horiz-adv-x="550" 
d="M111.5 29.5q-54.5 42.5 -54.5 108.5q0 26 10.5 39.5t36.5 13.5l12 -1q-4 -16 -4 -39q2 -62 47 -96t120 -34q73 0 116 33t43 96q0 40 -18.5 70t-53 55t-97.5 59q-67 37 -104.5 64t-60 62.5t-22.5 84.5q0 79 57 118.5t146 39.5q87 0 140 -34t53 -92q0 -17 -6.5 -26.5
t-22.5 -13.5q-8 -2 -13 -2q-3 0 -15 2q3 11 3 21q0 9 -1 14q-2 47 -42 72.5t-102 25.5q-59 0 -99 -25.5t-40 -82.5q0 -41 21 -70.5t52.5 -50.5t89.5 -53q65 -35 106 -65.5t65 -69.5t24 -90q0 -73 -52.5 -124.5t-170.5 -51.5q-109 0 -163.5 42.5zM276 734q-13 0 -22 3
l-122 107q3 5 8.5 11t9.5 8l126 -78l125 78q5 -2 10.5 -8t7.5 -11l-121 -107q-9 -3 -22 -3z" />
    <glyph glyph-name="scaron" unicode="&#x161;" horiz-adv-x="465" 
d="M86.5 21.5q-45.5 34.5 -45.5 89.5q0 50 42 50q8 0 12 -1q-5 -16 -4 -38q1 -48 38 -74.5t99 -26.5q63 0 101 22.5t38 63.5q0 27 -14.5 45.5t-37 31t-61.5 29.5l-36 17q-58 28 -85.5 45t-48.5 46.5t-21 74.5q0 62 48.5 92t123.5 30q81 0 126 -26.5t45 -74.5q0 -33 -27 -40
q-8 -2 -13 -2q-4 0 -14 2q3 11 3 21t-1 14q-2 36 -34 54.5t-88 18.5q-49 0 -81 -18t-32 -56q0 -33 17.5 -55.5t41.5 -36t73 -36.5l28 -13q49 -22 77.5 -39t48.5 -43.5t20 -64.5q0 -56 -46.5 -96t-153.5 -40q-93 0 -138.5 34.5zM233 615l109 90q6 0 15.5 -3t12.5 -7
l-115 -130q-10 -2 -20 -2q-11 0 -25 2l-115 130q1 3 11.5 6.5t17.5 3.5z" />
    <glyph glyph-name="uni0162" unicode="&#x162;" horiz-adv-x="518" 
d="M500 674q0 -11 -5 -21.5t-13 -13.5l-42 5q-97 12 -151 14l1 -555q0 -69 10 -99q-1 -1 -5.5 -4.5t-10.5 -5.5l-8 -39q41 0 65 -19.5t24 -52.5q0 -37 -27 -59.5t-70 -22.5q-56 0 -84 30v2q0 7 3.5 14.5t8.5 10.5q13 -10 25.5 -16t35.5 -6q24 0 38.5 11.5t14.5 34.5
q0 47 -61 47l-15 -1l13 66q-16 10 -16 31l-2 633q-55 -2 -152 -14l-40 -5q-8 3 -13 14t-5 22q0 16 11 16h458q12 0 12 -17z" />
    <glyph glyph-name="uni0163" unicode="&#x163;" horiz-adv-x="333" 
d="M161 427l-1 -336q0 -26 13 -40.5t37 -14.5q16 0 30 6.5t20 17.5q10 -14 10 -27q0 -19 -19.5 -30.5t-49.5 -13.5l-7 -34q41 0 65 -19.5t24 -52.5q0 -37 -27 -59.5t-70 -22.5q-56 0 -84 30v2q0 7 3.5 14.5t8.5 10.5q13 -10 25.5 -16t35.5 -6q24 0 38.5 11.5t14.5 34.5
q0 47 -61 47l-15 -1l13 65q-30 8 -47 32.5t-17 62.5v381h-14q-41 0 -60 -3l1 19q1 9 5.5 14t12.5 5h55v98q0 16 10 25.5t26 9.5q20 0 34 -14q-5 -15 -7 -42t-3 -77h56q14 0 35.5 1t35.5 2l-1 -19q-1 -9 -5.5 -14t-11.5 -5h-109v-42z" />
    <glyph glyph-name="Tcaron" unicode="&#x164;" horiz-adv-x="518" 
d="M500 674q0 -11 -5 -21.5t-13 -13.5l-42 5q-97 12 -151 14l1 -555q0 -69 10 -99q-16 -14 -35 -14q-16 0 -25 9.5t-9 25.5l-2 633q-55 -2 -152 -14l-40 -5q-8 3 -13 14t-5 22q0 16 11 16h458q12 0 12 -17zM259 734q-13 0 -22 3l-122 107q3 5 8.5 11t9.5 8l126 -78l125 78
q5 -2 10.5 -8t7.5 -11l-121 -107q-9 -3 -22 -3z" />
    <glyph glyph-name="tcaron" unicode="&#x165;" horiz-adv-x="347" 
d="M227 597q0 53 -11 96q15 5 29 5q16 0 29 -5q1 -66 -17 -136h-32q2 26 2 40zM252.5 505q21.5 1 35.5 2l-1 -19q-1 -9 -5.5 -14t-11.5 -5h-109v-42l-1 -336q0 -26 13 -40.5t37 -14.5q16 0 30 6.5t20 17.5q10 -14 10 -27q0 -20 -21.5 -32t-54.5 -12q-43 0 -68 26t-25 73v381
h-14q-41 0 -60 -3l1 19q1 9 5.5 14t12.5 5h55v98q0 16 10 25.5t26 9.5q20 0 34 -14q-5 -15 -7 -42t-3 -77h56q14 0 35.5 1z" />
    <glyph glyph-name="Utilde" unicode="&#x168;" horiz-adv-x="651" 
d="M562 305q0 -157 -60 -237.5t-177 -80.5t-173.5 77.5t-56.5 240.5v282q0 68 -9 98q14 14 34 14q15 0 24.5 -9.5t9.5 -25.5v-361q0 -146 41.5 -214t129.5 -68q89 0 134 71.5t45 210.5v284q0 65 -10 98q14 14 34 14q15 0 24.5 -9.5t9.5 -25.5v-359zM434.5 770.5
q-20.5 -19.5 -49.5 -19.5q-17 0 -32.5 5.5t-34.5 16.5q-19 10 -31 14.5t-25 4.5q-42 0 -56 -42h-2q-10 0 -20 10q7 38 28.5 56.5t52.5 18.5q17 0 30.5 -5t35.5 -16q20 -10 32.5 -15t27.5 -5q20 0 29.5 8.5t19.5 27.5q15 0 23 -8q-8 -32 -28.5 -51.5z" />
    <glyph glyph-name="utilde" unicode="&#x169;" horiz-adv-x="560" 
d="M530 29q0 -17 -13.5 -27t-37.5 -10q-70 0 -70 92v31q-21 -60 -66.5 -94t-103.5 -34q-81 0 -118 49t-38 165v203q0 65 -10 99q16 14 34 14q15 0 24.5 -9.5t9.5 -25.5l1 -275q0 -69 11 -108t35 -56.5t66 -17.5q36 0 70.5 24t57.5 77.5t23 137.5q0 138 -1.5 177t-8.5 62
q14 14 34 14q15 0 24.5 -10t9.5 -27l1 -390q0 -28 6.5 -39t22.5 -11q18 0 26 16q11 -14 11 -27zM379.5 603.5q-20.5 -21.5 -51.5 -21.5q-18 0 -30.5 6t-33.5 19q-17 12 -29.5 18t-27.5 6q-21 0 -37 -12t-22 -32h-2q-12 0 -19 9q6 38 29.5 58t54.5 20q18 0 32 -6.5t33 -19.5
q16 -12 29.5 -18t28.5 -6q21 0 31.5 11.5t18.5 33.5q14 0 22 -8q-6 -36 -26.5 -57.5z" />
    <glyph glyph-name="Umacron" unicode="&#x16a;" horiz-adv-x="651" 
d="M562 305q0 -157 -60 -237.5t-177 -80.5t-173.5 77.5t-56.5 240.5v282q0 68 -9 98q14 14 34 14q15 0 24.5 -9.5t9.5 -25.5v-361q0 -146 41.5 -214t129.5 -68q89 0 134 71.5t45 210.5v284q0 65 -10 98q14 14 34 14q15 0 24.5 -9.5t9.5 -25.5v-359zM449 807q4 -12 4 -19
q0 -5 -4 -19h-248q-3 11 -3 19q0 10 3 19h248z" />
    <glyph glyph-name="umacron" unicode="&#x16b;" horiz-adv-x="560" 
d="M530 29q0 -17 -13.5 -27t-37.5 -10q-70 0 -70 92v31q-21 -60 -66.5 -94t-103.5 -34q-81 0 -118 49t-38 165v203q0 65 -10 99q16 14 34 14q15 0 24.5 -9.5t9.5 -25.5l1 -275q0 -69 11 -108t35 -56.5t66 -17.5q36 0 70.5 24t57.5 77.5t23 137.5q0 138 -1.5 177t-8.5 62
q14 14 34 14q15 0 24.5 -10t9.5 -27l1 -390q0 -28 6.5 -39t22.5 -11q18 0 26 16q11 -14 11 -27zM391 636q4 -12 4 -18t-4 -18h-248q-3 9 -3 18t3 18h248z" />
    <glyph glyph-name="Ubreve" unicode="&#x16c;" horiz-adv-x="651" 
d="M562 305q0 -157 -60 -237.5t-177 -80.5t-173.5 77.5t-56.5 240.5v282q0 68 -9 98q14 14 34 14q15 0 24.5 -9.5t9.5 -25.5v-361q0 -146 41.5 -214t129.5 -68q89 0 134 71.5t45 210.5v284q0 65 -10 98q14 14 34 14q15 0 24.5 -9.5t9.5 -25.5v-359zM402.5 759
q-32.5 -26 -79.5 -26t-78.5 26t-45.5 65l31 15q13 -30 38 -46.5t61 -16.5q35 0 58.5 17t35.5 45q13 -5 29 -10q-17 -43 -49.5 -69z" />
    <glyph glyph-name="ubreve" unicode="&#x16d;" horiz-adv-x="560" 
d="M530 29q0 -17 -13.5 -27t-37.5 -10q-70 0 -70 92v31q-21 -60 -66.5 -94t-103.5 -34q-81 0 -118 49t-38 165v203q0 65 -10 99q16 14 34 14q15 0 24.5 -9.5t9.5 -25.5l1 -275q0 -69 11 -108t35 -56.5t66 -17.5q36 0 70.5 24t57.5 77.5t23 137.5q0 138 -1.5 177t-8.5 62
q14 14 34 14q15 0 24.5 -10t9.5 -27l1 -390q0 -28 6.5 -39t22.5 -11q18 0 26 16q11 -14 11 -27zM375 690q20 -4 30 -8q-13 -50 -48.5 -83t-89.5 -33q-62 0 -97.5 34.5t-45.5 78.5q11 9 30 12q13 -32 41.5 -56t72.5 -24q75 0 107 79z" />
    <glyph glyph-name="Uring" unicode="&#x16e;" horiz-adv-x="651" 
d="M562 305q0 -157 -60 -237.5t-177 -80.5t-173.5 77.5t-56.5 240.5v282q0 68 -9 98q14 14 34 14q15 0 24.5 -9.5t9.5 -25.5v-361q0 -146 41.5 -214t129.5 -68q89 0 134 71.5t45 210.5v284q0 65 -10 98q14 14 34 14q15 0 24.5 -9.5t9.5 -25.5v-359zM391.5 879.5
q23.5 -21.5 23.5 -57.5q-1 -38 -25 -60.5t-64 -22.5q-38 0 -61.5 21.5t-23.5 57.5q0 38 24.5 60.5t64.5 22.5q38 0 61.5 -21.5zM291 860q-14 -15 -14 -40t14 -40t37 -15t37 15t14 40t-14 40t-37 15t-37 -15z" />
    <glyph glyph-name="uring" unicode="&#x16f;" horiz-adv-x="560" 
d="M530 29q0 -17 -13.5 -27t-37.5 -10q-70 0 -70 92v31q-21 -60 -66.5 -94t-103.5 -34q-81 0 -118 49t-38 165v203q0 65 -10 99q16 14 34 14q15 0 24.5 -9.5t9.5 -25.5l1 -275q0 -69 11 -108t35 -56.5t66 -17.5q36 0 70.5 24t57.5 77.5t23 137.5q0 138 -1.5 177t-8.5 62
q14 14 34 14q15 0 24.5 -10t9.5 -27l1 -390q0 -28 6.5 -39t22.5 -11q18 0 26 16q11 -14 11 -27zM332.5 693.5q23.5 -21.5 23.5 -57.5q-1 -38 -25 -60.5t-64 -22.5q-38 0 -61.5 21.5t-23.5 57.5q0 38 24.5 60.5t64.5 22.5q38 0 61.5 -21.5zM232 674q-14 -15 -14 -40t14 -40
t37 -15t37 15t14 40t-14 40t-37 15t-37 -15z" />
    <glyph glyph-name="Uhungarumlaut" unicode="&#x170;" horiz-adv-x="651" 
d="M562 305q0 -157 -60 -237.5t-177 -80.5t-173.5 77.5t-56.5 240.5v282q0 68 -9 98q14 14 34 14q15 0 24.5 -9.5t9.5 -25.5v-361q0 -146 41.5 -214t129.5 -68q89 0 134 71.5t45 210.5v284q0 65 -10 98q14 14 34 14q15 0 24.5 -9.5t9.5 -25.5v-359zM264 730q-6 1 -12 7
t-8 10l105 128q14 -3 29.5 -12.5t24.5 -21.5zM384 728q-5 1 -11 7t-8 10l105 128q15 -3 29.5 -12.5t24.5 -21.5z" />
    <glyph glyph-name="uhungarumlaut" unicode="&#x171;" horiz-adv-x="560" 
d="M530 29q0 -17 -13.5 -27t-37.5 -10q-70 0 -70 92v31q-21 -60 -66.5 -94t-103.5 -34q-81 0 -118 49t-38 165v203q0 65 -10 99q16 14 34 14q15 0 24.5 -9.5t9.5 -25.5l1 -275q0 -69 11 -108t35 -56.5t66 -17.5q36 0 70.5 24t57.5 77.5t23 137.5q0 138 -1.5 177t-8.5 62
q14 14 34 14q15 0 24.5 -10t9.5 -27l1 -390q0 -28 6.5 -39t22.5 -11q18 0 26 16q11 -14 11 -27zM197 541q-6 1 -13 6.5t-9 9.5l115 163q33 -3 55 -27zM333 541q-11 5 -22 16l116 163q31 -3 54 -26z" />
    <glyph glyph-name="Uogonek" unicode="&#x172;" horiz-adv-x="651" 
d="M358 -37q-18 -20 -18 -47q0 -23 13 -37t38 -14q29 0 50.5 16t33.5 37q13 -8 9 -23q-14 -29 -41.5 -45.5t-62.5 -16.5t-61 19t-26 57q0 46 45 78h-13q-117 0 -173.5 77.5t-56.5 240.5v282q0 68 -9 98q14 14 34 14q15 0 24.5 -9.5t9.5 -25.5v-361q0 -146 41.5 -214
t129.5 -68q89 0 134 71.5t45 210.5v284q0 65 -10 98q14 14 34 14q15 0 24.5 -9.5t9.5 -25.5v-359q0 -124 -37.5 -200.5t-111.5 -103.5q-37 -18 -55 -38z" />
    <glyph glyph-name="uogonek" unicode="&#x173;" horiz-adv-x="560" 
d="M579 -107q-14 -29 -41.5 -45.5t-62.5 -16.5t-61 19t-26 57q0 55 63 90q-42 17 -42 87v31q-21 -60 -66.5 -94t-103.5 -34q-81 0 -118 49t-38 165v203q0 65 -10 99q16 14 34 14q15 0 24.5 -9.5t9.5 -25.5l1 -275q0 -69 11 -108t35 -56.5t66 -17.5q36 0 70.5 24t57.5 77.5
t23 137.5q0 138 -1.5 177t-8.5 62q14 14 34 14q15 0 24.5 -10t9.5 -27l1 -390q0 -28 6.5 -39t22.5 -11q18 0 26 16q11 -14 11 -27q0 -27 -32 -35q-32 -18 -47.5 -36t-15.5 -44q0 -23 13 -37t38 -14q29 0 50.5 16t33.5 37q13 -8 9 -23z" />
    <glyph glyph-name="Wcircumflex" unicode="&#x174;" horiz-adv-x="907" 
d="M885 674q0 -7 -3.5 -19t-4.5 -18l-180 -636q-21 -11 -40 -11q-34 0 -40 23l-157 532l-162 -544q-22 -11 -40 -11q-36 0 -42 23l-173 636q-6 21 -21 40q16 14 37 14q15 0 25.5 -6t13.5 -18l166 -635l160 541q3 11 3 19q0 11 -4 19q18 10 40 10q21 0 29 -11l171 -578
l154 606q5 20 5 28q0 12 -4 19q11 5 31 5q37 0 36 -28zM600 749q-2 -5 -7.5 -11t-10.5 -8l-125 78l-126 -78q-5 2 -11 8.5t-7 10.5l121 107q6 2 22 2q17 0 23 -2z" />
    <glyph glyph-name="wcircumflex" unicode="&#x175;" horiz-adv-x="761" 
d="M179 15l-141 439q-12 30 -20 39q13 15 35 15q14 0 24 -6.5t13 -18.5l134 -448l117 421q5 18 5 27q0 13 -4 20q18 8 41 8q28 0 36 -17l128 -459l125 421q5 20 5 27q0 13 -4 20q15 5 30 5q37 0 35 -29q0 -17 -8 -36l-147 -442q-21 -11 -41 -11q-14 0 -24.5 6t-14.5 19
l-120 428l-123 -442q-19 -11 -44 -11q-29 0 -37 25zM251.5 562q-10.5 3 -11.5 7l115 129q9 3 24 3q12 0 21 -3l115 -129q-3 -4 -12.5 -7t-15.5 -3l-109 90l-109 -90q-7 0 -17.5 3z" />
    <glyph glyph-name="Ycircumflex" unicode="&#x176;" horiz-adv-x="536" 
d="M499 631l-201 -387l1 -141q0 -69 10 -99q-14 -14 -35 -14q-15 0 -24.5 9.5t-9.5 25.5v219l-6 10l-189 389q-8 16 -29 40q19 19 43 19q15 0 24.5 -7.5t16.5 -23.5l177 -380l168 353q10 21 10 32q0 15 -5 21q11 5 32 5q30 0 32 -32q0 -13 -15 -39zM426 749q-2 -5 -7.5 -11
t-10.5 -8l-125 78l-126 -78q-5 2 -11 8.5t-7 10.5l121 107q6 2 22 2q17 0 23 -2z" />
    <glyph glyph-name="ycircumflex" unicode="&#x177;" horiz-adv-x="542" 
d="M464 48q0 -284 -226 -284q-68 0 -115.5 26.5t-47.5 82.5q0 26 13 44.5t35 18.5q21 0 30 -13q-13 -7 -18 -20t-5 -25q0 -43 32 -62.5t75 -19.5q88 0 129 63t41 195q0 21 2 69q-21 -62 -66.5 -97t-110.5 -35q-75 0 -111.5 49.5t-37.5 163.5v200q0 65 -10 99q16 14 34 14
q15 0 24.5 -9.5t9.5 -25.5l1 -273q0 -96 24 -138t79 -42q67 0 113.5 58t46.5 184q0 134 -1.5 172t-8.5 60q14 14 34 14q15 0 24.5 -10t9.5 -27zM149.5 562q-10.5 3 -11.5 7l115 129q9 3 24 3q12 0 21 -3l115 -129q-3 -4 -12.5 -7t-15.5 -3l-109 90l-109 -90q-7 0 -17.5 3z
" />
    <glyph glyph-name="Ydieresis" unicode="&#x178;" horiz-adv-x="536" 
d="M499 631l-201 -387l1 -141q0 -69 10 -99q-14 -14 -35 -14q-15 0 -24.5 9.5t-9.5 25.5v219l-6 10l-189 389q-8 16 -29 40q19 19 43 19q15 0 24.5 -7.5t16.5 -23.5l177 -380l168 353q10 21 10 32q0 15 -5 21q11 5 32 5q30 0 32 -32q0 -13 -15 -39zM168 772q-13 13 -13 31
q0 17 13 30t31 13q17 0 30.5 -13t13.5 -30q0 -18 -13.5 -31t-30.5 -13q-18 0 -31 13zM343 772q-13 13 -13 31q0 17 13 30t31 13q17 0 30 -13t13 -30q0 -18 -13 -31t-30 -13q-18 0 -31 13z" />
    <glyph glyph-name="Zacute" unicode="&#x179;" horiz-adv-x="565" 
d="M517 164q18 -30 18 -64q0 -45 -34 -73t-101 -28l-222 2q-67 2 -115 -7l-13 20q0 30 23 61l379 570l-262 -5q-43 -1 -64.5 -18.5t-21.5 -44.5q0 -19 8.5 -33t25.5 -27q-8 -3 -16 -3q-7 0 -16 3q-22 3 -37 27.5t-15 54.5q0 40 34.5 67t96.5 26l181 -2q56 0 82 1t43 6
l17 -18q0 -37 -20 -66l-381 -566l275 5q51 1 74.5 17.5t26.5 43.5q1 4 1 12q0 21 -9 38t-23 28q14 3 18 3q29 0 47 -30zM268 732q-4 2 -9 9.5t-6 11.5l133 107q13 -6 26.5 -19t19.5 -27z" />
    <glyph glyph-name="zacute" unicode="&#x17a;" horiz-adv-x="484" 
d="M440.5 143.5q13.5 -24.5 13.5 -51.5q0 -42 -31.5 -68t-84.5 -26l-194 2q-66 0 -96 -6l-10 16q0 26 18 48l317 402l-214 -5q-36 -1 -53 -17t-17 -38t19 -41q-10 -6 -20 -3q-23 3 -36.5 23.5t-13.5 43.5q0 37 30 61t85 23l170 -2q31 0 56 1t37 4l11 -14q0 -19 -3.5 -32
t-14.5 -28l-306 -388l220 3q42 1 62 20t20 47q0 14 -6 27t-15 21q10 2 14 2q29 0 42.5 -24.5zM246 562h-5q-22 0 -26 6l91 145q16 1 35.5 -4t29.5 -12z" />
    <glyph glyph-name="Zdotaccent" unicode="&#x17b;" horiz-adv-x="565" 
d="M517 164q18 -30 18 -64q0 -45 -34 -73t-101 -28l-222 2q-67 2 -115 -7l-13 20q0 30 23 61l379 570l-262 -5q-43 -1 -64.5 -18.5t-21.5 -44.5q0 -19 8.5 -33t25.5 -27q-8 -3 -16 -3q-7 0 -16 3q-22 3 -37 27.5t-15 54.5q0 40 34.5 67t96.5 26l181 -2q56 0 82 1t43 6
l17 -18q0 -37 -20 -66l-381 -566l275 5q51 1 74.5 17.5t26.5 43.5q1 4 1 12q0 21 -9 38t-23 28q14 3 18 3q29 0 47 -30zM256.5 765q-13.5 13 -13.5 31t13.5 31t30.5 13q18 0 31 -13t13 -31t-13 -31t-31 -13q-17 0 -30.5 13z" />
    <glyph glyph-name="zdotaccent" unicode="&#x17c;" horiz-adv-x="484" 
d="M440.5 143.5q13.5 -24.5 13.5 -51.5q0 -42 -31.5 -68t-84.5 -26l-194 2q-66 0 -96 -6l-10 16q0 26 18 48l317 402l-214 -5q-36 -1 -53 -17t-17 -38t19 -41q-10 -6 -20 -3q-23 3 -36.5 23.5t-13.5 43.5q0 37 30 61t85 23l170 -2q31 0 56 1t37 4l11 -14q0 -19 -3.5 -32
t-14.5 -28l-306 -388l220 3q42 1 62 20t20 47q0 14 -6 27t-15 21q10 2 14 2q29 0 42.5 -24.5zM210 587q-13 13 -13 31t13 31t31 13q17 0 30.5 -13t13.5 -31t-13.5 -31t-30.5 -13q-18 0 -31 13z" />
    <glyph glyph-name="Zcaron" unicode="&#x17d;" horiz-adv-x="565" 
d="M517 164q18 -30 18 -64q0 -45 -34 -73t-101 -28l-222 2q-67 2 -115 -7l-13 20q0 30 23 61l379 570l-262 -5q-43 -1 -64.5 -18.5t-21.5 -44.5q0 -19 8.5 -33t25.5 -27q-8 -3 -16 -3q-7 0 -16 3q-22 3 -37 27.5t-15 54.5q0 40 34.5 67t96.5 26l181 -2q56 0 82 1t43 6
l17 -18q0 -37 -20 -66l-381 -566l275 5q51 1 74.5 17.5t26.5 43.5q1 4 1 12q0 21 -9 38t-23 28q14 3 18 3q29 0 47 -30zM287 734q-13 0 -22 3l-122 107q3 5 8.5 11t9.5 8l126 -78l125 78q5 -2 10.5 -8t7.5 -11l-121 -107q-9 -3 -22 -3z" />
    <glyph glyph-name="zcaron" unicode="&#x17e;" horiz-adv-x="484" 
d="M440.5 143.5q13.5 -24.5 13.5 -51.5q0 -42 -31.5 -68t-84.5 -26l-194 2q-66 0 -96 -6l-10 16q0 26 18 48l317 402l-214 -5q-36 -1 -53 -17t-17 -38t19 -41q-10 -6 -20 -3q-23 3 -36.5 23.5t-13.5 43.5q0 37 30 61t85 23l170 -2q31 0 56 1t37 4l11 -14q0 -19 -3.5 -32
t-14.5 -28l-306 -388l220 3q42 1 62 20t20 47q0 14 -6 27t-15 21q10 2 14 2q29 0 42.5 -24.5zM243 616l109 90q6 0 15.5 -3t12.5 -7l-115 -130q-10 -2 -20 -2q-11 0 -25 2l-115 130q1 3 11.5 6.5t17.5 3.5z" />
    <glyph glyph-name="uni018F" unicode="&#x18f;" horiz-adv-x="601" 
d="M474.5 611.5q70.5 -91.5 70.5 -264.5q0 -168 -70.5 -264t-202.5 -96q-99 0 -157.5 48.5t-58.5 138.5q0 97 62 147.5t176 50.5q115 0 188 -12q-4 160 -63 229.5t-155 69.5q-66 0 -117.5 -27t-67.5 -80q-15 6 -15 22q0 11 7 25q22 51 77.5 77.5t128.5 26.5
q127 0 197.5 -91.5zM424 98.5q56 79.5 58 230.5q-82 11 -168 11q-89 0 -142 -42t-53 -131q0 -79 45 -113.5t110 -34.5q94 0 150 79.5z" />
    <glyph glyph-name="florin" unicode="&#x192;" horiz-adv-x="375" 
d="M364 720q33 -21 33 -59q0 -31 -17.5 -50.5t-37.5 -19.5q-15 0 -21 7q22 28 22 58q0 53 -70 53q-57 0 -77.5 -40.5t-25.5 -112.5l-3 -52h80q14 0 34.5 1t34.5 2l-2 -19q-1 -9 -5.5 -14t-12.5 -5h-131l-29 -541q-1 -11 -1 -33q0 -41 6 -65q-16 -14 -35 -14q-15 0 -23.5 9.5
t-7.5 25.5l31 618h-17q-41 0 -60 -3l1 19q3 19 19 19h59l3 61q4 74 40.5 125t125.5 51q54 0 87 -21z" />
    <glyph glyph-name="Ohorn" unicode="&#x1a0;" horiz-adv-x="646" 
d="M515 615q67 -90 67 -270t-66.5 -269t-192.5 -89t-192.5 89t-66.5 269t66.5 269t192.5 89q106 0 170 -63q23 10 33 22.5t10 30.5q0 26 -20 49q8 7 22.5 14.5t26.5 11.5q11 -12 17.5 -30.5t6.5 -36.5q0 -55 -74 -86zM517 345q0 325 -194 325t-194 -325q0 -324 194 -324
t194 324z" />
    <glyph glyph-name="ohorn" unicode="&#x1a1;" horiz-adv-x="542" 
d="M432 451q62 -70 62 -199q0 -125 -59 -195t-164 -70q-106 0 -164.5 70t-58.5 195t58.5 195t164.5 70q81 0 136 -43q44 20 44 54q0 26 -20 49q8 7 22.5 14.5t26.5 11.5q11 -12 17.5 -30.5t6.5 -36.5q0 -56 -72 -85zM388.5 80.5q41.5 60.5 41.5 171.5t-41.5 171.5
t-117.5 60.5q-77 0 -118.5 -60.5t-41.5 -171.5t41.5 -171.5t118.5 -60.5q76 0 117.5 60.5z" />
    <glyph glyph-name="Uhorn" unicode="&#x1af;" horiz-adv-x="651" 
d="M558 682q4 -7 4 -18v-359q0 -157 -60 -237.5t-177 -80.5t-173.5 77.5t-56.5 240.5v282q0 68 -9 98q14 14 34 14q15 0 24.5 -9.5t9.5 -25.5v-361q0 -146 41.5 -214t129.5 -68q89 0 134 71.5t45 210.5v284q0 65 -10 98q8 8 20 12q28 10 40.5 24t12.5 33q0 26 -20 49
q8 7 22.5 14.5t26.5 11.5q11 -12 17.5 -30.5t6.5 -36.5q0 -51 -62 -80z" />
    <glyph glyph-name="uhorn" unicode="&#x1b0;" horiz-adv-x="560" 
d="M530 29q0 -17 -13.5 -27t-37.5 -10q-70 0 -70 92v31q-21 -60 -66.5 -94t-103.5 -34q-81 0 -118 49t-38 165v203q0 65 -10 99q16 14 34 14q15 0 24.5 -9.5t9.5 -25.5l1 -275q0 -69 11 -108t35 -56.5t66 -17.5q36 0 70.5 24t57.5 77.5t23 137.5q0 138 -1.5 177t-8.5 62
q14 14 34 14q15 0 24.5 -10t9.5 -27l1 -390q0 -28 6.5 -39t22.5 -11q18 0 26 16q11 -14 11 -27zM514 509q28 10 40.5 24t12.5 33q0 26 -20 49q8 7 22.5 14.5t26.5 11.5q11 -12 17.5 -30.5t6.5 -36.5q0 -63 -95 -93z" />
    <glyph glyph-name="uni01CD" unicode="&#x1cd;" horiz-adv-x="580" 
d="M568 5q-13 -15 -34 -15q-15 0 -25.5 6.5t-13.5 18.5l-68 211h-277l-58 -183q-6 -16 -6 -28q0 -13 5 -19q-15 -6 -33 -6q-34 0 -34 29q0 7 3.5 19t4.5 18l219 637q25 11 47 11q31 0 39 -25l210 -634q9 -25 21 -40zM414 265l-127 395l-125 -395h252zM290 734q-13 0 -22 3
l-122 107q3 5 8.5 11t9.5 8l126 -78l125 78q5 -2 10.5 -8t7.5 -11l-121 -107q-9 -3 -22 -3z" />
    <glyph glyph-name="uni01CE" unicode="&#x1ce;" horiz-adv-x="543" 
d="M532 34q0 -19 -18 -31.5t-43 -12.5q-78 0 -78 107v55q-34 -76 -93.5 -119.5t-128.5 -43.5q-58 0 -90 31.5t-32 83.5q0 57 42.5 98t119.5 62q66 17 136 17q15 0 43 -2v26q0 91 -34 135.5t-109 44.5q-48 0 -82.5 -19.5t-34.5 -64.5q0 -22 12 -42.5t34 -27.5
q-13 -18 -39 -18q-29 0 -47.5 26t-18.5 59q0 59 48.5 89t134.5 30q100 0 148 -53t48 -162v-211q0 -53 37 -53q9 0 19 6t16 17q10 -11 10 -27zM283 64q46 32 76.5 83t31.5 105l-24 1q-38 0 -78.5 -5.5t-67.5 -15.5q-52 -17 -80 -47t-28 -71q0 -35 19.5 -58.5t60.5 -23.5
q44 0 90 32zM259 615l109 90q6 0 15.5 -3t12.5 -7l-115 -130q-10 -2 -20 -2q-11 0 -25 2l-115 130q1 3 11.5 6.5t17.5 3.5z" />
    <glyph glyph-name="uni01CF" unicode="&#x1cf;" horiz-adv-x="261" 
d="M111.5 -0.5q-9.5 9.5 -9.5 25.5l-1 562q0 65 -10 98q14 14 34 14q16 0 26 -9.5t10 -25.5v-561q0 -69 10 -99q-14 -14 -35 -14q-15 0 -24.5 9.5zM124 734q-13 0 -22 3l-122 107q3 5 8.5 11t9.5 8l126 -78l125 78q5 -2 10.5 -8t7.5 -11l-121 -107q-9 -3 -22 -3z" />
    <glyph glyph-name="uni01D0" unicode="&#x1d0;" horiz-adv-x="236" 
d="M155 4q-14 -14 -34 -14q-15 0 -24 9.5t-9 25.5l-2 380q0 68 -9 98q14 14 33 14q16 0 25 -9t9 -26l2 -379q0 -68 9 -99zM111 615l109 90q6 0 15.5 -3t12.5 -7l-115 -130q-10 -2 -20 -2q-11 0 -25 2l-115 130q1 3 11.5 6.5t17.5 3.5z" />
    <glyph glyph-name="uni01D1" unicode="&#x1d1;" horiz-adv-x="646" 
d="M130.5 76q-66.5 89 -66.5 269t66.5 269t192.5 89t192.5 -89t66.5 -269t-66.5 -269t-192.5 -89t-192.5 89zM517 345q0 325 -194 325t-194 -325q0 -324 194 -324t194 324zM322 734q-13 0 -22 3l-122 107q3 5 8.5 11t9.5 8l126 -78l125 78q5 -2 10.5 -8t7.5 -11l-121 -107
q-9 -3 -22 -3z" />
    <glyph glyph-name="uni01D2" unicode="&#x1d2;" horiz-adv-x="542" 
d="M106.5 57q-58.5 70 -58.5 195t58.5 195t164.5 70q105 0 164 -70t59 -195t-59 -195t-164 -70q-106 0 -164.5 70zM388.5 80.5q41.5 60.5 41.5 171.5t-41.5 171.5t-117.5 60.5q-77 0 -118.5 -60.5t-41.5 -171.5t41.5 -171.5t118.5 -60.5q76 0 117.5 60.5zM271 615l109 90
q6 0 15.5 -3t12.5 -7l-115 -130q-10 -2 -20 -2q-11 0 -25 2l-115 130q1 3 11.5 6.5t17.5 3.5z" />
    <glyph glyph-name="uni01D3" unicode="&#x1d3;" horiz-adv-x="651" 
d="M562 305q0 -157 -60 -237.5t-177 -80.5t-173.5 77.5t-56.5 240.5v282q0 68 -9 98q14 14 34 14q15 0 24.5 -9.5t9.5 -25.5v-361q0 -146 41.5 -214t129.5 -68q89 0 134 71.5t45 210.5v284q0 65 -10 98q14 14 34 14q15 0 24.5 -9.5t9.5 -25.5v-359zM325 734q-13 0 -22 3
l-122 107q3 5 8.5 11t9.5 8l126 -78l125 78q5 -2 10.5 -8t7.5 -11l-121 -107q-9 -3 -22 -3z" />
    <glyph glyph-name="uni01D4" unicode="&#x1d4;" horiz-adv-x="560" 
d="M530 29q0 -17 -13.5 -27t-37.5 -10q-70 0 -70 92v31q-21 -60 -66.5 -94t-103.5 -34q-81 0 -118 49t-38 165v203q0 65 -10 99q16 14 34 14q15 0 24.5 -9.5t9.5 -25.5l1 -275q0 -69 11 -108t35 -56.5t66 -17.5q36 0 70.5 24t57.5 77.5t23 137.5q0 138 -1.5 177t-8.5 62
q14 14 34 14q15 0 24.5 -10t9.5 -27l1 -390q0 -28 6.5 -39t22.5 -11q18 0 26 16q11 -14 11 -27zM268 615l109 90q6 0 15.5 -3t12.5 -7l-115 -130q-10 -2 -20 -2q-11 0 -25 2l-115 130q1 3 11.5 6.5t17.5 3.5z" />
    <glyph glyph-name="uni01D5" unicode="&#x1d5;" horiz-adv-x="651" 
d="M562 305q0 -157 -60 -237.5t-177 -80.5t-173.5 77.5t-56.5 240.5v282q0 68 -9 98q14 14 34 14q15 0 24.5 -9.5t9.5 -25.5v-361q0 -146 41.5 -214t129.5 -68q89 0 134 71.5t45 210.5v284q0 65 -10 98q14 14 34 14q15 0 24.5 -9.5t9.5 -25.5v-359zM210 772q-13 13 -13 31
q0 17 13 30t31 13q17 0 30.5 -13t13.5 -30q0 -18 -13.5 -31t-30.5 -13q-18 0 -31 13zM385 772q-13 13 -13 31q0 17 13 30t31 13q17 0 30 -13t13 -30q0 -18 -13 -31t-30 -13q-18 0 -31 13zM449 934q4 -12 4 -19q0 -5 -4 -19h-248q-3 11 -3 19q0 10 3 19h248z" />
    <glyph glyph-name="uni01D6" unicode="&#x1d6;" horiz-adv-x="560" 
d="M530 29q0 -17 -13.5 -27t-37.5 -10q-70 0 -70 92v31q-21 -60 -66.5 -94t-103.5 -34q-81 0 -118 49t-38 165v203q0 65 -10 99q16 14 34 14q15 0 24.5 -9.5t9.5 -25.5l1 -275q0 -69 11 -108t35 -56.5t66 -17.5q36 0 70.5 24t57.5 77.5t23 137.5q0 138 -1.5 177t-8.5 62
q14 14 34 14q15 0 24.5 -10t9.5 -27l1 -390q0 -28 6.5 -39t22.5 -11q18 0 26 16q11 -14 11 -27zM155.5 599q-12.5 13 -12.5 29q0 17 12.5 29.5t29.5 12.5t29.5 -12.5t12.5 -29.5t-12.5 -29.5t-29.5 -12.5t-29.5 13zM324.5 598.5q-12.5 12.5 -12.5 29.5t12 29.5t29 12.5
t29.5 -12.5t12.5 -29.5t-12.5 -29.5t-29.5 -12.5q-16 0 -28.5 12.5zM391 763q4 -12 4 -18t-4 -18h-248q-3 9 -3 18t3 18h248z" />
    <glyph glyph-name="uni01D7" unicode="&#x1d7;" horiz-adv-x="651" 
d="M562 305q0 -157 -60 -237.5t-177 -80.5t-173.5 77.5t-56.5 240.5v282q0 68 -9 98q14 14 34 14q15 0 24.5 -9.5t9.5 -25.5v-361q0 -146 41.5 -214t129.5 -68q89 0 134 71.5t45 210.5v284q0 65 -10 98q14 14 34 14q15 0 24.5 -9.5t9.5 -25.5v-359zM210 772q-13 13 -13 31
q0 17 13 30t31 13q17 0 30.5 -13t13.5 -30q0 -18 -13.5 -31t-30.5 -13q-18 0 -31 13zM385 772q-13 13 -13 31q0 17 13 30t31 13q17 0 30 -13t13 -30q0 -18 -13 -31t-30 -13q-18 0 -31 13zM306 859q-4 2 -9 9.5t-6 11.5l133 107q13 -6 26.5 -19t19.5 -27z" />
    <glyph glyph-name="uni01D8" unicode="&#x1d8;" horiz-adv-x="560" 
d="M530 29q0 -17 -13.5 -27t-37.5 -10q-70 0 -70 92v31q-21 -60 -66.5 -94t-103.5 -34q-81 0 -118 49t-38 165v203q0 65 -10 99q16 14 34 14q15 0 24.5 -9.5t9.5 -25.5l1 -275q0 -69 11 -108t35 -56.5t66 -17.5q36 0 70.5 24t57.5 77.5t23 137.5q0 138 -1.5 177t-8.5 62
q14 14 34 14q15 0 24.5 -10t9.5 -27l1 -390q0 -28 6.5 -39t22.5 -11q18 0 26 16q11 -14 11 -27zM155.5 599q-12.5 13 -12.5 29q0 17 12.5 29.5t29.5 12.5t29.5 -12.5t12.5 -29.5t-12.5 -29.5t-29.5 -12.5t-29.5 13zM324.5 598.5q-12.5 12.5 -12.5 29.5t12 29.5t29 12.5
t29.5 -12.5t12.5 -29.5t-12.5 -29.5t-29.5 -12.5q-16 0 -28.5 12.5zM271 688h-5q-22 0 -26 6l91 145q16 1 35.5 -4t29.5 -12z" />
    <glyph glyph-name="uni01D9" unicode="&#x1d9;" horiz-adv-x="651" 
d="M562 305q0 -157 -60 -237.5t-177 -80.5t-173.5 77.5t-56.5 240.5v282q0 68 -9 98q14 14 34 14q15 0 24.5 -9.5t9.5 -25.5v-361q0 -146 41.5 -214t129.5 -68q89 0 134 71.5t45 210.5v284q0 65 -10 98q14 14 34 14q15 0 24.5 -9.5t9.5 -25.5v-359zM210 772q-13 13 -13 31
q0 17 13 30t31 13q17 0 30.5 -13t13.5 -30q0 -18 -13.5 -31t-30.5 -13q-18 0 -31 13zM385 772q-13 13 -13 31q0 17 13 30t31 13q17 0 30 -13t13 -30q0 -18 -13 -31t-30 -13q-18 0 -31 13zM325 861q-13 0 -22 3l-122 107q3 5 8.5 11t9.5 8l126 -78l125 78q5 -2 10.5 -8
t7.5 -11l-121 -107q-9 -3 -22 -3z" />
    <glyph glyph-name="uni01DA" unicode="&#x1da;" horiz-adv-x="560" 
d="M530 29q0 -17 -13.5 -27t-37.5 -10q-70 0 -70 92v31q-21 -60 -66.5 -94t-103.5 -34q-81 0 -118 49t-38 165v203q0 65 -10 99q16 14 34 14q15 0 24.5 -9.5t9.5 -25.5l1 -275q0 -69 11 -108t35 -56.5t66 -17.5q36 0 70.5 24t57.5 77.5t23 137.5q0 138 -1.5 177t-8.5 62
q14 14 34 14q15 0 24.5 -10t9.5 -27l1 -390q0 -28 6.5 -39t22.5 -11q18 0 26 16q11 -14 11 -27zM155.5 599q-12.5 13 -12.5 29q0 17 12.5 29.5t29.5 12.5t29.5 -12.5t12.5 -29.5t-12.5 -29.5t-29.5 -12.5t-29.5 13zM324.5 598.5q-12.5 12.5 -12.5 29.5t12 29.5t29 12.5
t29.5 -12.5t12.5 -29.5t-12.5 -29.5t-29.5 -12.5q-16 0 -28.5 12.5zM268 742l109 90q6 0 15.5 -3t12.5 -7l-115 -130q-10 -2 -20 -2q-11 0 -25 2l-115 130q1 3 11.5 6.5t17.5 3.5z" />
    <glyph glyph-name="uni01DB" unicode="&#x1db;" horiz-adv-x="651" 
d="M562 305q0 -157 -60 -237.5t-177 -80.5t-173.5 77.5t-56.5 240.5v282q0 68 -9 98q14 14 34 14q15 0 24.5 -9.5t9.5 -25.5v-361q0 -146 41.5 -214t129.5 -68q89 0 134 71.5t45 210.5v284q0 65 -10 98q14 14 34 14q15 0 24.5 -9.5t9.5 -25.5v-359zM210 772q-13 13 -13 31
q0 17 13 30t31 13q17 0 30.5 -13t13.5 -30q0 -18 -13.5 -31t-30.5 -13q-18 0 -31 13zM385 772q-13 13 -13 31q0 17 13 30t31 13q17 0 30 -13t13 -30q0 -18 -13 -31t-30 -13q-18 0 -31 13zM198 968q13 13 26 19l134 -107q-1 -4 -6 -11.5t-9 -9.5l-164 82q6 14 19 27z" />
    <glyph glyph-name="uni01DC" unicode="&#x1dc;" horiz-adv-x="560" 
d="M530 29q0 -17 -13.5 -27t-37.5 -10q-70 0 -70 92v31q-21 -60 -66.5 -94t-103.5 -34q-81 0 -118 49t-38 165v203q0 65 -10 99q16 14 34 14q15 0 24.5 -9.5t9.5 -25.5l1 -275q0 -69 11 -108t35 -56.5t66 -17.5q36 0 70.5 24t57.5 77.5t23 137.5q0 138 -1.5 177t-8.5 62
q14 14 34 14q15 0 24.5 -10t9.5 -27l1 -390q0 -28 6.5 -39t22.5 -11q18 0 26 16q11 -14 11 -27zM155.5 599q-12.5 13 -12.5 29q0 17 12.5 29.5t29.5 12.5t29.5 -12.5t12.5 -29.5t-12.5 -29.5t-29.5 -12.5t-29.5 13zM324.5 598.5q-12.5 12.5 -12.5 29.5t12 29.5t29 12.5
t29.5 -12.5t12.5 -29.5t-12.5 -29.5t-29.5 -12.5q-16 0 -28.5 12.5zM161.5 835q19.5 5 35.5 4l91 -145q-3 -3 -13 -5t-18 -1l-125 135q10 7 29.5 12z" />
    <glyph glyph-name="Gcaron" unicode="&#x1e6;" horiz-adv-x="614" 
d="M132.5 78.5q-68.5 91.5 -68.5 266.5q0 174 69.5 266t197.5 92q49 0 92 -13t68.5 -34.5t25.5 -43.5q0 -17 -13 -27t-35 -7q-8 43 -45 67.5t-91 24.5q-101 0 -152.5 -82t-51.5 -243t51.5 -242.5t153.5 -81.5q93 0 126.5 60.5t33.5 139.5q0 128 -80 137q2 13 13.5 20t28.5 7
q42 0 70 -37t28 -119q0 -60 -20.5 -114.5t-70 -91t-131.5 -36.5q-131 0 -199.5 91.5zM327 734q-13 0 -22 3l-122 107q3 5 8.5 11t9.5 8l126 -78l125 78q5 -2 10.5 -8t7.5 -11l-121 -107q-9 -3 -22 -3z" />
    <glyph glyph-name="gcaron" unicode="&#x1e7;" horiz-adv-x="534" 
d="M97.5 -204.5q-46.5 31.5 -46.5 90.5q0 31 15 50.5t37 19.5q21 0 31 -13q-27 -18 -27 -57q0 -45 30.5 -67.5t78.5 -22.5q94 0 137.5 63.5t43.5 192.5v66q-19 -59 -64 -92t-109 -33q-176 0 -176 255q0 110 47.5 189.5t174.5 79.5q53 0 103.5 -14.5t82.5 -51.5v-406
q0 -281 -242 -281q-70 0 -116.5 31.5zM358 97q38 66 39 151l1 193q-18 21 -53.5 32t-79.5 11q-90 0 -122 -69.5t-32 -172.5q0 -110 31 -160.5t95 -50.5q83 0 121 66zM271 617l109 90q6 0 15.5 -3t12.5 -7l-115 -130q-10 -2 -20 -2q-11 0 -25 2l-115 130q1 3 11.5 6.5
t17.5 3.5z" />
    <glyph glyph-name="Scommaaccent" unicode="&#x218;" horiz-adv-x="550" 
d="M111.5 29.5q-54.5 42.5 -54.5 108.5q0 26 10.5 39.5t36.5 13.5l12 -1q-4 -16 -4 -39q2 -62 47 -96t120 -34q73 0 116 33t43 96q0 40 -18.5 70t-53 55t-97.5 59q-67 37 -104.5 64t-60 62.5t-22.5 84.5q0 79 57 118.5t146 39.5q87 0 140 -34t53 -92q0 -17 -6.5 -26.5
t-22.5 -13.5q-8 -2 -13 -2q-3 0 -15 2q3 11 3 21q0 9 -1 14q-2 47 -42 72.5t-102 25.5q-59 0 -99 -25.5t-40 -82.5q0 -41 21 -70.5t52.5 -50.5t89.5 -53q65 -35 106 -65.5t65 -69.5t24 -90q0 -73 -52.5 -124.5t-170.5 -51.5q-109 0 -163.5 42.5zM242 -192q29 32 29 63
q0 22 -10.5 32.5t-27.5 16.5q0 16 13 31t35 15q20 0 35 -13.5t15 -46.5q0 -60 -64 -114q-14 4 -25 16z" />
    <glyph glyph-name="scommaaccent" unicode="&#x219;" horiz-adv-x="465" 
d="M86.5 21.5q-45.5 34.5 -45.5 89.5q0 50 42 50q8 0 12 -1q-5 -16 -4 -38q1 -48 38 -74.5t99 -26.5q63 0 101 22.5t38 63.5q0 27 -14.5 45.5t-37 31t-61.5 29.5l-36 17q-58 28 -85.5 45t-48.5 46.5t-21 74.5q0 62 48.5 92t123.5 30q81 0 126 -26.5t45 -74.5q0 -33 -27 -40
q-8 -2 -13 -2q-4 0 -14 2q3 11 3 21t-1 14q-2 36 -34 54.5t-88 18.5q-49 0 -81 -18t-32 -56q0 -33 17.5 -55.5t41.5 -36t73 -36.5l28 -13q49 -22 77.5 -39t48.5 -43.5t20 -64.5q0 -56 -46.5 -96t-153.5 -40q-93 0 -138.5 34.5zM199 -192q29 32 29 63q0 22 -10.5 32.5
t-27.5 16.5q0 16 13 31t35 15q20 0 35 -13.5t15 -46.5q0 -60 -64 -114q-14 4 -25 16z" />
    <glyph glyph-name="uni021A" unicode="&#x21a;" horiz-adv-x="518" 
d="M500 674q0 -11 -5 -21.5t-13 -13.5l-42 5q-97 12 -151 14l1 -555q0 -69 10 -99q-16 -14 -35 -14q-16 0 -25 9.5t-9 25.5l-2 633q-55 -2 -152 -14l-40 -5q-8 3 -13 14t-5 22q0 16 11 16h458q12 0 12 -17zM235 -192q29 32 29 63q0 22 -10.5 32.5t-27.5 16.5q0 16 13 31
t35 15q20 0 35 -13.5t15 -46.5q0 -60 -64 -114q-14 4 -25 16z" />
    <glyph glyph-name="uni021B" unicode="&#x21b;" horiz-adv-x="333" 
d="M252.5 505q21.5 1 35.5 2l-1 -19q-1 -9 -5.5 -14t-11.5 -5h-109v-42l-1 -336q0 -26 13 -40.5t37 -14.5q16 0 30 6.5t20 17.5q10 -14 10 -27q0 -20 -21.5 -32t-54.5 -12q-43 0 -68 26t-25 73v381h-14q-41 0 -60 -3l1 19q1 9 5.5 14t12.5 5h55v98q0 16 10 25.5t26 9.5
q20 0 34 -14q-5 -15 -7 -42t-3 -77h56q14 0 35.5 1zM153 -192q29 32 29 63q0 22 -10.5 32.5t-27.5 16.5q0 16 13 31t35 15q20 0 35 -13.5t15 -46.5q0 -60 -64 -114q-14 4 -25 16z" />
    <glyph glyph-name="uni0237" unicode="&#x237;" horiz-adv-x="245" 
d="M-44 -213q-26 21 -26 56q0 16 9.5 28.5t27.5 12.5q11 0 16 -8q-6 -12 -6 -29q0 -27 16 -38t37 -11q44 0 59.5 37t15.5 109l1 460q0 69 -10 99q14 14 34 14q15 0 24 -9.5t9 -25.5l1 -547q0 -72 -29 -120.5t-105 -48.5q-48 0 -74 21z" />
    <glyph glyph-name="uni0251" unicode="&#x251;" horiz-adv-x="557" 
d="M526 29q0 -16 -15 -26.5t-38 -10.5q-71 0 -71 108v32q-25 -67 -71 -106t-114 -39q-97 0 -133 71.5t-36 168.5q0 136 54 212t156 76q52 0 89 -21t53 -61q2 30 2 49l-1 26q10 8 21 8q18 0 27.5 -10t9.5 -26l-1 -389q0 -51 31 -51q19 0 27 17q10 -14 10 -28zM319.5 63.5
q38.5 35.5 59 96t20.5 133.5q0 183 -133 183q-76 0 -115.5 -61.5t-39.5 -184.5q0 -87 24 -144.5t95 -57.5q51 0 89.5 35.5z" />
    <glyph glyph-name="uni0259" unicode="&#x259;" horiz-adv-x="507" 
d="M399.5 450q59.5 -67 59.5 -193q0 -127 -60 -198.5t-172 -71.5q-79 0 -126 37t-47 104q0 75 60 113.5t171 38.5q56 0 110 -8q-4 107 -51.5 154t-122.5 47q-56 0 -97.5 -23.5t-55.5 -68.5q-14 7 -14 22q0 13 6 25q18 43 64.5 66t108.5 23q107 0 166.5 -67zM350 76.5
q45 57.5 46 165.5q-62 6 -98 6q-182 0 -182 -126q0 -55 33 -79t81 -24q75 0 120 57.5z" />
    <glyph glyph-name="uni0261" unicode="&#x261;" horiz-adv-x="534" 
d="M97.5 -204.5q-46.5 31.5 -46.5 90.5q0 31 15 50.5t37 19.5q21 0 31 -13q-27 -18 -27 -57q0 -45 30.5 -67.5t78.5 -22.5q94 0 137.5 63.5t43.5 192.5v66q-19 -59 -64 -92t-109 -33q-176 0 -176 255q0 110 47.5 189.5t174.5 79.5q53 0 103.5 -14.5t82.5 -51.5v-406
q0 -281 -242 -281q-70 0 -116.5 31.5zM358 97q38 66 39 151l1 193q-18 21 -53.5 32t-79.5 11q-90 0 -122 -69.5t-32 -172.5q0 -110 31 -160.5t95 -50.5q83 0 121 66z" />
    <glyph glyph-name="uni02BC" unicode="&#x2bc;" horiz-adv-x="600" 
d="M258 536h32l14 138q-11 4 -29 4q-17 0 -29 -4z" />
    <glyph glyph-name="circumflex" unicode="&#x2c6;" horiz-adv-x="600" 
d="M173.5 562q-10.5 3 -11.5 7l115 129q9 3 24 3q12 0 21 -3l115 -129q-3 -4 -12.5 -7t-15.5 -3l-109 90l-109 -90q-7 0 -17.5 3z" />
    <glyph glyph-name="caron" unicode="&#x2c7;" horiz-adv-x="600" 
d="M300 615l109 90q6 0 15.5 -3t12.5 -7l-115 -130q-10 -2 -20 -2q-11 0 -25 2l-115 130q1 3 11.5 6.5t17.5 3.5z" />
    <glyph glyph-name="breve" unicode="&#x2d8;" horiz-adv-x="600" 
d="M405 690q20 -4 30 -8q-13 -50 -48.5 -83t-89.5 -33q-62 0 -97.5 34.5t-45.5 78.5q11 9 30 12q13 -32 41.5 -56t72.5 -24q75 0 107 79z" />
    <glyph glyph-name="dotaccent" unicode="&#x2d9;" horiz-adv-x="600" 
d="M267 586q-13 13 -13 31t13 31t31 13q17 0 30.5 -13t13.5 -31t-13.5 -31t-30.5 -13q-18 0 -31 13z" />
    <glyph glyph-name="ring" unicode="&#x2da;" horiz-adv-x="600" 
d="M363.5 693.5q23.5 -21.5 23.5 -57.5q-1 -38 -25 -60.5t-64 -22.5q-38 0 -61.5 21.5t-23.5 57.5q0 38 24.5 60.5t64.5 22.5q38 0 61.5 -21.5zM263 674q-14 -15 -14 -40t14 -40t37 -15t37 15t14 40t-14 40t-37 15t-37 -15z" />
    <glyph glyph-name="ogonek" unicode="&#x2db;" horiz-adv-x="600" 
d="M245 -150q-26 19 -26 57q0 41 33.5 69t83.5 43l9 -17q-40 -19 -59.5 -39.5t-19.5 -48.5q0 -23 13 -37t38 -14q29 0 50.5 16t33.5 37q13 -8 9 -23q-14 -29 -41.5 -45.5t-62.5 -16.5t-61 19z" />
    <glyph glyph-name="tilde" unicode="&#x2dc;" horiz-adv-x="600" 
d="M409.5 604.5q-20.5 -21.5 -51.5 -21.5q-18 0 -30.5 6t-33.5 19q-17 12 -29.5 18t-27.5 6q-21 0 -37 -12t-22 -32h-2q-12 0 -19 9q6 38 29.5 58t54.5 20q18 0 32 -6.5t33 -19.5q16 -12 29.5 -18t28.5 -6q21 0 31.5 11.5t18.5 33.5q14 0 22 -8q-6 -36 -26.5 -57.5z" />
    <glyph glyph-name="hungarumlaut" unicode="&#x2dd;" horiz-adv-x="600" 
d="M172 541q-6 1 -13 6.5t-9 9.5l115 163q33 -3 55 -27zM308 541q-11 5 -22 16l116 163q31 -3 54 -26z" />
    <glyph glyph-name="gravecomb" unicode="&#x300;" 
d="M-388.5 708q19.5 5 35.5 4l91 -145q-3 -3 -13 -5t-18 -1l-125 135q10 7 29.5 12z" />
    <glyph glyph-name="acutecomb" unicode="&#x301;" 
d="M-348 561h-5q-22 0 -26 6l91 145q16 1 35.5 -4t29.5 -12z" />
    <glyph glyph-name="uni0302" unicode="&#x302;" 
d="M-426.5 562q-10.5 3 -11.5 7l115 129q9 3 24 3q12 0 21 -3l115 -129q-3 -4 -12.5 -7t-15.5 -3l-109 90l-109 -90q-7 0 -17.5 3z" />
    <glyph glyph-name="tildecomb" unicode="&#x303;" 
d="M-190.5 604.5q-20.5 -21.5 -51.5 -21.5q-18 0 -30.5 6t-33.5 19q-17 12 -29.5 18t-27.5 6q-21 0 -37 -12t-22 -32h-2q-12 0 -19 9q6 38 29.5 58t54.5 20q18 0 32 -6.5t33 -19.5q16 -12 29.5 -18t28.5 -6q21 0 31.5 11.5t18.5 33.5q14 0 22 -8q-6 -36 -26.5 -57.5z" />
    <glyph glyph-name="uni0304" unicode="&#x304;" 
d="M-186 636q4 -12 4 -18t-4 -18h-248q-3 9 -3 18t3 18h248z" />
    <glyph glyph-name="uni0306" unicode="&#x306;" 
d="M-195 690q20 -4 30 -8q-13 -50 -48.5 -83t-89.5 -33q-62 0 -97.5 34.5t-45.5 78.5q11 9 30 12q13 -32 41.5 -56t72.5 -24q75 0 107 79z" />
    <glyph glyph-name="uni0307" unicode="&#x307;" 
d="M-333 586q-13 13 -13 31t13 31t31 13q17 0 30.5 -13t13.5 -31t-13.5 -31t-30.5 -13q-18 0 -31 13z" />
    <glyph glyph-name="uni0308" unicode="&#x308;" 
d="M-417.5 599q-12.5 13 -12.5 29q0 17 12.5 29.5t29.5 12.5t29.5 -12.5t12.5 -29.5t-12.5 -29.5t-29.5 -12.5t-29.5 13zM-248.5 598.5q-12.5 12.5 -12.5 29.5t12 29.5t29 12.5t29.5 -12.5t12.5 -29.5t-12.5 -29.5t-29.5 -12.5q-16 0 -28.5 12.5z" />
    <glyph glyph-name="hookabovecomb" unicode="&#x309;" 
d="M-415 567q29 8 41 16.5t12 23.5q0 18 -21.5 24.5t-48.5 6.5l-2 34q49 1 85 -13t36 -49q0 -26 -22 -43t-71 -25z" />
    <glyph glyph-name="uni030A" unicode="&#x30a;" 
d="M-236.5 693.5q23.5 -21.5 23.5 -57.5q-1 -38 -25 -60.5t-64 -22.5q-38 0 -61.5 21.5t-23.5 57.5q0 38 24.5 60.5t64.5 22.5q38 0 61.5 -21.5zM-337 674q-14 -15 -14 -40t14 -40t37 -15t37 15t14 40t-14 40t-37 15t-37 -15z" />
    <glyph glyph-name="uni030B" unicode="&#x30b;" 
d="M-428 541q-6 1 -13 6.5t-9 9.5l115 163q33 -3 55 -27zM-292 541q-11 5 -22 16l116 163q31 -3 54 -26z" />
    <glyph glyph-name="uni030C" unicode="&#x30c;" 
d="M-300 615l109 90q6 0 15.5 -3t12.5 -7l-115 -130q-10 -2 -20 -2q-11 0 -25 2l-115 130q1 3 11.5 6.5t17.5 3.5z" />
    <glyph glyph-name="uni031B" unicode="&#x31b;" 
d="M-433 509q28 10 40.5 24t12.5 33q0 26 -20 49q8 7 22.5 14.5t26.5 11.5q11 -12 17.5 -30.5t6.5 -36.5q0 -63 -95 -93z" />
    <glyph glyph-name="dotbelowcomb" unicode="&#x323;" 
d="M-332.5 -120.5q-13.5 13.5 -13.5 32.5t13.5 32.5t32.5 13.5t32.5 -13.5t13.5 -32.5t-13.5 -32.5t-32.5 -13.5t-32.5 13.5z" />
    <glyph glyph-name="uni0324" unicode="&#x324;" 
d="M-420.5 -140.5q-13.5 13.5 -13.5 31.5q0 19 13.5 32.5t32.5 13.5q18 0 31.5 -13.5t13.5 -32.5q0 -18 -13.5 -31.5t-31.5 -13.5q-19 0 -32.5 13.5zM-243.5 -140.5q-13.5 13.5 -13.5 31.5q0 19 13.5 32.5t32.5 13.5q18 0 31.5 -13.5t13.5 -32.5q0 -18 -13.5 -31.5
t-31.5 -13.5q-19 0 -32.5 13.5z" />
    <glyph glyph-name="uni0326" unicode="&#x326;" 
d="M-336 -192q29 32 29 63q0 22 -10.5 32.5t-27.5 16.5q0 16 13 31t35 15q20 0 35 -13.5t15 -46.5q0 -60 -64 -114q-14 4 -25 16z" />
    <glyph glyph-name="uni0327" unicode="&#x327;" 
d="M-303 -45q41 0 65 -19.5t24 -52.5q0 -37 -27 -59.5t-70 -22.5q-56 0 -84 30v2q0 7 3.5 14.5t8.5 10.5q13 -10 25.5 -16t35.5 -6q24 0 38.5 11.5t14.5 34.5q0 47 -61 47l-15 -1l15 77h37z" />
    <glyph glyph-name="uni0328" unicode="&#x328;" 
d="M-355 -150q-26 19 -26 57q0 41 33.5 69t83.5 43l9 -17q-40 -19 -59.5 -39.5t-19.5 -48.5q0 -23 13 -37t38 -14q29 0 50.5 16t33.5 37q13 -8 9 -23q-14 -29 -41.5 -45.5t-62.5 -16.5t-61 19z" />
    <glyph glyph-name="uni032E" unicode="&#x32e;" 
d="M-228 -104q25 23 37 54l29 -5q-11 -48 -48 -81t-92 -33q-60 0 -94.5 34.5t-42.5 76.5l30 10q11 -32 39 -55.5t73 -23.5q44 0 69 23z" />
    <glyph glyph-name="uni0331" unicode="&#x331;" 
d="M-176 -69q3 -9 3 -17q0 -10 -3 -17h-248q-4 7 -4 17q0 9 4 17h248z" />
    <glyph glyph-name="uni03A9" unicode="&#x3a9;" horiz-adv-x="634" 
d="M607 28q0 -12 -7 -20t-17 -8h-219v19l-1 1q71 28 109.5 122t38.5 238q0 290 -194 290t-194 -290q0 -93 20 -168t54 -124t74 -68v-20h-220q-10 0 -17 8.5t-7 19.5q0 12 7 22l183 -23q-70 40 -114.5 136t-44.5 217q0 162 66.5 242.5t192.5 80.5t192.5 -80.5t66.5 -242.5
q0 -124 -40.5 -218.5t-111.5 -133.5l176 22q7 -10 7 -22z" />
    <glyph glyph-name="pi" unicode="&#x3c0;" horiz-adv-x="590" 
d="M503 505q41 1 64 2l-1 -19q-1 -9 -5.5 -14t-11.5 -5h-79l-1 -378q0 -53 39 -53q13 0 24 6t16 17q11 -12 11 -27q0 -20 -19 -32t-45 -12q-40 0 -62.5 26t-22.5 73v380h-251l1 -366q0 -69 10 -99q-14 -14 -35 -14q-15 0 -24 9.5t-9 25.5l-1 444h-18q-40 0 -60 -3l1 19
q1 9 5.5 14t12.5 5h397q23 0 64 1z" />
    <glyph glyph-name="uni0964" unicode="&#x964;" horiz-adv-x="243" 
d="M93 730h57v-862l-57 -10v872z" />
    <glyph glyph-name="uni0965" unicode="&#x965;" horiz-adv-x="434" 
d="M284 730h57v-862l-57 -10v872zM93 730h57v-862l-57 -10v872z" />
    <glyph glyph-name="uni0B82" unicode="&#xb82;" 
d="M-70 643.5q-26 26.5 -26 67.5t26 67.5t70 26.5q45 0 71 -26.5t26 -67.5t-26 -67.5t-71 -26.5q-44 0 -70 26.5zM44.5 665.5q16.5 17.5 16.5 45.5t-16.5 45.5t-44.5 17.5t-44 -17.5t-16 -45.5q0 -27 16.5 -45t43.5 -18q28 0 44.5 17.5z" />
    <glyph glyph-name="uni0B83" unicode="&#xb83;" horiz-adv-x="717" 
d="M259 319q-37 37 -37 96q0 58 37 94.5t100 36.5q64 0 101 -36.5t37 -94.5q0 -59 -37 -96t-101 -37q-63 0 -100 37zM424 337.5q24 29.5 24 77.5q0 47 -24 76t-65 29t-64 -29t-23 -76q0 -48 23 -77.5t64 -29.5t65 29.5zM84 23q-37 37 -37 96q0 58 37 95t101 37q63 0 100 -37
t37 -95q0 -60 -36.5 -96.5t-100.5 -36.5t-101 37zM431 22.5q-37 36.5 -37 96.5q0 59 37 95.5t101 36.5t100.5 -37t36.5 -95q0 -59 -36.5 -96t-100.5 -37t-101 36.5zM249 42q23 29 23 77t-23 76.5t-64 28.5t-64.5 -29t-23.5 -76q0 -48 23.5 -77t64.5 -29t64 29zM596.5 42
q23.5 29 23.5 77q0 47 -23.5 76t-64.5 29t-64.5 -29t-23.5 -76q0 -48 23.5 -77t64.5 -29t64.5 29z" />
    <glyph glyph-name="uni0B85" unicode="&#xb85;" horiz-adv-x="1040" 
d="M928 -25q0 -31 1.5 -43t6.5 -16q-14 -16 -37 -16q-18 0 -25.5 13.5t-7.5 45.5v196h-142q-34 -74 -102 -124t-154.5 -74t-178.5 -24q-124 0 -191.5 41t-67.5 106q0 107 194 107h448q16 50 16 105q0 106 -48 161t-137 55q-55 0 -94 -22t-54 -65q28 38 82 38q48 0 78 -28.5
t30 -75.5q0 -49 -33 -79t-85 -30q-57 0 -85.5 36.5t-28.5 89.5q0 51 26 90.5t73.5 61.5t109.5 22q99 0 164.5 -59t65.5 -193q0 -56 -16 -107h130v156v77q0 46 -1.5 65t-8.5 41q19 16 40 15q15 -2 23.5 -11.5t8.5 -26.5v-465v-63zM369.5 407q-19.5 -21 -19.5 -56t19.5 -55.5
t51.5 -20.5q34 0 55 23t21 56q0 32 -19.5 53t-53.5 21q-35 0 -54.5 -21zM502.5 13q108.5 42 156.5 142h-426q-159 0 -159 -78q0 -51 60 -78.5t150 -27.5q110 0 218.5 42z" />
    <glyph glyph-name="uni0B86" unicode="&#xb86;" horiz-adv-x="1138" 
d="M1090 101.5q22 -42.5 22 -101.5q0 -104 -69.5 -189.5t-191.5 -135t-274 -49.5q-105 0 -166 22t-84 53t-23 64q0 60 61 95.5t157 35.5q51 0 84 -10t48 -24t15 -27q0 -11 -7 -19.5t-22 -11.5q-13 23 -40 40t-86 17q-71 0 -114.5 -27.5t-43.5 -68.5q0 -45 55 -74.5
t169 -29.5q129 0 235.5 40.5t169 117.5t62.5 181q0 100 -50 100q-38 0 -64 -42.5t-27 -112.5q1 -16 6 -18q-13 -15 -36 -15q-18 0 -26 13.5t-8 44.5v185h-124q-48 -111 -165.5 -166.5t-261.5 -55.5q-126 0 -193.5 40.5t-67.5 106.5q0 107 194 107h441q16 47 16 108
q0 102 -48.5 157.5t-136.5 55.5q-55 0 -94.5 -22t-54.5 -65q29 38 82 38q48 0 78.5 -28.5t30.5 -75.5q0 -49 -33.5 -79t-84.5 -30q-57 0 -85.5 36.5t-28.5 89.5q0 51 26 90.5t73.5 61.5t109.5 22q102 0 166 -63.5t64 -186.5q0 -56 -16 -109h113v156v90q0 37 -1.5 53.5
t-8.5 39.5q6 6 16.5 11t23.5 4q15 -2 23.5 -11.5t8.5 -26.5v-438q16 35 45.5 57t67.5 22q51 0 73 -42.5zM361.5 406.5q-19.5 -21.5 -19.5 -55.5t20 -55t52 -21q34 0 55 23t21 56q0 32 -20 53t-54 21q-35 0 -54.5 -21.5zM497.5 11.5q106.5 40.5 154.5 143.5h-419
q-159 0 -159 -78q0 -51 59.5 -78.5t150.5 -27.5q107 0 213.5 40.5z" />
    <glyph glyph-name="uni0B87" unicode="&#xb87;" horiz-adv-x="899" 
d="M742 600.5q94 -91.5 94 -260.5q0 -71 -15 -138q-7 -33 -37 -33q-14 0 -28 7q25 91 25 167q0 101 -38 172t-106 107.5t-156 36.5t-154 -36t-102 -103t-36 -157q0 -101 46 -193q85 25 180 25q93 0 179 -27q28 68 28 140q0 93 -45 153t-128 60q-29 0 -48 -8l20 1
q45 0 75 -30.5t30 -77.5q0 -48 -32 -78.5t-83 -30.5q-52 0 -84 31.5t-32 80.5q0 41 22.5 72.5t62 49.5t86.5 18q57 0 106 -27.5t78.5 -80.5t29.5 -127q0 -82 -38 -164q70 -31 110.5 -76.5t40.5 -99.5q0 -49 -37.5 -83t-121.5 -34q-107 0 -214 59q-105 -59 -207 -59
q-75 0 -120.5 32.5t-45.5 94.5q0 57 37.5 99t101.5 69q-53 104 -53 204q0 70 27.5 146t104.5 133t215 57q168 0 262 -91.5zM351 466.5q-20 -21.5 -20 -56.5q0 -36 20.5 -58t54.5 -22q33 0 53 21t20 57t-20.5 58t-53.5 22q-34 0 -54 -21.5zM251 138q31 -54 75 -99.5t94 -78.5
q49 34 90 78.5t68 96.5q-76 30 -163 30q-86 0 -164 -27zM384 -63q-109 72 -178 181q-44 -23 -70 -57t-26 -77q0 -48 32 -71t82 -23q74 0 160 47zM702 50q-29 37 -79 64q-60 -105 -167 -176q88 -48 165 -48q51 0 80.5 21t29.5 61q0 41 -29 78z" />
    <glyph glyph-name="uni0B88" unicode="&#xb88;" horiz-adv-x="691" 
d="M666 521q0 -13 -8.5 -16.5t-22.5 -3.5h-177v-424q0 -53 7 -71q-13 -12 -34 -12q-18 0 -26 9t-8 31v467l-272 1v-502h-35v533h574q2 -8 2 -12zM288.5 282q11.5 -12 11.5 -29t-11.5 -29t-28.5 -12q-16 0 -27.5 12.5t-11.5 29.5q0 16 11.5 28t27.5 12q17 0 28.5 -12z
M602.5 282q11.5 -12 11.5 -29t-11.5 -29t-27.5 -12q-17 0 -29 12t-12 29t12 29t29 12q16 0 27.5 -12z" />
    <glyph glyph-name="uni0B89" unicode="&#xb89;" horiz-adv-x="917" 
d="M62 19.5q-22 19.5 -22 55.5q0 33 17.5 50t50.5 23t92 8q105 4 164.5 41.5t59.5 136.5q0 87 -43 130.5t-122 43.5q-64 0 -105 -25t-55 -66q26 31 76 31q48 0 78 -29t30 -72q0 -47 -31 -76t-87 -29q-53 0 -81.5 34.5t-28.5 86.5t27 93.5t76.5 65.5t114.5 24
q90 0 152.5 -48.5t62.5 -152.5q0 -103 -68.5 -160.5t-210.5 -61.5q-58 -1 -81 -3.5t-34 -12.5t-11 -33q0 -18 13 -30t52 -12l751 3v-32l-758 -3q-57 0 -79 19.5zM214 293.5q20 19.5 20 50.5q0 32 -19 52.5t-51 20.5t-51.5 -20.5t-18.5 -52.5q0 -31 18 -50.5t48 -19.5
q34 0 54 19.5z" />
    <glyph glyph-name="uni0B8A" unicode="&#xb8a;" horiz-adv-x="1382" 
d="M1354 35v-32l-1209 -3q-57 0 -79 19.5t-22 55.5q0 33 17.5 50t50.5 23t92 8q103 3 163.5 42t60.5 138q0 86 -43.5 129t-122.5 43q-64 0 -104.5 -25t-54.5 -66q26 31 76 31q48 0 77.5 -29t29.5 -72q0 -47 -30.5 -76t-86.5 -29q-54 0 -82.5 34.5t-28.5 86.5t27 93.5
t76.5 65.5t115.5 24q89 0 152 -48t63 -152q0 -102 -69 -160.5t-210 -62.5q-58 -1 -81 -3.5t-34 -12.5t-11 -33q0 -18 13 -30t51 -12zM573 307q0 123 56.5 181t152.5 58q75 0 124.5 -33.5t62.5 -79.5q0 60 28.5 82.5t84.5 22.5h242q1 -3 1 -9q0 -11 -9.5 -15t-28.5 -4h-37
l1 -333q0 -43 4 -58q-13 -9 -29 -9q-17 0 -24 7.5t-7 26.5v366l-105 -1q-30 0 -45 -7.5t-21 -27t-6 -57.5l1 -247q0 -37 5 -51q-13 -9 -31 -9q-16 0 -22 7.5t-6 26.5v197q0 34 -18.5 74.5t-59.5 69.5t-103 29q-73 0 -122.5 -47t-49.5 -164q0 -156 92 -175q-22 16 -31 45.5
t-9 60.5q0 58 28.5 92t77.5 34q50 0 79 -34.5t29 -93.5q0 -67 -37.5 -99t-98.5 -32q-169 0 -169 206zM117 397.5q-20 -19.5 -20 -51.5t18 -52t48 -20q35 0 55 19.5t20 50.5q0 32 -19 52.5t-51 20.5q-31 0 -51 -19.5zM714.5 159q16.5 -25 44.5 -25t45 26t17 72q0 41 -15 68
t-45 27t-46.5 -27.5t-16.5 -71.5t16.5 -69z" />
    <glyph glyph-name="uni0B8E" unicode="&#xb8e;" horiz-adv-x="773" 
d="M772 521q0 -13 -8.5 -16.5t-22.5 -3.5h-127v-422q0 -53 6 -73q-13 -12 -33 -12q-18 0 -26.5 9.5t-8.5 33.5v464h-149q-143 0 -226 -61.5t-83 -215.5q0 -93 35 -143.5t88 -59.5q-29 21 -41.5 58.5t-12.5 76.5q0 73 37 116.5t98 43.5q65 0 101 -43.5t36 -117.5
q0 -85 -46.5 -126.5t-118.5 -41.5q-96 0 -155 58.5t-59 179.5q0 163 89.5 235.5t259.5 72.5h366q1 -4 1 -12zM222.5 57.5q23.5 -33.5 59.5 -33.5q43 0 67 34t24 96q0 54 -21 89.5t-64 35.5t-66 -36t-23 -93q0 -59 23.5 -92.5z" />
    <glyph glyph-name="uni0B8F" unicode="&#xb8f;" horiz-adv-x="771" 
d="M770 521q0 -13 -8 -16.5t-22 -3.5h-128v-397q0 -97 -58.5 -165t-136 -102.5t-128.5 -35.5q-11 -1 -19.5 7t-9.5 19q14 0 30 4q56 16 115 49.5t102 91.5t43 137v392h-147q-143 0 -226 -61.5t-83 -215.5q0 -93 34.5 -144t87.5 -60q-28 21 -40 58.5t-12 76.5q0 72 36.5 116
t97.5 44q65 0 101 -43t36 -118q0 -85 -46.5 -126.5t-118.5 -41.5q-97 0 -155.5 58.5t-58.5 179.5q0 163 89.5 236t259.5 73h364q1 -4 1 -12zM222.5 56.5q23.5 -33.5 59.5 -33.5q43 0 67 34t24 96q0 54 -21 89.5t-64 35.5t-66 -36t-23 -93q0 -59 23.5 -92.5z" />
    <glyph glyph-name="uni0B90" unicode="&#xb90;" horiz-adv-x="811" 
d="M86 -103q-42 41 -42 110q0 94 89 146t275 62q150 8 224.5 52t74.5 129q0 60 -32.5 87.5t-81.5 27.5q-68 0 -102.5 -52t-41.5 -160h-64q0 107 -38.5 160t-124.5 53q-52 0 -88 -21t-47 -62q26 33 75 33q46 0 74.5 -26.5t28.5 -68.5q0 -46 -31.5 -73.5t-80.5 -27.5
q-56 0 -83 33t-27 82q0 76 53.5 121.5t139.5 45.5q76 0 124.5 -37.5t63.5 -115.5q14 69 57.5 111t123.5 42q78 0 121.5 -39t43.5 -115q0 -107 -91 -153.5t-257 -56.5q-173 -10 -244.5 -54t-71.5 -124q0 -59 33 -85.5t80 -26.5q48 0 83.5 28.5t55.5 75t23 99.5h64
q7 -205 151 -205q52 0 81.5 29.5t29.5 83.5q0 49 -27 83t-71 45q5 13 15.5 20t26.5 7q24 0 51 -17.5t46 -51t19 -79.5q0 -77 -47 -116.5t-118 -39.5q-92 0 -137.5 48.5t-56.5 111.5q-20 -75 -76 -117.5t-126 -42.5q-78 0 -120 41zM195 316q18 20 18 49q0 30 -17.5 48.5
t-47.5 18.5q-31 0 -47.5 -19t-16.5 -50t17 -49t46 -18q30 0 48 20z" />
    <glyph glyph-name="uni0B92" unicode="&#xb92;" horiz-adv-x="747" 
d="M496 181.5q-31 29.5 -31 75.5q0 19 5.5 37.5t15.5 28.5q-17 -3 -39 -20t-38.5 -46.5t-16.5 -66.5q0 -61 44 -96t122 -35q40 0 71 8l8 -12q-30 -88 -102 -143t-157 -55q-65 0 -105.5 32.5t-40.5 83.5q0 26 10.5 37t23.5 11q8 0 15 -5q-1 -10 -1 -23q0 -48 29.5 -73.5
t80.5 -25.5q65 0 117 38t75 86q-22 -3 -47 -3q-87 0 -138.5 43t-51.5 118q0 60 32 101t77.5 61.5t82.5 20.5l10 -18q-23 -10 -33.5 -30.5t-10.5 -44.5q0 -35 18 -55t46 -20q35 0 56.5 32.5t21.5 82.5q0 65 -38 111t-103.5 69.5t-146.5 23.5q-115 0 -188.5 -48t-91.5 -128
q29 32 81 32q47 0 76 -26.5t29 -68.5q0 -46 -31.5 -73.5t-81.5 -27.5q-57 0 -84 35t-27 87q0 72 37.5 129.5t111 91t176.5 33.5q95 0 173 -28t124 -82.5t46 -131.5q0 -68 -35 -110t-95 -42q-50 0 -81 29.5zM98 317q-17 -19 -17 -50t17.5 -49t46.5 -18q30 0 48 20t18 49
q0 30 -17.5 48.5t-47.5 18.5q-31 0 -48 -19z" />
    <glyph glyph-name="uni0B93" unicode="&#xb93;" horiz-adv-x="749" 
d="M498.5 181.5q-30.5 29.5 -30.5 75.5q0 20 5.5 38t15.5 28q-18 -4 -40 -20.5t-38 -45t-16 -66.5q0 -65 46.5 -98.5t120.5 -33.5q32 0 70 8l8 -12q-43 -91 -121.5 -150.5t-190.5 -59.5q-85 0 -133.5 35.5t-48.5 94.5q0 52 31.5 84.5t84.5 32.5q41 0 67 -22t26 -58
q0 -34 -21 -59t-61 -25q-34 0 -54.5 20t-20.5 52v1q-2 -14 -2 -23q1 -41 33.5 -68.5t105.5 -27.5q93 0 152.5 40.5t95.5 94.5q-14 -2 -43 -2q-85 0 -139 42.5t-54 120.5q0 62 33.5 102.5t78.5 59t81 19.5l11 -18q-24 -10 -34.5 -31.5t-10.5 -46.5q0 -33 18 -52.5t46 -19.5
q37 0 57 34t20 82q0 64 -36.5 110.5t-101.5 70.5t-149 24q-115 0 -188.5 -47.5t-91.5 -127.5q28 31 81 31q47 0 76 -26t29 -69q0 -45 -31.5 -73t-81.5 -28q-57 0 -84.5 35t-27.5 87q0 72 37.5 129.5t111.5 91t177 33.5q96 0 173.5 -28.5t123 -83.5t45.5 -132q0 -66 -34 -109
t-96 -43q-50 0 -80.5 29.5zM101 319q-17 -19 -17 -49q0 -31 17.5 -49.5t45.5 -18.5q30 0 48 20.5t18 49.5t-17.5 47.5t-47.5 18.5t-47 -19zM238.5 47q-11.5 -15 -11.5 -39q0 -26 13 -40t34 -14q22 0 35 15t13 39q0 23 -13 38.5t-36 15.5t-34.5 -15zM256 61q-13 -2 -23 -6z
" />
    <glyph glyph-name="uni0B94" unicode="&#xb94;" horiz-adv-x="1831" 
d="M496 181.5q-31 29.5 -31 75.5q0 19 5.5 37.5t15.5 28.5q-17 -3 -39 -20t-38.5 -46.5t-16.5 -66.5q0 -61 44 -96t122 -35q40 0 71 8l8 -12q-30 -88 -102 -143t-157 -55q-65 0 -105.5 32.5t-40.5 83.5q0 26 10.5 37t23.5 11q8 0 15 -5q-1 -10 -1 -23q0 -48 29.5 -73.5
t80.5 -25.5q65 0 117 38t75 86q-22 -3 -47 -3q-87 0 -138.5 43t-51.5 118q0 60 32 101t77.5 61.5t82.5 20.5l10 -18q-23 -10 -33.5 -30.5t-10.5 -44.5q0 -35 18 -55t46 -20q35 0 56.5 32.5t21.5 82.5q0 65 -38 111t-103.5 69.5t-146.5 23.5q-115 0 -188.5 -48t-91.5 -128
q29 32 81 32q47 0 76 -26.5t29 -68.5q0 -46 -31.5 -73.5t-81.5 -27.5q-57 0 -84 35t-27 87q0 72 37.5 129.5t111 91t176.5 33.5q95 0 173 -28t124 -82.5t46 -131.5q0 -68 -35 -110t-95 -42q-50 0 -81 29.5zM98 317q-17 -19 -17 -50t17.5 -49t46.5 -18q30 0 48 20t18 49
q0 30 -17.5 48.5t-47.5 18.5q-31 0 -48 -19zM1830 521q0 -13 -8 -16t-23 -3h-127v-423q0 -53 6 -73q-13 -12 -33 -12q-18 0 -26 9.5t-8 33.5v465h-154q-38 0 -58 -10t-29 -35.5t-9 -74.5v-313q0 -22 1.5 -38t5.5 -25q-13 -12 -37 -12q-17 0 -24 9.5t-6 33.5v258
q0 44 -24 94.5t-77 87t-134 36.5q-95 0 -160.5 -61.5t-65.5 -213.5q0 -105 35 -156t91 -61q-28 21 -40 58.5t-12 75.5q0 73 36.5 117t98.5 44q63 0 99.5 -43.5t36.5 -118.5q0 -85 -47.5 -126t-123.5 -41q-97 0 -154 60t-57 197q0 155 71 228.5t190 73.5q65 0 115.5 -20.5
t81.5 -54t43 -71.5q0 77 36 105t108 28h380q2 -4 2 -12zM972.5 57q23.5 -33 62.5 -33q40 0 64 34.5t24 94.5q0 55 -21 90.5t-64 35.5t-66 -36t-23 -94q0 -59 23.5 -92z" />
    <glyph glyph-name="uni0B95" unicode="&#xb95;" horiz-adv-x="783" 
d="M681 277q52 -39 52 -120q0 -76 -45.5 -123t-131.5 -47q-52 0 -52 23q0 11 9 16q24 -3 33 -3q61 0 92.5 32.5t31.5 96.5q0 67 -36 99.5t-126 32.5h-40v-55q0 -123 -62 -182.5t-162 -59.5q-91 0 -142.5 47.5t-51.5 120.5q0 53 28 95.5t95 58.5v183q0 22 9 31.5t28 9.5h432
q2 -4 2 -12q0 -13 -8.5 -16.5t-23.5 -3.5h-144v-185h49q112 0 164 -39zM206 314q24 2 37 2h163v185h-183q-17 0 -17 -18v-169zM406 284h-166q-78 0 -115.5 -35.5t-37.5 -93.5q0 -60 42.5 -94t111.5 -34q76 0 120.5 46.5t44.5 147.5v63z" />
    <glyph glyph-name="uni0B99" unicode="&#xb99;" horiz-adv-x="962" 
d="M856 532q9 -9 9 -25v-507h-518v27q101 24 185 77t84 151q0 46 -22.5 77t-73.5 31q-54 0 -85 -39.5t-32 -111.5v-44q-12 -10 -32 -10q-30 0 -30 15v328h-217v-501h-34v533h480q3 -6 3 -12q0 -13 -8.5 -16.5t-24.5 -3.5h-137v-168q18 34 50 55t82 21q76 0 110 -43.5
t34 -106.5q0 -87 -58 -142.5t-137 -85.5h318v445q0 2 0.5 23t-7.5 34q18 8 34 8q18 0 27 -9z" />
    <glyph glyph-name="uni0B9A" unicode="&#xb9a;" horiz-adv-x="682" 
d="M632 315q2 -6 2 -10q0 -8 -5 -14.5t-15 -6.5h-157v-55q0 -124 -60 -183.5t-154 -59.5q-57 0 -101 22t-68 61t-24 86q0 53 28 96.5t94 57.5v183q0 22 9 31.5t27 9.5h425q3 -6 3 -11q0 -12 -13 -16.5t-42 -4.5h-124v-186h175zM204 314q9 1 28 1h164v186h-175q-17 0 -17 -18
v-169zM396 284h-159q-79 -1 -114.5 -36t-35.5 -93q0 -61 43.5 -95t107.5 -34q72 0 115 47t43 148v63z" />
    <glyph glyph-name="uni0B9C" unicode="&#xb9c;" horiz-adv-x="814" 
d="M732.5 102q38.5 -38 38.5 -102q0 -71 -43 -105.5t-107 -34.5q-65 0 -101 36t-36 96q0 38 14 69q-26 -18 -72 -70q-36 -41 -65 -67.5t-69 -45t-89 -18.5q-69 0 -113 37t-44 110q0 69 43 108.5t111 59t193 40.5q121 20 184 38.5t96.5 51.5t33.5 92q0 58 -31.5 84.5
t-79.5 26.5q-67 0 -102.5 -50.5t-43.5 -160.5h-64q-3 107 -40.5 160t-122.5 53q-55 0 -87.5 -21.5t-44.5 -59.5q22 31 71 31q46 0 74.5 -26.5t28.5 -69.5q0 -45 -31.5 -72.5t-82.5 -27.5q-56 0 -82 33t-26 83q0 75 53.5 120.5t141.5 45.5q76 0 125.5 -37.5t60.5 -115.5
q15 71 58 112t125 41q78 0 120.5 -38t42.5 -112q0 -72 -40 -111t-105 -57t-188 -38l-30 -5q-109 -18 -170.5 -36.5t-94 -51.5t-32.5 -90t30.5 -82.5t72.5 -25.5q47 0 83 26.5t87 80.5q42 44 72 70.5t71.5 45t93.5 18.5q74 0 112.5 -38zM101 410q-17 -19 -17 -50
q0 -30 17 -48t45 -18q30 0 48.5 20.5t18.5 49.5q0 28 -17.5 46.5t-46.5 18.5q-31 0 -48 -19zM683 -77.5q26 29.5 26 78.5q0 50 -24.5 76t-66.5 26q-45 0 -67 -30.5t-21 -77.5q0 -50 23 -76t63 -26q41 0 67 29.5z" />
    <glyph glyph-name="uni0B9E" unicode="&#xb9e;" horiz-adv-x="1140" 
d="M1058 331q32 -58 32 -142q0 -183 -133.5 -273t-378.5 -90q-199 0 -315.5 57.5t-161.5 144t-45 183.5q0 79 25 146.5t62.5 110.5t73.5 53q8 2 11 2q12 0 19 -13q-54 -35 -92.5 -110.5t-38.5 -183.5q0 -163 110 -259.5t351 -96.5q216 0 333.5 76.5t117.5 248.5
q0 159 -99 159q-58 0 -92 -51t-34 -126v-90q0 -47 6 -71q-13 -12 -33 -12q-18 0 -26.5 9.5t-8.5 33.5v464h-134q-142 0 -223.5 -60.5t-81.5 -214.5q0 -95 33 -146t85 -59q-28 21 -39 57.5t-11 76.5q0 73 35.5 117t97.5 44q63 0 99.5 -43.5t36.5 -117.5q0 -86 -47 -127
t-125 -41q-93 0 -152 59.5t-59 185.5q0 156 90.5 228.5t261.5 72.5h348q3 -6 3 -12q0 -13 -8.5 -16.5t-24.5 -3.5h-124l1 -207q17 42 51.5 68.5t88.5 26.5q83 0 115 -58zM426.5 57q23.5 -33 62.5 -33q40 0 63.5 34.5t23.5 95.5q0 54 -20.5 89.5t-63.5 35.5t-66 -35.5
t-23 -94.5t23.5 -92z" />
    <glyph glyph-name="uni0B9F" unicode="&#xb9f;" horiz-adv-x="784" 
d="M774 0h-654q-15 0 -19 9.5t-4 29.5v426q0 48 -7 66q16 9 32 9q37 0 37 -34v-474h615v-32z" />
    <glyph glyph-name="uni0BA3" unicode="&#xba3;" horiz-adv-x="1561" 
d="M1560 521q0 -13 -8.5 -16.5t-24.5 -3.5h-125v-422q0 -54 7 -73q-13 -12 -34 -12q-18 0 -26 10t-8 33v464h-92q-77 0 -145 -30q56 -44 85.5 -113t29.5 -160q0 -96 -41 -153t-120 -57q-84 0 -122 54t-38 146q0 95 33.5 166.5t95.5 115.5q-69 41 -165 41q-99 0 -170 -40
q65 -45 100 -114t35 -158q0 -95 -42 -153.5t-124 -58.5q-78 0 -115.5 55t-37.5 149q0 88 29 158t85 117q-83 46 -206 46q-142 0 -232.5 -67t-90.5 -218q0 -94 36.5 -146t89.5 -60q-28 20 -40 57.5t-12 76.5q0 73 35.5 117t97.5 44q61 0 97 -43.5t36 -117.5q0 -85 -46 -126.5
t-121 -41.5q-92 0 -151 60t-59 183q0 156 97 236t265 80q138 0 240 -54q88 52 209 52q119 0 203 -49q79 38 184 38h304q2 -4 2 -12zM1059 447q-58 -40 -91 -104.5t-33 -153.5q0 -77 29 -117t81 -40q56 0 83.5 44t27.5 123q0 167 -97 248zM653 446q-52 -42 -80 -106t-28 -149
q0 -79 28.5 -119t79.5 -40q56 0 83.5 43.5t27.5 120.5q0 167 -111 250zM224.5 57q22.5 -33 61.5 -33q38 0 61.5 34.5t23.5 95.5q0 54 -20.5 89.5t-62.5 35.5q-41 0 -63.5 -36t-22.5 -94q0 -59 22.5 -92z" />
    <glyph glyph-name="uni0BA4" unicode="&#xba4;" horiz-adv-x="731" 
d="M630.5 264q50.5 -52 50.5 -161t-76 -172t-207 -63h-146q-59 0 -99 -18t-41 -57q0 -30 19 -38q-2 -12 -11.5 -20.5t-25.5 -8.5q-20 0 -29 14.5t-9 38.5q0 58 50 90t140 32h140q116 0 174.5 55.5t58.5 147.5q0 93 -36 136.5t-112 43.5h-14v-55q0 -123 -60.5 -182.5
t-154.5 -59.5q-56 0 -100 22t-68 60.5t-24 85.5q0 52 25.5 94.5t87.5 58.5v184q0 22 9 31.5t27 9.5h432l2 -12q0 -13 -8.5 -16.5t-24.5 -3.5h-143v-185h22q101 0 151.5 -52zM196 314q24 2 39 2h161v185h-183q-17 0 -17 -18v-169zM396 284l-156 1q-82 -1 -117.5 -36
t-35.5 -94q0 -60 43.5 -94t106.5 -34q71 0 115 45t44 144v68z" />
    <glyph glyph-name="uni0BA8" unicode="&#xba8;" horiz-adv-x="757" 
d="M672.5 326q30.5 -63 30.5 -167q0 -106 -27 -169t-90.5 -92.5t-174.5 -29.5h-128q-59 0 -99.5 -18t-40.5 -57q-1 -12 3.5 -22.5t15.5 -15.5q-2 -12 -11.5 -20.5t-25.5 -8.5q-20 0 -29 14.5t-9 38.5q0 58 50 90t140 32h133q90 0 139.5 24t70.5 78.5t21 151.5
q0 89 -20.5 139t-70.5 50q-32 0 -58.5 -22t-43 -59.5t-17.5 -82.5v-96q0 -60 6 -78q-13 -12 -34 -12q-18 0 -26 10t-8 33v464h-217v-501h-35v533h468q2 -4 2 -12q0 -13 -8.5 -16.5t-22.5 -3.5h-125v-200q41 88 131 88q80 0 110.5 -63z" />
    <glyph glyph-name="uni0BA9" unicode="&#xba9;" horiz-adv-x="1171" 
d="M1170 521q0 -13 -8.5 -16.5t-24.5 -3.5h-126v-422q0 -32 1 -47t5 -26q-13 -12 -33 -12q-18 0 -26.5 9.5t-8.5 33.5v464h-77q-92 0 -169 -38q60 -45 92.5 -111t32.5 -150q0 -97 -43.5 -156t-124.5 -59q-79 0 -116 54.5t-37 146.5q0 89 33 158t94 114q-89 54 -223 54
q-140 0 -229 -67.5t-89 -220.5q0 -94 36.5 -145.5t89.5 -59.5q-28 21 -40 58t-12 76q0 73 35.5 117t97.5 44q61 0 97 -43.5t36 -117.5q0 -85 -46.5 -126.5t-120.5 -41.5q-93 0 -151.5 59.5t-58.5 182.5q0 159 93.5 238.5t263.5 79.5q152 0 259 -62q90 48 205 48h291z
M738.5 340q-26.5 60 -75.5 99q-56 -39 -88 -101.5t-32 -148.5q0 -76 29.5 -116.5t80.5 -40.5q55 0 83.5 44.5t28.5 123.5q0 80 -26.5 140zM224.5 57q22.5 -33 61.5 -33q38 0 61.5 34.5t23.5 95.5q0 54 -20.5 89.5t-62.5 35.5q-41 0 -63.5 -36t-22.5 -94q0 -59 22.5 -92z" />
    <glyph glyph-name="uni0BAA" unicode="&#xbaa;" horiz-adv-x="820" 
d="M101 9.5q-4 9.5 -4 29.5v436q0 2 0.5 22.5t-7.5 33.5q16 9 32 9q37 0 37 -34v-474h502v443q0 43 -7 56q16 9 32 9q36 0 36 -34v-467q0 -19 -4.5 -29t-18.5 -10h-579q-15 0 -19 9.5z" />
    <glyph glyph-name="uni0BAE" unicode="&#xbae;" horiz-adv-x="829" 
d="M682.5 503.5q48.5 -42.5 72.5 -110.5t24 -147q0 -66 -11.5 -118.5t-51.5 -90t-119 -37.5h-477q-15 0 -19 9.5t-4 29.5v426q0 48 -7 66q16 9 34 9t26.5 -9.5t8.5 -24.5v-474h267v340q0 97 36 135.5t101 38.5q71 0 119.5 -42.5zM487 32h102q63 0 97 24.5t46.5 66.5
t12.5 105q0 76 -18.5 141t-56.5 104t-94 39q-42 0 -65.5 -28t-23.5 -101v-351z" />
    <glyph glyph-name="uni0BAF" unicode="&#xbaf;" horiz-adv-x="941" 
d="M834 530.5q9 -9.5 9 -24.5v-467q0 -20 -4 -29.5t-19 -9.5h-406q-15 0 -19 9.5t-4 29.5v5q-28 -26 -68.5 -41.5t-88.5 -15.5q-137 0 -137 127v361q0 2 0.5 22.5t-7.5 33.5q16 9 33 9q18 0 27 -9.5t9 -24.5v-375q0 -55 19.5 -79t72.5 -24q38 0 75 16.5t65 48.5v382
q0 2 0.5 22.5t-7.5 33.5q16 9 34 9q17 0 26 -9.5t9 -24.5v-475h329v444q0 2 0.5 22.5t-7.5 33.5q16 9 33 9t26 -9.5z" />
    <glyph glyph-name="uni0BB0" unicode="&#xbb0;" horiz-adv-x="613" 
d="M613 521q0 -13 -8.5 -16.5t-24.5 -3.5h-127l1 -425q0 -92 -50.5 -153.5t-118.5 -91t-118 -30.5q-11 -1 -19 7t-10 19q15 0 30 4q90 25 157 83.5t67 165.5v421l-266 -1v-500h-34v533h519z" />
    <glyph glyph-name="uni0BB1" unicode="&#xbb1;" horiz-adv-x="763" 
d="M98 0v349q0 85 31 141t117 56q111 0 127 -129q28 129 155 129q70 0 108.5 -38t52.5 -104.5t14 -165.5q0 -147 -27 -225.5t-94 -111.5t-194 -33h-110q-59 0 -99.5 -18t-40.5 -57q-1 -12 3.5 -22.5t15.5 -15.5q-2 -12 -11.5 -20.5t-25.5 -8.5q-20 0 -29 14.5t-9 38.5
q0 58 50 89.5t140 31.5h131q98 0 148.5 31.5t69.5 101t19 197.5q0 96 -10 155.5t-36 90.5t-73 31q-56 0 -87.5 -45t-31.5 -141v-252q0 -46 6 -63q-13 -12 -33 -12q-17 0 -24.5 9.5t-7.5 33.5v307q0 69 -20.5 116t-68.5 47q-42 0 -63 -23.5t-26.5 -57.5t-5.5 -83v-30v-313
h-61z" />
    <glyph glyph-name="uni0BB2" unicode="&#xbb2;" horiz-adv-x="891" 
d="M114.5 50q-58.5 63 -58.5 196q0 152 77 226t212 74q86 0 131.5 -32t62 -90.5t17.5 -152.5v-31q0 -70 6 -114t28 -72.5t68 -28.5q77 0 110.5 71.5t33.5 170.5q0 114 -34 169.5t-74 77.5q-2 9 6 20.5t23 11.5q22 0 49.5 -30.5t47 -93t19.5 -151.5q0 -126 -46.5 -205
t-144.5 -79q-66 0 -100.5 36t-44.5 88.5t-10 122.5v36q0 80 -9.5 129.5t-45.5 81.5t-111 32q-98 0 -166 -61t-68 -208q0 -103 35 -159t91 -64q-28 19 -40 57t-12 78q0 72 36 115.5t100 43.5q63 0 98 -43t35 -117q0 -85 -46.5 -126.5t-122.5 -41.5q-94 0 -152.5 63zM350 58.5
q24 34.5 24 94.5q0 55 -21 90.5t-63 35.5q-43 0 -65.5 -36t-22.5 -93q0 -59 23 -92.5t62 -33.5t63 34.5z" />
    <glyph glyph-name="uni0BB3" unicode="&#xbb3;" horiz-adv-x="1084" 
d="M1083 521q0 -13 -8 -16t-23 -3h-127v-423q0 -53 6 -73q-13 -12 -33 -12q-18 0 -26 9.5t-8 33.5v465h-154q-38 0 -58 -10t-29 -35.5t-9 -74.5v-313q0 -22 1.5 -38t5.5 -25q-13 -12 -37 -12q-17 0 -24 9.5t-6 33.5v258q0 44 -24 94.5t-77 87t-134 36.5q-95 0 -160.5 -61.5
t-65.5 -213.5q0 -105 35 -156t91 -61q-28 21 -40 58.5t-12 75.5q0 73 36.5 117t98.5 44q63 0 99.5 -43.5t36.5 -118.5q0 -85 -47.5 -126t-123.5 -41q-97 0 -154 60t-57 197q0 155 71 228.5t190 73.5q65 0 115.5 -20.5t81.5 -54t43 -71.5q0 77 36 105t108 28h380q2 -4 2 -12z
M225.5 57q23.5 -33 62.5 -33q40 0 64 34.5t24 94.5q0 55 -21 90.5t-64 35.5t-66 -36t-23 -94q0 -59 23.5 -92z" />
    <glyph glyph-name="uni0BB4" unicode="&#xbb4;" horiz-adv-x="833" 
d="M144.5 -241q-29.5 33 -29.5 80q0 45 23 68t52 23q18 0 28.5 -9t10.5 -22q0 -11 -7 -19q-9 3 -17 2q-16 0 -29 -12t-13 -41q0 -32 19.5 -50.5t59.5 -18.5t73.5 16t76.5 46q44 31 65 37q-19 7 -23 30t-4 82v29h-306q-15 0 -19 9.5t-4 29.5v426q0 48 -7 66q16 9 34 9
t26.5 -9.5t8.5 -24.5v-474h267v342q0 95 36 133.5t100 38.5q72 0 121 -41.5t72.5 -110.5t23.5 -151q0 -103 -35 -173t-147 -70h-110v-29q0 -49 3.5 -69.5t15.5 -28t42 -7.5h143v-33h-192q-27 0 -49.5 -11t-55.5 -35q-42 -30 -76 -45.5t-82 -15.5q-66 0 -95.5 33zM593 32
q91 0 123.5 49t32.5 142q0 125 -43 207t-126 82q-42 0 -65.5 -27.5t-23.5 -99.5v-353h102z" />
    <glyph glyph-name="uni0BB5" unicode="&#xbb5;" horiz-adv-x="1043" 
d="M115.5 48.5q-59.5 61.5 -59.5 190.5q0 151 83 228.5t228 77.5q140 0 214.5 -73t74.5 -195q0 -139 -92 -245h320v440q0 2 0.5 23t-7.5 34q18 8 34 8q17 0 26 -9t9 -25l-1 -503h-466v20q46 39 79.5 104.5t33.5 153.5q0 107 -57.5 170.5t-174.5 63.5q-115 0 -191 -64
t-76 -211q0 -99 37.5 -153.5t96.5 -62.5q-28 18 -40.5 56t-12.5 78q0 73 36 117t98 44t98 -44t36 -118q0 -89 -46.5 -130t-122.5 -37q-98 0 -157.5 61.5zM356 55.5q24 35.5 24 97.5q0 55 -21 90.5t-63 35.5t-64.5 -36t-22.5 -94q0 -60 23.5 -94.5t61.5 -30.5q38 -4 62 31.5z
" />
    <glyph glyph-name="uni0BB6" unicode="&#xbb6;" horiz-adv-x="1001" 
d="M901 533v-32l-1 -325q0 -83 -44.5 -136t-125.5 -53t-123 49.5t-42 148.5l-1 315h-127l-1 -324q-1 -83 -45.5 -136t-125.5 -53q-166 0 -167 198l-1 304q0 30 -7 41q5 3 14 5t16 2q37 0 37 -34v-304q1 -77 23.5 -125t86.5 -48q51 0 75.5 28t29.5 63.5t5 87.5v328h524z
M807 54q24 28 29 63.5t5 87.5v296l-218 -1l1 -301q0 -76 22.5 -124.5t85.5 -48.5q51 0 75 28z" />
    <glyph glyph-name="uni0BB7" unicode="&#xbb7;" horiz-adv-x="1318" 
d="M1233 383v-383h-234v-246h-57v246h-464v20q46 39 79.5 104.5t33.5 154.5q0 108 -58 171t-174 63q-115 0 -190.5 -64.5t-75.5 -210.5q0 -100 37 -154.5t97 -62.5q-29 20 -41 57.5t-12 76.5q0 73 36 117t98 44t98 -44t36 -118q0 -85 -45.5 -126t-120.5 -41q-100 0 -160 61
t-60 192q0 150 83 228t230 78q140 0 213 -71t73 -196q0 -141 -92 -247h379v178q-8 -1 -25 -1q-93 0 -141.5 41t-48.5 121q0 72 37 110.5t101 38.5q69 0 101.5 -50.5t32.5 -163.5v-52q95 29 172 128v1h62zM942 243v56q0 100 -20.5 142t-66.5 42q-43 0 -67 -30t-24 -84
q0 -64 39 -95.5t111 -31.5q19 0 28 1zM1171 32v295q-70 -86 -172 -109v-186h172zM232 56.5q23 -33.5 62 -32.5q39 -1 62.5 33.5t23.5 95.5q0 55 -21 90.5t-63 35.5t-64.5 -36t-22.5 -94q0 -59 23 -92.5z" />
    <glyph glyph-name="uni0BB8" unicode="&#xbb8;" horiz-adv-x="1197" 
d="M113 47q-57 60 -57 197q0 154 70.5 230.5t184.5 76.5q91 -1 149.5 -48.5t90.5 -125.5q0 74 32.5 124t128.5 50q72 0 108 -32.5t47 -85t11 -130.5v-46l-1 -52q0 -92 18 -136t72 -44q71 0 107 76t36 178q3 71 -15 122.5t-42.5 79.5t-43.5 37q-2 9 5.5 21t21.5 12
q22 0 49.5 -32.5t46 -92.5t15.5 -140q0 -131 -49 -215t-141 -84q-66 0 -96.5 35t-37.5 89t-7 148v55q0 63 -6.5 104.5t-29 68.5t-68.5 27q-106 0 -104 -140v-305q2 -49 7 -63q-15 -12 -36 -12q-17 0 -24 9.5t-7 33.5v207q0 61 -26 124.5t-79.5 106.5t-130.5 43
q-90 0 -155.5 -64t-65.5 -217q0 -193 126 -216q-28 21 -39.5 58.5t-11.5 76.5q0 73 36 116t98 43t98.5 -43.5t36.5 -117.5q0 -85 -47 -126t-124 -41q-94 0 -151 60zM349 58.5q24 34.5 24 94.5q0 55 -21 90.5t-64 35.5t-66 -36t-23 -94q0 -59 23.5 -92t62.5 -33q40 0 64 34.5
z" />
    <glyph glyph-name="uni0BB9" unicode="&#xbb9;" horiz-adv-x="1473" 
d="M101 -231q0 58 49.5 89t140.5 31h803q104 0 158 27t76 94.5t22 199.5q0 106 -10.5 170t-37 95.5t-73.5 31.5q-55 0 -86 -44.5t-31 -136.5v-257q0 -44 7 -63q-13 -12 -33 -12q-18 0 -25.5 9.5t-7.5 33.5v302q0 71 -23 119.5t-74 48.5q-40 0 -59 -27t-23.5 -65.5
t-4.5 -101.5v-313h-398v20q46 39 79.5 104.5t33.5 153.5q0 107 -59 171t-177 64q-112 0 -183 -64.5t-71 -210.5q0 -101 35 -155t90 -62q-28 20 -40 56t-12 73q0 70 36 112t98 42t98 -42t36 -114q0 -82 -47 -121.5t-123 -39.5q-94 0 -151.5 61.5t-57.5 193.5q0 152 79 228
t224 76q143 0 216 -71.5t73 -195.5q0 -142 -92 -248h251v321q0 194 143 194q49 0 87 -32t47 -101q14 67 52 100t101 33q73 0 111 -39t51 -109.5t13 -184.5q0 -143 -28.5 -219t-96 -107t-192.5 -31h-798q-60 0 -100 -17.5t-41 -55.5q0 -30 19 -39q-1 -12 -11 -20.5t-25 -8.5
q-38 0 -38 54zM349.5 57q23.5 33 23.5 91q0 52 -21 86t-63 34t-64.5 -34.5t-22.5 -90.5t23 -87.5t62 -31.5t62.5 33z" />
    <glyph glyph-name="uni0BBE" unicode="&#xbbe;" horiz-adv-x="634" 
d="M633 519q0 -12 -10.5 -15t-32.5 -3h-115v-424q0 -50 6 -71q-15 -12 -33 -12t-26 9.5t-8 30.5v467l-266 1v-502h-37v533h519q3 -7 3 -14z" />
    <glyph glyph-name="uni0BBF" unicode="&#xbbf;" horiz-adv-x="283" 
d="M117.5 3.5q-6.5 9.5 -6.5 33.5v392q0 153 -45.5 242.5t-162.5 89.5q-68 0 -105 -32.5t-37 -86.5q0 -50 27.5 -78t72.5 -31v-1q0 -5 -4 -11.5t-9 -10.5q-66 4 -102.5 40t-36.5 92q0 66 50.5 109t146.5 43q138 0 202 -94.5t64 -264.5v-366q0 -42 7 -63q-13 -12 -36 -12
q-19 0 -25.5 9.5z" />
    <glyph glyph-name="uni0BC0" unicode="&#xbc0;" 
d="M-357.5 531q-40.5 15 -70 50t-29.5 91q0 73 54 113.5t141 40.5q83 -1 122 -39t39 -90q0 -46 -30.5 -73t-76.5 -27q-48 0 -77.5 27.5t-29.5 72.5q0 38 26.5 67t65.5 30q-19 3 -38 3q-64 0 -104.5 -32t-40.5 -90q0 -66 40.5 -100.5t87.5 -41.5l-6 -17q-33 0 -73.5 15z
M-153 645q17 19 17 52q0 32 -16 52t-49 20q-34 0 -50.5 -21t-16.5 -51t17 -50.5t50 -20.5q31 0 48 19z" />
    <glyph glyph-name="uni0BC1" unicode="&#xbc1;" horiz-adv-x="385" 
d="M89 304.5q-35 36.5 -35 91.5q0 33 13.5 60.5t39.5 44.5h-248v32h312q74 0 114 -37.5t40 -96.5q0 -60 -39 -95.5t-100 -35.5q-62 0 -97 36.5zM245.5 325q24.5 28 24.5 73q0 43 -24 70t-67 27t-67.5 -27.5t-24.5 -70.5q0 -44 25 -72t66 -28q43 0 67.5 28z" />
    <glyph glyph-name="uni0BC2" unicode="&#xbc2;" horiz-adv-x="588" 
d="M114 306q-35 38 -35 95q0 54 28 100h-266v32h287q35 42 87 66t118 24q80 0 137.5 -44t57.5 -138q0 -61 -26 -99.5t-58 -55t-50 -16.5q-12 0 -15.5 4.5t-2.5 13.5q52 9 78 52t26 98q0 74 -42.5 114.5t-109.5 40.5q-44 0 -87 -16t-68 -44h30q72 0 109.5 -37t37.5 -95
q0 -61 -39 -97t-99 -36q-63 0 -98 38zM270.5 325.5q24.5 28.5 24.5 73.5q0 44 -24 71.5t-67 27.5q-42 0 -67 -28t-25 -72q0 -45 25 -73t67 -28t66.5 28.5z" />
    <glyph glyph-name="uni0BC6" unicode="&#xbc6;" horiz-adv-x="769" 
d="M127.5 60q-70.5 73 -70.5 245q0 115 35.5 202.5t108.5 137t180 49.5q137 0 207 -78t70 -216v-335q0 -43 7 -63q-16 -12 -34 -12q-17 0 -24.5 10t-7.5 33l1 356q0 115 -54.5 195t-170.5 80q-86 0 -149.5 -43.5t-97.5 -124.5t-34 -191q0 -147 50 -211.5t128 -72.5
q-29 21 -41 58t-12 77q0 74 36 117t99 43q64 0 100.5 -44t36.5 -119q0 -85 -48 -125.5t-132 -40.5q-113 0 -183.5 73zM404.5 58q23.5 34 23.5 95q0 55 -20.5 90.5t-63.5 35.5t-66 -36t-23 -94q0 -59 23.5 -92t62.5 -33q40 0 63.5 34z" />
    <glyph glyph-name="uni0BC7" unicode="&#xbc7;" horiz-adv-x="631" 
d="M215.5 27q-74.5 40 -114.5 118t-40 189q0 103 35.5 184.5t107.5 128.5t177 47q83 0 129 -39.5t46 -122.5q0 -70 -36 -110t-100 -40q-63 0 -99 39t-36 108q0 40 13 75.5t39 56.5q-103 -13 -159 -97t-56 -225q0 -150 61 -226t165 -94q-29 20 -41.5 55t-12.5 76
q0 70 37 111.5t100 41.5q64 0 99.5 -41t35.5 -114q0 -82 -46 -121.5t-129 -39.5q-101 0 -175.5 40zM473 448.5q21 32.5 21 81.5q0 59 -24.5 93.5t-63.5 34.5q-38 0 -61.5 -33t-23.5 -91q0 -54 22.5 -86t65.5 -32t64 32.5zM480 56.5q24 34.5 24 94.5q0 51 -20 84.5t-62 33.5
t-67 -34.5t-25 -90.5t24 -89t63 -33t63 34.5z" />
    <glyph glyph-name="uni0BC8" unicode="&#xbc8;" horiz-adv-x="1144" 
d="M959.5 507.5q65.5 -38.5 100 -107.5t34.5 -159q0 -79 -28.5 -137t-76.5 -87.5t-104 -29.5q-9 1 -14.5 7.5t-6.5 14.5q42 4 80.5 30t63 77t24.5 123q0 86 -30 148t-83 94t-121 32q-70 0 -128 -37q65 -44 100.5 -114t35.5 -160q0 -97 -42 -156t-120 -59q-75 0 -110 54
t-35 150q0 89 27 160t77 119q-80 43 -193 43q-137 0 -227 -69t-90 -217q0 -93 36 -145.5t90 -60.5q-28 20 -40 57t-12 77q0 73 35.5 116.5t97.5 43.5q61 0 97 -43.5t36 -117.5q0 -85 -46.5 -126t-121.5 -41q-91 0 -150 59.5t-59 182.5q0 157 95 237t260 80q132 0 225 -49
q72 49 169 49q89 0 154.5 -38.5zM635 449q-46 -42 -72.5 -107.5t-26.5 -149.5q0 -81 26 -120.5t74 -39.5q52 0 79.5 44t27.5 123q0 169 -108 250zM224.5 57q22.5 -33 61.5 -33q38 0 61.5 34.5t23.5 94.5q0 54 -20.5 89.5t-62.5 35.5q-41 0 -63.5 -36t-22.5 -94t22.5 -91z
" />
    <glyph glyph-name="uni0BCA" unicode="&#xbca;" horiz-adv-x="1989" 
d="M637 65q0 -42 6 -63q-15 -12 -33 -12q-17 0 -24.5 10t-7.5 33v356q0 116 -54 195.5t-170 79.5q-86 0 -149.5 -43.5t-97.5 -124.5t-34 -191q0 -147 50 -211.5t128 -72.5q-29 21 -41 58t-12 77q0 74 36 117t99 43t99.5 -44t36.5 -119q0 -85 -47.5 -125.5t-131.5 -40.5
q-114 0 -184 73t-70 245q0 115 35.5 202.5t108.5 137t180 49.5q137 0 207 -78t70 -216v-335zM1057 545q8 -8 8 -20t-8 -20t-19 -8q-12 0 -20 8t-8 20t8 20t20 8q11 0 19 -8zM919 486q-8 8 -8 20t8 20t19 8q12 0 20 -8t8 -20t-8 -20t-20 -8q-11 0 -19 8zM1157 526q8 -8 8 -20
t-8 -20t-19 -8q-12 0 -20 8t-8 20t8 20t20 8q11 0 19 -8zM1993 519q0 -12 -10 -15t-32 -3h-116v-424q0 -51 7 -71q-16 -12 -34 -12t-26 9.5t-8 30.5v467l-266 1v-502h-37v533h519q3 -7 3 -14zM875 470q8 -8 8 -20t-8 -20t-20 -8q-11 0 -19 8t-8 20t8 20t19 8q12 0 20 -8z
M1201 430q-8 8 -8 20t8 20t20 8q11 0 19 -8t8 -20t-8 -20t-19 -8q-12 0 -20 8zM779 346q-8 8 -8 20t8 20t19 8q12 0 20 -8t8 -20t-8 -20t-20 -8q-11 0 -19 8zM1258 346q-8 8 -8 20t8 20t20 8q11 0 19 -8t8 -20t-8 -20t-19 -8q-12 0 -20 8zM799 246q-8 -8 -20 -8q-11 0 -19 8
t-8 20t8 20t19 8q12 0 20 -8t8 -20t-8 -20zM1316 286q8 -8 8 -20t-8 -20t-19 -8q-12 0 -20 8t-8 20t8 20t20 8q11 0 19 -8zM256.5 57.5q23.5 -33.5 63.5 -33.5t63.5 34t23.5 95q0 55 -20.5 90.5t-64.5 35.5q-43 0 -66 -36t-23 -94t23.5 -91.5zM820 188q8 -8 8 -20t-8 -20
t-20 -8q-11 0 -19 8t-8 20t8 20t19 8q12 0 20 -8zM1295 188q8 -8 8 -20t-8 -20t-19 -8q-12 0 -20 8t-8 20t8 20t20 8q11 0 19 -8zM875 105q8 -8 8 -20t-8 -20t-20 -8q-11 0 -19 8t-8 20t8 20t19 8q12 0 20 -8zM1240 105q8 -8 8 -20t-8 -20t-19 -8q-12 0 -20 8t-8 20t8 20
t20 8q11 0 19 -8zM960 48q8 -8 8 -20t-8 -20t-20 -8q-11 0 -19 8t-8 20t8 20t19 8q12 0 20 -8zM1155 48q8 -8 8 -20t-8 -20t-19 -8q-12 0 -20 8t-8 20t8 20t20 8q11 0 19 -8zM1057 29q8 -8 8 -20t-8 -20t-19 -8q-12 0 -20 8t-8 20t8 20t20 8q11 0 19 -8z" />
    <glyph glyph-name="uni0BCB" unicode="&#xbcb;" horiz-adv-x="1851" 
d="M530.5 262q35.5 -41 35.5 -114q0 -82 -46 -121.5t-129 -39.5q-101 0 -175.5 40t-114.5 118t-40 189q0 103 35.5 184.5t107.5 128.5t177 47q83 0 129 -39.5t46 -122.5q0 -70 -36 -110t-100 -40q-63 0 -99 39t-36 108q0 40 13 75.5t39 56.5q-103 -13 -159 -97t-56 -225
q0 -150 61 -226t165 -94q-29 20 -41.5 55t-12.5 76q0 70 37 111.5t100 41.5q64 0 99.5 -41zM344.5 625q-23.5 -33 -23.5 -91q0 -54 22.5 -86t65.5 -32t64 32.5t21 81.5q0 59 -24.5 93.5t-63.5 34.5q-38 0 -61.5 -33zM929 544q8 -8 8 -20t-8 -20t-19 -8q-12 0 -20 8t-8 20
t8 20t20 8q11 0 19 -8zM791 485q-8 8 -8 20t8 20t19 8q12 0 20 -8t8 -20t-8 -20t-20 -8q-11 0 -19 8zM1029 525q8 -8 8 -20t-8 -20t-19 -8q-12 0 -20 8t-8 20t8 20t20 8q11 0 19 -8zM1852 519q0 -12 -10.5 -15t-32.5 -3h-115v-424q0 -50 6 -71q-15 -12 -33 -12t-26.5 9.5
t-8.5 30.5v467l-266 1v-502h-36v533h519q3 -7 3 -14zM747 469q8 -8 8 -20t-8 -20t-20 -8q-11 0 -19 8t-8 20t8 20t19 8q12 0 20 -8zM1073 429q-8 8 -8 20t8 20t20 8q11 0 19 -8t8 -20t-8 -20t-19 -8q-12 0 -20 8zM651 345q-8 8 -8 20t8 20t19 8q12 0 20 -8t8 -20t-8 -20
t-20 -8q-11 0 -19 8zM1130 345q-8 8 -8 20t8 20t20 8q11 0 19 -8t8 -20t-8 -20t-19 -8q-12 0 -20 8zM671 245q-8 -8 -20 -8q-11 0 -19 8t-8 20t8 20t19 8q12 0 20 -8t8 -20t-8 -20zM1188 285q8 -8 8 -20t-8 -20t-19 -8q-12 0 -20 8t-8 20t8 20t20 8q11 0 19 -8zM480 56.5
q24 34.5 24 94.5q0 51 -20 84.5t-62 33.5t-67 -34.5t-25 -90.5t24 -89t63 -33t63 34.5zM692 187q8 -8 8 -20t-8 -20t-20 -8q-11 0 -19 8t-8 20t8 20t19 8q12 0 20 -8zM1167 187q8 -8 8 -20t-8 -20t-19 -8q-12 0 -20 8t-8 20t8 20t20 8q11 0 19 -8zM747 104q8 -8 8 -20
t-8 -20t-20 -8q-11 0 -19 8t-8 20t8 20t19 8q12 0 20 -8zM1112 104q8 -8 8 -20t-8 -20t-19 -8q-12 0 -20 8t-8 20t8 20t20 8q11 0 19 -8zM832 47q8 -8 8 -20t-8 -20t-20 -8q-11 0 -19 8t-8 20t8 20t19 8q12 0 20 -8zM1027 47q8 -8 8 -20t-8 -20t-19 -8q-12 0 -20 8t-8 20
t8 20t20 8q11 0 19 -8zM929 28q8 -8 8 -20t-8 -20t-19 -8q-12 0 -20 8t-8 20t8 20t20 8q11 0 19 -8z" />
    <glyph glyph-name="uni0BCC" unicode="&#xbcc;" horiz-adv-x="2428" 
d="M633 65q0 -43 7 -63q-15 -12 -34 -12q-17 0 -24.5 10t-7.5 33l1 356q0 116 -54 195.5t-171 79.5q-86 0 -149 -43.5t-97 -124.5t-34 -191q0 -147 49.5 -211.5t127.5 -72.5q-29 21 -41 58t-12 77q0 74 36.5 117t99.5 43t99.5 -44t36.5 -119q0 -85 -47.5 -125.5
t-132.5 -40.5q-113 0 -183.5 73t-70.5 245q0 115 36 202.5t108.5 137t179.5 49.5q137 0 207 -78t70 -216v-335zM1036 544q8 -8 8 -20t-8 -20t-19 -8q-12 0 -20 8t-8 20t8 20t20 8q11 0 19 -8zM2429 521q0 -13 -8 -16t-24 -3h-127v-423q0 -28 1.5 -46t5.5 -27
q-13 -12 -34 -12q-18 0 -26 9.5t-8 33.5v465h-154q-38 0 -58 -10t-29 -35.5t-9 -74.5l1 -313q0 -43 6 -63q-13 -12 -37 -12q-16 0 -23.5 10t-6.5 33v258q0 44 -24 95t-77 87t-134 36q-95 0 -160 -61.5t-65 -213.5q0 -194 126 -217q-28 21 -40 58.5t-12 75.5q0 73 36 117
t98 44q63 0 99.5 -43.5t36.5 -118.5q0 -85 -47 -126t-124 -41q-97 0 -154 60t-57 197q0 155 71.5 228.5t190.5 73.5q65 0 115 -20.5t81 -54t43 -71.5q0 77 36 105t108 28h380q3 -6 3 -12zM898 485q-8 8 -8 20t8 20t19 8q12 0 20 -8t8 -20t-8 -20t-20 -8q-11 0 -19 8z
M1136 525q8 -8 8 -20t-8 -20t-19 -8q-12 0 -20 8t-8 20t8 20t20 8q11 0 19 -8zM854 469q8 -8 8 -20t-8 -20t-20 -8q-11 0 -19 8t-8 20t8 20t19 8q12 0 20 -8zM1180 429q-8 8 -8 20t8 20t20 8q11 0 19 -8t8 -20t-8 -20t-19 -8q-12 0 -20 8zM758 345q-8 8 -8 20t8 20t19 8
q12 0 20 -8t8 -20t-8 -20t-20 -8q-11 0 -19 8zM1237 345q-8 8 -8 20t8 20t20 8q11 0 19 -8t8 -20t-8 -20t-19 -8q-12 0 -20 8zM778 245q-8 -8 -20 -8q-11 0 -19 8t-8 20t8 20t19 8q12 0 20 -8t8 -20t-8 -20zM1295 285q8 -8 8 -20t-8 -20t-19 -8q-12 0 -20 8t-8 20t8 20t20 8
q11 0 19 -8zM253.5 57q23.5 -33 62.5 -33q40 0 63.5 34t23.5 95q0 55 -20.5 90.5t-63.5 35.5t-66 -36t-23 -94q0 -59 23.5 -92zM1570.5 57.5q23.5 -33.5 62.5 -33.5q40 0 64 34.5t24 94.5q0 55 -21 90.5t-64 35.5t-66 -36t-23 -94t23.5 -91.5zM799 187q8 -8 8 -20t-8 -20
t-20 -8q-11 0 -19 8t-8 20t8 20t19 8q12 0 20 -8zM1274 187q8 -8 8 -20t-8 -20t-19 -8q-12 0 -20 8t-8 20t8 20t20 8q11 0 19 -8zM854 104q8 -8 8 -20t-8 -20t-20 -8q-11 0 -19 8t-8 20t8 20t19 8q12 0 20 -8zM1219 104q8 -8 8 -20t-8 -20t-19 -8q-12 0 -20 8t-8 20t8 20
t20 8q11 0 19 -8zM939 47q8 -8 8 -20t-8 -20t-20 -8q-11 0 -19 8t-8 20t8 20t19 8q12 0 20 -8zM1134 47q8 -8 8 -20t-8 -20t-19 -8q-12 0 -20 8t-8 20t8 20t20 8q11 0 19 -8zM1036 28q8 -8 8 -20t-8 -20t-19 -8q-12 0 -20 8t-8 20t8 20t20 8q11 0 19 -8z" />
    <glyph glyph-name="uni0BCD" unicode="&#xbcd;" 
d="M-179.5 674.5q-13.5 13.5 -13.5 32.5q0 20 13.5 33.5t33.5 13.5q19 0 32.5 -14t13.5 -33t-13.5 -32.5t-32.5 -13.5q-20 0 -33.5 13.5z" />
    <glyph glyph-name="uni0BD0" unicode="&#xbd0;" horiz-adv-x="750" 
d="M498.5 181.5q-30.5 29.5 -30.5 75.5q0 19 5.5 37.5t15.5 28.5q-17 -3 -39 -20t-38.5 -46.5t-16.5 -66.5q0 -61 44 -96t122 -35q40 0 71 8l8 -12q-31 -60 -86.5 -105t-123 -69t-134.5 -24q-92 0 -138.5 42.5t-46.5 103.5q0 43 19 65.5t36 25.5l6 1q15 0 18 -10
q-14 -18 -21.5 -33.5t-7.5 -44.5q0 -55 34 -84.5t114 -29.5q92 0 167 37.5t109 87.5q-22 -3 -47 -3q-87 0 -139 43t-52 118q0 60 32.5 101t78 61.5t82.5 20.5l10 -18q-23 -10 -33.5 -30.5t-10.5 -44.5q0 -35 18 -55t46 -20q35 0 56.5 32.5t21.5 82.5q0 65 -38 111
t-103.5 69.5t-146.5 23.5q-115 0 -188.5 -47.5t-91.5 -128.5q29 32 81 32q46 0 75.5 -26.5t29.5 -68.5q0 -46 -31.5 -73.5t-81.5 -27.5q-57 0 -84.5 35t-27.5 87q0 72 37.5 129.5t111.5 91t177 33.5q94 0 172 -28t124.5 -82.5t46.5 -131.5q0 -68 -35 -110t-96 -42
q-50 0 -80.5 29.5zM101 317q-17 -19 -17 -50t17 -49t46 -18q30 0 48 20t18 49q0 30 -17.5 48.5t-47.5 18.5t-47 -19zM292 91q-4 -4 -10 -4t-10 4t-4 10t4 10t10 4t10 -4t4 -10t-4 -10zM245 67v-95h43v64q0 38 39 38q28 0 40 -19.5t12 -48.5q0 -22 -7.5 -37.5t-35.5 -15.5
h-105q-8 0 -9.5 3t-1.5 7v5v87q0 11 -2 15q8 2 14 2q13 0 13 -5zM315 -28h19q10 0 14 8.5t4 23.5q0 25 -6 38.5t-17 13.5q-14 0 -14 -18v-66z" />
    <glyph glyph-name="uni0BD7" unicode="&#xbd7;" horiz-adv-x="1084" 
d="M1083 521q0 -13 -8 -16t-23 -3h-127v-423q0 -53 6 -73q-13 -12 -33 -12q-18 0 -26 9.5t-8 33.5v465h-154q-38 0 -58 -10t-29 -35.5t-9 -74.5v-313q0 -22 1.5 -38t5.5 -25q-13 -12 -37 -12q-17 0 -24 9.5t-6 33.5v258q0 44 -24 94.5t-77 87t-134 36.5q-95 0 -160.5 -61.5
t-65.5 -213.5q0 -105 35 -156t91 -61q-28 21 -40 58.5t-12 75.5q0 73 36.5 117t98.5 44q63 0 99.5 -43.5t36.5 -118.5q0 -85 -47.5 -126t-123.5 -41q-97 0 -154 60t-57 197q0 155 71 228.5t190 73.5q65 0 115.5 -20.5t81.5 -54t43 -71.5q0 77 36 105t108 28h380q2 -4 2 -12z
M225.5 57q23.5 -33 62.5 -33q40 0 64 34.5t24 94.5q0 55 -21 90.5t-64 35.5t-66 -36t-23 -94q0 -59 23.5 -92z" />
    <glyph glyph-name="uni0BE6" unicode="&#xbe6;" horiz-adv-x="601" 
d="M129 61.5q-62 74.5 -62 206.5t62 205.5t172 73.5t171.5 -73.5t61.5 -205.5t-61.5 -206.5t-171.5 -74.5t-172 74.5zM426.5 85.5q43.5 64.5 43.5 180.5q0 120 -45.5 183.5t-125.5 63.5t-124 -63.5t-44 -181.5q0 -119 44.5 -183t125.5 -64q82 0 125.5 64.5z" />
    <glyph glyph-name="uni0BE7" unicode="&#xbe7;" horiz-adv-x="781" 
d="M751 162q0 -55 -29.5 -94.5t-77.5 -60.5t-102 -21q-14 0 -19 9t-2 18q68 6 118 43t50 107q0 124 -157 124h-73v-58q0 -123 -60.5 -182.5t-155.5 -59.5q-57 0 -101 22t-68 61t-24 88q0 50 26.5 92.5t87.5 59.5v182q0 22 9 31.5t28 9.5h431q3 -7 3 -13q0 -13 -12.5 -16
t-45.5 -3h-118v-183h80q212 0 212 -156zM197 316q24 2 38 2h163v183h-184q-17 -2 -17 -18v-167zM398 287h-161q-79 0 -114.5 -35.5t-35.5 -92.5q0 -65 43 -98.5t108 -33.5q72 0 116 47t44 147v66z" />
    <glyph glyph-name="uni0BE8" unicode="&#xbe8;" horiz-adv-x="922" 
d="M905 35v-32l-758 -3q-57 0 -79.5 19.5t-22.5 53.5q0 45 33.5 61.5t105.5 17.5q18 0 37 3q-49 5 -86 34t-56 71.5t-19 88.5q0 57 26 103t75 72.5t116 26.5q90 0 154 -48.5t64 -151.5q0 -216 -280 -228q-12 -1 -32 -1q-38 -1 -56 -4t-28.5 -12.5t-10.5 -30.5q0 -19 13 -31
t52 -12zM117.5 258q20.5 -39 58 -62t87.5 -23q76 0 121.5 46t45.5 123q0 84 -45.5 127.5t-119.5 43.5q-46 0 -84 -20t-61 -58.5t-23 -91.5q0 -46 20.5 -85z" />
    <glyph glyph-name="uni0BE9" unicode="&#xbe9;" horiz-adv-x="817" 
d="M782 29v-30h-435v26q94 22 173 76.5t79 153.5q0 46 -22 77.5t-70 31.5q-52 0 -83 -40.5t-32 -112.5v-14q-12 -10 -32 -10q-30 0 -30 15v299h-206v-501h-34v533h458q2 -5 2 -13q0 -13 -12.5 -16t-44.5 -3h-101v-165q38 73 129 73q74 0 107 -43.5t33 -106.5
q0 -88 -52.5 -145t-124.5 -85h298z" />
    <glyph glyph-name="uni0BEA" unicode="&#xbea;" horiz-adv-x="749" 
d="M675 533v-210q0 -13 -9 -22.5t-21 -9.5h-178v-65q0 -122 -62 -180.5t-159 -58.5q-93 0 -144.5 47t-51.5 121q0 56 27 100t95 60v177q0 22 9 31.5t28 9.5h383q2 -5 2 -13q0 -13 -12.5 -16t-46.5 -3h-68v-179h162q6 0 10 4t4 10v197h32zM205 320q24 2 38 2h163v179h-176
q-13 0 -19 -4t-6 -14v-163zM406 291h-158q-161 0 -161 -136q0 -63 42 -95.5t112 -32.5q74 0 119.5 46t45.5 146v72z" />
    <glyph glyph-name="uni0BEB" unicode="&#xbeb;" horiz-adv-x="988" 
d="M905 331q32 -58 32 -142q0 -114 -51.5 -196.5t-146.5 -126t-224 -43.5q-163 0 -266 65t-148 164.5t-45 209.5q0 106 40 206.5t145 170.5t285 70q94 0 172.5 -24t125.5 -59q5 -9 -5 -17.5t-22 -7.5q-103 76 -275 76q-199 0 -303 -109.5t-104 -303.5q0 -114 41 -205.5
t131.5 -146t230.5 -54.5q163 0 260 83.5t97 244.5q0 158 -98 158q-58 0 -92.5 -51.5t-34.5 -126.5v-92q0 -57 7 -78q-15 -12 -34 -12q-18 0 -26 10t-8 33v474h-259v-501h-34v533h521q2 -8 2 -12q0 -13 -8.5 -16.5t-22.5 -3.5h-138v-207q17 42 51 68.5t89 26.5q83 0 115 -58z
" />
    <glyph glyph-name="uni0BEC" unicode="&#xbec;" horiz-adv-x="1109" 
d="M1099 31v-31h-236v31q47 22 72 64t25 89q0 53 -27.5 82t-83.5 29q-82 0 -114.5 -53.5t-32.5 -115.5v-94q0 -23 -8.5 -33t-26.5 -10q-19 0 -34 12q5 12 6 46q3 54 3 108q0 62 -31 97t-105 35h-47v-58q0 -123 -60.5 -182.5t-155.5 -59.5q-57 0 -101 22t-68 61t-24 88
q0 50 26.5 92.5t87.5 59.5v182q0 22 9 31.5t28 9.5h424q3 -7 3 -13q0 -13 -12.5 -16t-45.5 -3h-111v-183h62q68 0 110 -24t59 -66q21 44 61 72t106 28q80 0 122.5 -39.5t42.5 -104.5q0 -42 -23 -85t-70 -68h170zM197 316q24 2 38 2h163v183h-184q-17 -2 -17 -18v-167z
M398 287h-161q-79 0 -114.5 -35.5t-35.5 -93.5q0 -64 43 -97.5t108 -33.5q72 0 116 47t44 147v66z" />
    <glyph glyph-name="uni0BED" unicode="&#xbed;" horiz-adv-x="773" 
d="M772 521q0 -13 -8.5 -16.5t-22.5 -3.5h-127v-422q0 -53 6 -73q-13 -12 -33 -12q-18 0 -26.5 9.5t-8.5 33.5v464h-149q-143 0 -226 -61.5t-83 -215.5q0 -93 35 -143.5t88 -59.5q-29 21 -41.5 58.5t-12.5 76.5q0 73 37 116.5t98 43.5q65 0 101 -43.5t36 -117.5
q0 -85 -46.5 -126.5t-118.5 -41.5q-96 0 -155 58.5t-59 179.5q0 163 89.5 235.5t259.5 72.5h366q1 -4 1 -12zM222.5 57.5q23.5 -33.5 59.5 -33.5q43 0 67 34t24 96q0 54 -21 89.5t-64 35.5t-66 -36t-23 -93q0 -59 23.5 -92.5z" />
    <glyph glyph-name="uni0BEE" unicode="&#xbee;" horiz-adv-x="1029" 
d="M928 -27q0 -29 1.5 -40.5t5.5 -15.5q-12 -15 -36 -15q-18 0 -25.5 13.5t-7.5 44.5l-1 196h-145q-35 -76 -105 -125.5t-156 -72.5t-175 -23t-146 20.5t-82.5 54t-25.5 72.5q0 55 52 80.5t168 25.5h188q-59 26 -88.5 74t-29.5 103q0 84 57 132.5t153 48.5q99 0 160 -60.5
t61 -180.5q0 -64 -18 -117h132v155v76q0 46 -1.5 65.5t-8.5 41.5q18 15 37 15q16 0 25.5 -10t9.5 -28l1 -463v-67zM382.5 279.5q22.5 -40.5 68 -66t111.5 -25.5h108q17 48 17 108q0 96 -41.5 154t-133.5 58q-72 0 -112 -39.5t-40 -103.5q0 -45 22.5 -85.5zM498.5 14
q108.5 42 158.5 142h-402q-98 0 -140 -18t-42 -58q0 -51 57 -79.5t150 -28.5q110 0 218.5 42z" />
    <glyph glyph-name="uni0BEF" unicode="&#xbef;" horiz-adv-x="1066" 
d="M928.5 377q50.5 -32 72.5 -82t22 -105q0 -49 -18.5 -96t-47.5 -77t-59 -30q-13 0 -17 8t-1 17q20 6 39 29t31.5 60.5t12.5 85.5q0 78 -41.5 132t-133.5 54t-149 -55q101 -1 149 -49t48 -121q0 -42 -18 -78.5t-54 -59.5t-87 -23q-67 0 -103 47t-36 118q0 74 35 135h-114
v-58q0 -124 -60.5 -183t-155.5 -59q-58 0 -101.5 22t-67.5 60.5t-24 88.5t26.5 92.5t87.5 59.5v182q0 22 9 31.5t28 9.5h424q3 -7 3 -13q0 -13 -12.5 -16t-45.5 -3h-111v-183h134q34 42 84.5 66.5t119.5 24.5q81 0 131.5 -32zM197 316q24 2 38 2h163v183l-184 -1
q-17 0 -17 -17v-167zM398 287h-161q-79 0 -114.5 -35.5t-35.5 -92.5q0 -65 43 -98.5t108 -33.5q72 0 116 46.5t44 147.5v66zM739 244.5q-35 42.5 -114 42.5h-12q-20 -29 -29.5 -64t-9.5 -70q0 -44 21 -85.5t75 -41.5q48 0 76 35t28 85q0 56 -35 98.5z" />
    <glyph glyph-name="uni0BF0" unicode="&#xbf0;" horiz-adv-x="794" 
d="M152 204q0 -57 3.5 -90t26.5 -62.5t74 -29.5q114 0 114 167v305q0 24 7.5 33.5t25.5 9.5q20 0 33 -12q-7 -19 -7 -63v-259q0 -92 30 -136.5t81 -44.5q61 0 85.5 68.5t24.5 214.5q0 133 -24.5 203t-69.5 104t-139 74q-16 7 -16 25q0 11 6 17q11 -7 39 -16
q98 -33 155 -82.5t84 -129t27 -202.5q0 -103 -14 -171t-51.5 -106t-105.5 -38q-57 0 -91.5 33.5t-48.5 99.5q-10 -66 -49 -99.5t-100 -33.5q-95 0 -128.5 54.5t-33.5 138.5v357h62v-329z" />
    <glyph glyph-name="uni0BF1" unicode="&#xbf1;" horiz-adv-x="885" 
d="M885 519q0 -12 -12 -15t-37 -3h-78v-424q0 -48 7 -71q-13 -12 -33 -12q-18 0 -26.5 9.5t-8.5 30.5v467l-242 1v-502h-61v435q-28 34 -66 51.5t-77 17.5q-53 0 -72.5 -24.5t-19.5 -78.5v-377q0 -16 -9 -25t-27 -9q-15 0 -33 8q8 13 7.5 34t-0.5 23v363q0 127 137 127
q50 0 91 -16.5t69 -43.5v48h488q3 -7 3 -14z" />
    <glyph glyph-name="uni0BF2" unicode="&#xbf2;" horiz-adv-x="1012" 
d="M935 127.5q42 -39.5 42 -119.5t-53 -121t-168 -41h-132q-39 0 -65 -12t-27 -37q0 -20 13 -25q-3 -21 -25 -21q-16 0 -24 11.5t-8 29.5q0 40 35 62t97 22h133q96 0 134 34t38 100q0 64 -29.5 95t-96.5 31h-21v-48q0 -78 -45 -115.5t-111 -37.5q-60 0 -94.5 30.5
t-34.5 82.5q0 47 34 83t114 36h83v117h-257v-55q0 -123 -62 -182.5t-159 -59.5q-93 0 -144.5 46.5t-51.5 120.5q0 53 28 96t96 58v184q0 22 9 31.5t27 9.5h433q2 -10 2 -13q0 -13 -12.5 -16t-45.5 -3h-120v-186h465q2 -6 2 -10q0 -8 -5 -14.5t-15 -6.5h-136v-117h27
q88 0 130 -39.5zM206 313q24 2 37 2h163v186h-175q-13 0 -19 -4t-6 -14v-170zM406 284h-158q-161 0 -161 -130q0 -62 42 -94.5t112 -32.5q74 0 119.5 46.5t45.5 147.5v63zM724 136h-80q-59 0 -86 -24.5t-27 -62.5q0 -42 24.5 -61t64.5 -19q47 0 75.5 26.5t28.5 83.5v57z" />
    </font>
</defs>
</svg>
